<?xml version="1.0" encoding="UTF-8" standalone="no"?>
<!DOCTYPE svg PUBLIC "-//W3C//DTD SVG 1.1//EN" "http://www.w3.org/Graphics/SVG/1.1/DTD/svg11.dtd">
<svg viewBox="0 0 48 48" version="1.1" xmlns="http://www.w3.org/2000/svg"
    xmlns:xlink="http://www.w3.org/1999/xlink" xml:space="preserve"
    xmlns:serif="http://www.serif.com/"
    style="fill-rule:evenodd;clip-rule:evenodd;stroke-linejoin:round;stroke-miterlimit:2;">
    <rect x="0" y="0" width="48" height="48" style="fill:none;"/>
    <path d="M24,44C21.267,44 18.683,43.475 16.25,42.425C13.817,41.375 11.692,39.942 9.875,38.125C8.058,36.308 6.625,34.183 5.575,31.75C4.525,29.317 4,26.733 4,24C4,21.2 4.533,18.583 5.6,16.15C6.667,13.717 8.125,11.6 9.975,9.8C11.825,8 13.992,6.583 16.475,5.55C18.958,4.517 21.617,4 24.45,4C27.083,4 29.583,4.442 31.95,5.325C34.317,6.208 36.392,7.433 38.175,9C39.958,10.567 41.375,12.425 42.425,14.575C43.475,16.725 44,19.083 44,21.65C44,25.25 42.95,28.092 40.85,30.175C38.75,32.258 35.967,33.3 32.5,33.3L28.75,33.3C28.15,33.3 27.633,33.533 27.2,34C26.767,34.467 26.55,34.983 26.55,35.55C26.55,36.217 26.792,36.85 27.275,37.45C27.758,38.05 28,38.767 28,39.6C28,40.467 27.592,41.417 26.775,42.45C25.958,43.483 25.033,44 24,44ZM12.35,25.3C13.017,25.3 13.6,25.05 14.1,24.55C14.6,24.05 14.85,23.467 14.85,22.8C14.85,22.133 14.6,21.55 14.1,21.05C13.6,20.55 13.017,20.3 12.35,20.3C11.683,20.3 11.1,20.55 10.6,21.05C10.1,21.55 9.85,22.133 9.85,22.8C9.85,23.467 10.1,24.05 10.6,24.55C11.1,25.05 11.683,25.3 12.35,25.3ZM18.65,16.8C19.317,16.8 19.9,16.55 20.4,16.05C20.9,15.55 21.15,14.967 21.15,14.3C21.15,13.633 20.9,13.05 20.4,12.55C19.9,12.05 19.317,11.8 18.65,11.8C17.983,11.8 17.4,12.05 16.9,12.55C16.4,13.05 16.15,13.633 16.15,14.3C16.15,14.967 16.4,15.55 16.9,16.05C17.4,16.55 17.983,16.8 18.65,16.8ZM29.35,16.8C30.017,16.8 30.6,16.55 31.1,16.05C31.6,15.55 31.85,14.967 31.85,14.3C31.85,13.633 31.6,13.05 31.1,12.55C30.6,12.05 30.017,11.8 29.35,11.8C28.683,11.8 28.1,12.05 27.6,12.55C27.1,13.05 26.85,13.633 26.85,14.3C26.85,14.967 27.1,15.55 27.6,16.05C28.1,16.55 28.683,16.8 29.35,16.8ZM35.9,25.3C36.567,25.3 37.15,25.05 37.65,24.55C38.15,24.05 38.4,23.467 38.4,22.8C38.4,22.133 38.15,21.55 37.65,21.05C37.15,20.55 36.567,20.3 35.9,20.3C35.233,20.3 34.65,20.55 34.15,21.05C33.65,21.55 33.4,22.133 33.4,22.8C33.4,23.467 33.65,24.05 34.15,24.55C34.65,25.05 35.233,25.3 35.9,25.3Z" style="fill-rule:nonzero;"/>
</svg>
