<?xml version="1.0" encoding="UTF-8" standalone="no"?><!DOCTYPE svg PUBLIC "-//W3C//DTD SVG 1.1//EN" "http://www.w3.org/Graphics/SVG/1.1/DTD/svg11.dtd"><svg width="100%" height="100%" viewBox="0 0 8000 4500" version="1.1" xmlns="http://www.w3.org/2000/svg" xmlns:xlink="http://www.w3.org/1999/xlink" xml:space="preserve" xmlns:serif="http://www.serif.com/" style="fill-rule:evenodd;clip-rule:evenodd;stroke-linejoin:round;stroke-miterlimit:2;"><g id="Background"><rect x="0" y="0" width="8000" height="4500" style="fill:#171717;"/><g id="Lines"><path d="M-293.375,1176.48l-383.244,-440.875c0,0 434.446,-412.379 455.056,-431.941l-1006.67,-108.322l0.232,-2.159l1004.96,108.138l-562.744,-410.184l1.279,-1.755l564.671,411.589l-250.764,-809.937l2.075,-0.642l250.829,810.149l486.814,-333.691c0,-0 0.119,0.223 0.351,0.659l817.157,224.176l0.316,-0.097l0.194,0.191l-168.005,-524.123l2.068,-0.663l168.302,525.045l2.965,0.326l437.982,-302.997l0.706,1.02l0.732,-1.005l564.671,411.589l-250.763,-809.937l2.074,-0.642l250.829,810.149l486.815,-333.691c-0,-0 0.118,0.223 0.35,0.659l817.157,224.176l0.316,-0.097l0.194,0.191l-168.005,-524.123l2.068,-0.663l168.302,525.045l2.966,0.326l437.981,-302.997l0.618,0.893l0.64,-0.878l564.67,411.589l-250.763,-809.937l2.074,-0.642l250.829,810.149l486.815,-333.691c-0,-0 0.119,0.223 0.351,0.659l817.157,224.176l0.315,-0.097l0.195,0.191l-168.005,-524.123l2.067,-0.663l168.302,525.045l2.966,0.326l437.982,-302.997l0.706,1.02l0.732,-1.005l564.67,411.589l-250.763,-809.937l2.075,-0.642l250.829,810.149l486.814,-333.691c0,-0 0.119,0.223 0.351,0.659l817.157,224.176l0.315,-0.097l0.195,0.191l-168.005,-524.123l2.068,-0.663l168.302,525.045l2.965,0.326l437.982,-302.997l1.235,1.786l-435.924,301.574l1005.23,110.734c-0,-0 -452.18,426.422 -458.339,432.231l0.707,0.692l-0.192,0.033l384.837,442.708l-864.665,320.996l685.026,306.383l-315.749,399.756l566.561,413.358l-0.025,0.033l1.839,0.203c-0,-0 -452.18,426.423 -458.339,432.231l0.707,0.692l-0.192,0.034l384.837,442.707l-864.665,320.996l685.026,306.383l-315.749,399.756l566.561,413.358l-1.28,1.754l-566.851,-413.57l-443.548,304.395l-0.265,-0.831l-816.361,-225.005l215.961,406.006l-1.918,1.02l-216.574,-407.16l-485.861,333.038l0.484,0.353l-1.28,1.754l-0.118,-0.086l-0.062,0.086l-1.017,-0.741l-0.213,0.146l-0.12,-0.389l-565.502,-412.586l-443.547,304.395l-0.265,-0.831l-816.361,-225.005l215.96,406.006l-1.917,1.02l-216.574,-407.16l-485.861,333.038l0.484,0.353l-1.28,1.754l-1.104,-0.805l-0.306,0.21l-0.173,-0.56l-565.268,-412.415l-443.547,304.395l-0.265,-0.831l-816.361,-225.005l215.96,406.006l-1.917,1.02l-216.575,-407.16l-485.86,333.038l0.484,0.353l-1.28,1.754l-0.118,-0.086l-0.063,0.086l-1.016,-0.741l-0.214,0.146l-0.12,-0.389l-565.501,-412.586l-443.547,304.395l-0.265,-0.831l-816.362,-225.005l215.961,406.006l-1.917,1.02l-216.575,-407.16l-485.86,333.038l0.484,0.353l-1.28,1.754l-1.104,-0.805l-0.307,0.21l-0.172,-0.56l-566.801,-413.532l315.419,-399.338l-687.33,-307.413l865.19,-321.191l-1047.94,-326.218l0.645,-2.074l1047.33,326.029l-383.244,-440.874c0,-0 434.446,-412.379 455.056,-431.942l-1006.67,-108.322l0.232,-2.159l1004.63,108.102l-300.756,-219.429l-261.653,-190.719l0.086,-0.118l-0.998,-0.728l315.419,-399.337l-687.33,-307.413l865.19,-321.191l-1047.94,-326.218l0.645,-2.074l1047.33,326.029Zm-177.922,628.476l-0.174,-0.565l1.276,0.826l178.515,-624.8l-861.183,319.704l681.566,304.835Zm-51.548,591.539l301.804,219.984l-235.511,-763.708l-13.469,-43.502l-313.565,396.991l260.741,190.235Zm232.644,1096.72l0.311,0.234l388.192,-347.935l-770.753,-92.031l382.25,439.732Zm-382.492,-441.948l771.418,92.11l-318.066,-522.434c-31.171,29.588 -431.568,409.647 -453.352,430.324Zm201.396,1070.08l-0.174,-0.564l1.276,0.826l178.515,-624.8l-861.183,319.703l681.566,304.835Zm250.339,811.793l-249.024,-807.529l-313.604,397.04l562.628,410.489Zm488.728,-334.025l40.33,-651.03l-774.899,175.721l734.569,475.309Zm818.687,226.172l-166.944,-523.857l-647.626,299.347l814.57,224.51Zm442.266,-302.126l-606.843,-221.455c10.361,32.512 166.81,523.438 166.81,523.438l440.033,-301.983Zm1055.44,75.954l40.329,-651.03l-774.899,175.721l734.57,475.309Zm-737.753,-473.504l-313.604,397.04l562.628,410.489l-249.024,-807.529Zm1556.44,699.676l-166.944,-523.857l-647.626,299.347l814.57,224.51Zm442.266,-302.126l-606.842,-221.455c10.36,32.512 166.809,523.438 166.809,523.438l440.033,-301.983Zm566.531,409.979l-249.024,-807.529l-313.603,397.04l562.627,410.489Zm488.729,-334.025l40.329,-651.03l-774.899,175.721l734.57,475.309Zm818.686,226.172l-166.944,-523.857l-647.626,299.347l814.57,224.51Zm442.266,-302.126l-606.842,-221.455c10.361,32.512 166.81,523.438 166.81,523.438l440.032,-301.983Zm1055.44,75.954l40.329,-651.03l-774.898,175.721l734.569,475.309Zm-737.752,-473.504l-313.604,397.04l562.628,410.489l-249.024,-807.529Zm1556.44,699.676l-166.943,-523.857l-647.626,299.347l814.569,224.51Zm442.266,-302.126l-606.842,-221.455c10.361,32.512 166.81,523.438 166.81,523.438l440.032,-301.983Zm-365.824,-704.472l368.361,702.189l313.683,-397.14c-31.66,-14.16 -643.431,-287.779 -682.044,-305.049Zm477.779,-765.446l-660.878,114.936l1043.04,324.692l-382.16,-439.628Zm382.125,441.891l-1046.02,-325.621l184.423,645.479l861.599,-319.858Zm72.104,-875.953l-563.721,-411.286l-435.417,301.223l999.138,110.063Zm-1001.86,-108.178l-1.761,1.218l549.826,538.342l454.983,-429.067l-1003.05,-110.493Zm69.854,-1008.71l368.361,702.189l313.683,-397.14c-0,0 -642.444,-287.338 -682.044,-305.049Zm477.779,-765.446l-660.878,114.935l1043.04,324.693l-382.16,-439.628Zm382.125,441.891l-1046.02,-325.621l184.423,645.479l861.599,-319.858Zm-929.758,-984.132l-1.761,1.219l549.826,538.342c28.705,-27.07 454.984,-429.067 454.983,-429.067l-1003.05,-110.494Zm-822.164,-224.466c20.586,38.701 215.542,405.219 215.542,405.219l596.333,-182.492l-811.875,-222.727Zm-486.946,331.918l700.033,73.309c-18.441,-34.668 -215.616,-405.358 -215.616,-405.358c-0,0 -454.129,311.288 -484.417,332.049Zm704.025,75.102l486.499,472.105l110.829,-654.902l-597.328,182.797Zm-1273.2,-485.638l-435.383,301.2l489.323,53.902l508.268,54.692l-562.208,-409.794Zm-1260.27,78.618c20.585,38.701 215.542,405.219 215.542,405.219l596.333,-182.492l-811.875,-222.727Zm-486.946,331.918l700.032,73.309c-18.44,-34.668 -215.615,-405.358 -215.615,-405.358c-0,0 -454.13,311.288 -484.417,332.049Zm704.025,75.102l486.499,472.105l110.829,-654.902l-597.328,182.797Zm-1273.11,-485.574l-435.291,301.136l496.949,54.742l500.462,53.852l-562.12,-409.73Zm-1260.18,78.554c20.585,38.701 215.542,405.219 215.542,405.219l596.332,-182.492l-811.874,-222.727Zm-486.946,331.918l700.032,73.309c-18.441,-34.668 -215.616,-405.358 -215.616,-405.358c0,0 -454.129,311.288 -484.416,332.049Zm704.024,75.102l486.499,472.105l110.83,-654.902l-597.329,182.797Zm-1273.2,-485.638l-435.383,301.2l489.323,53.902l508.269,54.692l-562.209,-409.794Zm-1260.27,78.618c20.586,38.701 215.542,405.219 215.542,405.219l596.333,-182.492l-811.875,-222.727Zm-486.945,331.918l700.032,73.309c-18.441,-34.668 -215.616,-405.358 -215.616,-405.358c0,0 -454.129,311.288 -484.416,332.049Zm704.024,75.102l486.499,472.105l110.83,-654.902l-597.329,182.797Zm-778.16,799.655l0.311,0.235l388.192,-347.936l-770.753,-92.03l382.25,439.731Zm-382.492,-441.947l771.418,92.11l-318.066,-522.434c-31.171,29.588 -431.568,409.647 -453.352,430.324Zm204.687,1070.59l775.12,-175.771l-596.468,-449.512l-178.652,625.283Zm180.797,1688.5l827.875,0l-439.808,-347.822l-388.067,347.822Zm388.17,-351.087l382.759,-448.95l-700.765,-73.386l318.006,522.336Zm-568.967,978.981l775.12,-175.77l-596.468,-449.512l-178.652,625.282Zm1385.83,177.968l-607.571,-351.296c-2.148,34.686 -40.312,650.762 -40.312,650.762l647.883,-299.466Zm610.99,221.06l-368.302,-702.074l-238.82,480.518l607.122,221.556Zm-370.229,-703.076l-847.659,128.084l-0.206,0.397l609.001,352.124l238.864,-480.605Zm2075.63,482.016l-607.571,-351.296c-2.148,34.686 -40.312,650.762 -40.312,650.762l647.883,-299.466Zm-610.704,-353.738l-596.468,-449.512l-178.653,625.282l775.121,-175.77Zm1537.83,177.656l-682.043,-305.049l368.361,702.189l313.682,-397.14Zm-316.133,397.142l-368.302,-702.074l-238.82,480.518l607.122,221.556Zm-370.229,-703.076l-847.659,128.084l-0.206,0.397l609.002,352.124l238.863,-480.605Zm2075.45,482.016l-607.57,-351.296c-2.149,34.686 -40.313,650.762 -40.313,650.762l647.883,-299.466Zm-610.704,-353.738l-596.468,-449.512l-178.652,625.282l775.12,-175.77Zm1221.69,574.798l-368.301,-702.074l-238.821,480.518l607.122,221.556Zm-370.229,-703.076l-847.659,128.084l-0.206,0.397l609.002,352.124l238.863,-480.605Zm2075.63,482.016l-607.571,-351.296c-2.149,34.685 -40.313,650.762 -40.313,650.762l647.884,-299.466Zm-610.705,-353.738l-596.468,-449.512l-178.652,625.282l775.12,-175.77Zm1221.69,574.798l-368.301,-702.074l-238.821,480.518l607.122,221.556Zm-370.228,-703.076l-847.659,128.084l-0.206,0.397l609.001,352.124l238.864,-480.605Zm-69.116,-1304.33l-0.504,0.349l-0.393,-1.227l-0.68,-0.666l-0.379,0.26l-0.17,-0.536l-110.827,654.887c37.647,-6.547 662.31,-115.184 662.31,-115.184l-549.357,-537.883Zm-114.888,656.224l-428.765,325.17l612.932,319.416l-184.167,-644.586Zm-52.89,-1186.77l607.122,221.556l-368.301,-702.075l-238.821,480.519Zm236.894,-481.52l-847.659,128.084l-0.206,0.397l609.001,352.124l238.864,-480.605Zm-69.116,-1304.33l-0.504,0.349l-0.393,-1.227l-1.191,-1.166l-110.865,655.111c37.647,-6.547 662.31,-115.184 662.31,-115.184l-549.357,-537.883Zm-114.888,656.224l-428.765,325.17l612.932,319.415l-184.167,-644.585Zm-488.617,-475.062l-382.844,449.051l869.315,23.028l-486.471,-472.079Zm-702.168,-74.019c-0.147,0.138 -0.312,0.295 -0.498,0.469l317.668,521.78l382.759,-448.951l-699.929,-73.298Zm-1123.67,545.924l662.311,-115.184l-549.358,-537.883l-0.503,0.349l-0.394,-1.227l-1.191,-1.166l-110.865,655.111Zm-490.551,-471.905l-382.845,449.051l869.316,23.028l-486.471,-472.079Zm-702.005,-74.002c-0.172,0.162 -0.371,0.349 -0.595,0.561l317.602,521.671l382.758,-448.951l-699.765,-73.281Zm-1123.66,545.907c37.647,-6.547 662.311,-115.184 662.311,-115.184l-549.358,-537.883l-0.504,0.349l-0.393,-1.227l-1.191,-1.166l-110.865,655.111Zm-490.552,-471.905l-382.844,449.051l869.316,23.028l-486.472,-472.079Zm-702.168,-74.019c-0.146,0.138 -0.312,0.295 -0.497,0.469l317.667,521.78l382.759,-448.951l-699.929,-73.298Zm-1123.67,545.924c37.647,-6.547 662.31,-115.184 662.31,-115.184l-549.357,-537.883l-0.504,0.349l-0.393,-1.227l-1.191,-1.166l-110.865,655.111Zm-490.552,-471.905l-382.844,449.051l869.315,23.028l-486.471,-472.079Zm-703.004,-74.107l318.006,522.337l382.759,-448.951l-700.765,-73.386Zm-70.164,873.424l827.875,0l-439.808,-347.822l-388.067,347.822Zm-179.59,629.847l734.569,475.31l40.33,-651.03l-774.899,175.72Zm12.317,44.701l236.749,764.67l484.514,-332.115l-734.417,-475.21l13.154,42.655Zm763.985,-224.6l232.499,-447.776l-828.331,-0l594.443,447.986l1.389,-0.21Zm-595.832,1868.62l594.443,447.986l1.389,-0.21l232.499,-447.776l-828.331,-0Zm830.132,-2.459l428.261,-324.788l-868.018,-22.994l439.757,347.782Zm428.627,-326.951l-486.471,-472.079l-382.844,449.051l869.315,23.028Zm-488.463,-474.957c-18.441,-34.668 -215.616,-405.357 -215.616,-405.357c0,-0 -454.129,311.287 -484.416,332.048l700.032,73.309Zm678.931,1126.93l368.362,702.189l313.682,-397.14l-682.044,-305.049Zm-4.155,-4.4l-184.167,-644.586l-428.765,325.17l612.932,319.416Zm-614.491,-317.779l-232.094,446.995l844.868,-127.663l-612.774,-319.332Zm2081.64,447.396l232.5,-447.776l-828.332,-0l594.444,447.986l1.388,-0.21Zm-601.183,-447.097l-861.183,319.703l681.566,304.835l-0.174,-0.564l1.277,0.826l178.514,-624.8Zm2136.6,624.538l-0.175,-0.564l1.277,0.826l178.514,-624.8l-861.183,319.703l681.567,304.835Zm-686.173,-307.058l-184.167,-644.586l-428.764,325.17l612.931,319.416Zm-614.491,-317.779l-232.094,446.995l844.868,-127.663l-612.774,-319.332Zm2081.46,447.396l232.499,-447.776l-828.331,-0l594.443,447.986l1.389,-0.21Zm853.395,-125.217l368.361,702.189l313.683,-397.14c-0,0 -642.444,-287.337 -682.044,-305.049Zm-4.155,-4.4l-184.168,-644.586l-428.764,325.17l612.932,319.416Zm-614.491,-317.779l-232.094,446.995l844.868,-127.663l-612.774,-319.332Zm2081.64,447.396l232.499,-447.776l-828.331,-0l594.443,447.986l1.389,-0.21Zm-601.184,-447.097l-861.182,319.703l681.566,304.835l-0.174,-0.564l1.276,0.826l178.514,-624.8Zm835.933,-0.299l-232.094,446.995l844.868,-127.663l-612.774,-319.332Zm-58.293,-801.869l-382.844,449.051l869.315,23.028l-486.471,-472.079Zm599.318,-183.82l-0.101,-0.028l-597.217,182.763l486.499,472.106l110.819,-654.841Zm-981.231,635.068l439.757,347.782l428.261,-324.788l-868.018,-22.994Zm379.674,-451.968l-699.929,-73.299l-0.498,0.469l317.668,521.78l382.759,-448.95Zm1045,-487.153l-606.842,-221.455c1.219,3.824 4.459,13.991 9.228,28.956l158.338,493.962l439.276,-301.463Zm-599.68,-191.828l-9.578,-29.881l-647.577,299.325l138.28,38.112l675.987,185.448l-157.112,-493.004Zm-384.79,-834.824l-232.094,446.996l844.868,-127.663l-612.774,-319.333Zm-234.004,452.014c-2.149,34.687 -40.313,650.763 -40.313,650.763l647.884,-299.466l-607.571,-351.297Zm-206.202,-802.634l439.757,347.782l428.261,-324.789l-868.018,-22.993Zm-322.368,-523.275c-32.998,31.119 -335.419,316.314 -428.402,404c-13.942,13.234 -23.143,21.967 -25.969,24.65l771.418,92.11l-317.047,-520.76Zm-1006.6,-110.525l-0.19,0.132l549.827,538.342c3.529,-3.329 13.068,-12.324 27.085,-25.543c95.138,-90.306 398.018,-377.802 425.407,-403.799l-508.74,-56.041l-493.389,-53.091Zm-111.557,656.069l1042.86,324.636l-382.093,-439.551l-660.762,114.915Zm-875.869,-22.269l439.757,347.782l428.26,-324.789l-868.017,-22.993Zm-322.302,-523.166c-38.653,36.451 -432.749,408.097 -454.43,428.542l771.411,92.109l-316.981,-520.651Zm-1006.51,-110.617l-0.166,0.115l549.823,538.338c27.501,-26.104 421.075,-399.686 452.333,-429.356l-500.951,-55.183l-501.039,-53.914Zm-111.65,656.072l1043.04,324.693l-382.16,-439.628l-660.879,114.935Zm-875.753,-22.289l439.758,347.782l428.26,-324.789l-868.018,-22.993Zm-322.367,-523.275c-32.999,31.119 -335.421,316.315 -428.403,404c-13.291,12.617 -22.403,21.266 -25.969,24.65l771.418,92.11l-317.046,-520.76Zm-1006.6,-110.525l-0.19,0.132l549.826,538.342l27.086,-25.543c93.329,-88.588 392.578,-372.638 425.406,-403.799l-508.739,-56.041l-493.389,-53.091Zm-111.558,656.069l1042.86,324.636l-382.092,-439.551l-660.763,114.915Zm-875.869,-22.269l439.757,347.782l428.261,-324.789l-868.018,-22.993Zm4238.36,347.322l0.311,0.235l388.192,-347.936l-770.753,-92.03l382.25,439.731Zm-3424.59,806.609l-607.571,-351.297c-2.148,34.687 -40.312,650.763 -40.312,650.763l647.883,-299.466Zm-645.932,300.957l138.28,38.112l675.987,185.448l-157.111,-493.004l-9.579,-29.881l-647.577,299.325Zm647.829,-302.368l238.864,-480.605l-847.659,128.084l-0.206,0.397l609.001,352.124Zm-375.464,-801.9l-232.094,446.996l844.868,-127.663l-612.774,-319.333Zm614.491,317.779l-184.167,-644.585l-428.765,325.17l612.932,319.415Zm-73.466,1012.93l-0.101,-0.028l-597.217,182.763l486.499,472.106l110.819,-654.841Zm-108.766,655.725c37.647,-6.547 662.31,-115.184 662.31,-115.184l-549.357,-537.883l-0.504,0.349l-0.393,-1.227l-0.68,-0.666l-0.378,0.26l-0.171,-0.536l-110.827,654.887Zm184.692,648.446l861.599,-319.858l-1046.02,-325.621l184.423,645.479Zm1695.86,-321.034l-439.808,-347.822l-388.067,347.822l827.875,0Zm1482.14,1.176l-1046.02,-325.621l184.423,645.479l861.6,-319.858Zm-1050.74,-326.251l-868.018,-22.994l439.758,347.782l428.26,-324.788Zm1884.82,325.075l-439.809,-347.822l-388.066,347.822l827.875,0Zm620.536,321.034l861.6,-319.858l-1046.02,-325.621l184.422,645.479Zm-189.139,-646.109l-868.017,-22.994l439.757,347.782l428.26,-324.788Zm1885,325.075l-439.809,-347.822l-388.066,347.822l827.875,0Zm540.605,-984.241l-671.68,-185.127l-138.598,-38.023l215.512,405.163l594.766,-182.013Zm-1299.59,112.897c-21.91,20.663 -332.718,313.766 -428.402,404.001c-13.942,13.233 -23.143,21.967 -25.969,24.649l771.418,92.11l-317.047,-520.76Zm702.289,69.149c-18.441,-34.668 -215.616,-405.357 -215.616,-405.357c-0,-0 -454.129,311.287 -484.417,332.048l700.033,73.309Zm-175.868,-1060.07l-774.898,175.72l734.569,475.31l40.329,-651.03Zm233.903,-451.955l-828.331,-0l594.443,447.986l1.389,-0.21l232.499,-447.776Zm-831.356,0.439l-178.652,625.283l775.12,-175.771l-596.468,-449.512Zm390.211,-350.433l-388.066,347.822l827.875,0l-439.809,-347.822Zm-773.309,-92.656l382.25,439.731l0.311,0.235l388.192,-347.936l-770.753,-92.03Zm-482.739,761.512l861.6,-319.858l-1046.02,-325.621l184.422,645.479Zm-186.627,-645.289l-428.764,325.17l612.932,319.415l-184.168,-644.585Zm-873.718,-23.567l-388.066,347.822l827.875,0l-439.809,-347.822Zm-1440.29,23.377l184.423,645.479l861.6,-319.858l-1046.02,-325.621Zm-2.204,0.19l-428.764,325.17l612.931,319.415l-184.167,-644.585Zm-873.718,-23.567l-388.067,347.822l827.875,0l-439.808,-347.822Zm-773.309,-92.656l382.25,439.731l0.311,0.235l388.192,-347.936l-770.753,-92.03Zm-482.739,761.512l861.599,-319.858l-1046.02,-325.621l184.423,645.479Zm-239.516,484.332l607.122,221.556l-368.302,-702.075l-238.82,480.519Zm9.421,31.338l158.339,493.962l439.276,-301.463l-606.843,-221.455c1.219,3.824 4.459,13.991 9.228,28.956Zm150.163,495.448l-671.68,-185.127l-138.598,-38.023l215.512,405.163l594.766,-182.013Zm-101.356,658.441l1042.86,324.636l-382.092,-439.551l-660.763,114.915Zm661.194,-117.595l27.086,-25.543c95.138,-90.306 398.018,-377.801 425.406,-403.798l-508.739,-56.042l-493.389,-53.091l-0.19,0.132l549.826,538.342Zm773.586,94.948l-770.753,-92.031l382.25,439.732l0.311,0.234l388.192,-347.935Zm1924.54,347.36l-382.16,-439.628l-660.879,114.936l1043.04,324.692Zm-1539.12,-798.95l-699.929,-73.299c-0.146,0.138 -0.312,0.295 -0.497,0.469l317.667,521.78l382.759,-448.95Zm488.711,472.799l-486.472,-472.079l-382.844,449.051l869.316,23.028Zm1442.08,-21.209l-770.753,-92.031l382.25,439.732l0.311,0.234l388.192,-347.935Zm385.418,-451.59l-699.765,-73.282l-0.595,0.561l317.602,521.671l382.758,-448.95Zm488.711,472.799l-486.471,-472.079l-382.845,449.051l869.316,23.028Zm1442.26,-21.209l-770.753,-92.031l382.25,439.732l0.311,0.234l388.192,-347.935Zm-552.783,-1293.4l236.749,764.669l484.514,-332.115l-734.417,-475.21l13.154,42.656Zm162.801,-671.699l-861.182,319.704l681.566,304.835l-0.174,-0.565l1.276,0.826l178.514,-624.8Zm-1713.79,449.08l-0.206,0.397l609.002,352.124l238.863,-480.605l-847.659,128.084Zm233.332,-449.379l-232.094,446.996l844.868,-127.663l-612.774,-319.333Zm-2.25,-0.379l-828.331,-0l594.443,447.986l1.389,-0.21l232.499,-447.776Zm-1694.87,320.382l681.567,304.835l-0.175,-0.565l1.277,0.826l178.514,-624.8l-861.183,319.704Zm-852.428,129.376l-0.206,0.397l609.002,352.124l238.863,-480.605l-847.659,128.084Zm233.331,-449.379l-232.094,446.996l844.868,-127.663l-612.774,-319.333Zm-2.249,-0.379l-828.332,-0l594.444,447.986l1.388,-0.21l232.5,-447.776Zm-1327.14,1024.75l313.682,-397.14c0,0 -642.443,-287.338 -682.044,-305.049l368.362,702.189Zm883.858,938.889l-317.046,-520.76c-32.999,31.12 -335.42,316.314 -428.402,404c-13.942,13.234 -23.143,21.967 -25.97,24.65l771.418,92.11Zm990.739,-629.895l-0.504,0.349l-0.393,-1.227l-0.68,-0.666l-0.378,0.26l-0.171,-0.536l-110.827,654.887c37.647,-6.547 662.311,-115.184 662.311,-115.184l-549.358,-537.883Zm551.642,537.08c27.501,-26.104 421.075,-399.685 452.333,-429.355l-500.951,-55.184l-501.039,-53.914l-0.166,0.115l549.823,538.338Zm-555.829,-539.738l-0.101,-0.028l-597.217,182.763l486.499,472.106l110.819,-654.841Zm-601.31,180.942c-18.441,-34.668 -215.616,-405.357 -215.616,-405.357c0,-0 -454.129,311.287 -484.416,332.048l700.032,73.309Zm1930.97,451.611l-316.981,-520.651c-26.059,24.575 -425.208,400.985 -454.43,428.542l771.411,92.109Zm986.552,-632.553l-0.102,-0.028l-597.216,182.763l486.499,472.106l110.819,-654.841Zm-108.767,655.725l662.311,-115.184l-549.358,-537.883l-0.503,0.349l-0.394,-1.227l-0.679,-0.666l-0.379,0.26l-0.171,-0.536l-110.827,654.887Zm664.599,-115.983c3.529,-3.328 13.068,-12.324 27.085,-25.543c95.138,-90.306 398.018,-377.801 425.407,-403.798l-508.74,-56.042l-493.389,-53.091l-0.19,0.132l549.827,538.342Zm-661.194,117.595l1042.86,324.636l-382.093,-439.551l-660.762,114.915Zm-495.949,-476.395c-18.44,-34.668 -215.615,-405.357 -215.615,-405.357c-0,-0 -454.13,311.287 -484.417,332.048l700.032,73.309Zm1362.41,-882.496l-313.565,396.991l260.741,190.235l301.804,219.984l-235.511,-763.708l-13.469,-43.502Zm-924.686,173.664l607.122,221.556l-368.301,-702.075l-238.821,480.519Zm-611.438,-350.801c-2.149,34.687 -40.313,650.763 -40.313,650.763l647.883,-299.466l-607.57,-351.297Zm-599.602,-451.954l-178.652,625.283l775.12,-175.771l-596.468,-449.512Zm-863.96,322.12l368.361,702.189l313.682,-397.14l-682.043,-305.049Zm-241.212,480.635l607.122,221.556l-368.302,-702.075l-238.82,480.519Zm-611.439,-350.801c-2.148,34.687 -40.312,650.763 -40.312,650.763l647.883,-299.466l-607.571,-351.297Zm-599.601,-451.954l-178.653,625.283l775.121,-175.771l-596.468,-449.512Zm-181.944,624.778l-0.174,-0.565l1.277,0.826l178.514,-624.8l-861.183,319.704l681.566,304.835Zm-51.548,591.539l301.804,219.984l-235.511,-763.708l-13.468,-43.502l-313.566,396.991l260.741,190.235Zm-697.78,112.625l489.323,53.903l507.722,54.633l-491.484,-358.583l-70.178,-51.153l-435.383,301.2Zm2301.9,0.599l-671.681,-185.127l-138.598,-38.023l215.512,405.163l594.767,-182.013Zm2316.21,0l-671.68,-185.127l-138.598,-38.023l215.512,405.163l594.766,-182.013Zm503.82,53.304l507.721,54.633l-491.483,-358.583l-70.178,-51.153l-435.383,301.2l489.323,53.903Zm-422.193,-1060.72l368.361,702.189l313.683,-397.14c-31.66,-14.16 -643.432,-287.779 -682.044,-305.049Zm-241.018,483.017c1.219,3.824 4.459,13.991 9.227,28.956l158.339,493.962l439.276,-301.463l-606.842,-221.455Zm-1388.68,-177.901l734.57,475.31l40.329,-651.03l-774.899,175.72Zm738.686,476.972l138.28,38.112l675.987,185.448l-157.111,-493.004l-9.578,-29.881l-647.578,299.325Zm-1055.47,-78.126l260.741,190.235l301.803,219.984l-235.51,-763.708l-13.469,-43.502l-313.565,396.991Zm-610.746,-220.945c1.218,3.824 4.458,13.991 9.227,28.956l158.339,493.962l439.276,-301.463l-606.842,-221.455Zm-1388.68,-177.901l734.57,475.31l40.329,-651.03l-774.899,175.72Zm738.686,476.972l138.28,38.112l675.987,185.448l-157.111,-493.004l-9.578,-29.881l-647.578,299.325Zm1820.96,333.292l-300.768,-219.438l-261.017,-190.255l-435.291,301.135l496.949,54.743l500.127,53.815Zm-2547.33,-765.563l236.748,764.67l484.514,-332.115l-734.416,-475.21l13.154,42.655Zm2316.21,0l236.748,764.67l484.514,-332.115l-734.416,-475.21l13.154,42.655Zm-4645.76,2273.74l249.126,807.858l485.291,-332.647l-734.417,-475.211Zm2316.39,-0l249.125,807.858l485.291,-332.647l-734.416,-475.211Zm2316.21,-0l249.125,807.858l485.291,-332.647l-734.416,-475.211Zm2316.39,-0l249.126,807.858l485.291,-332.647l-734.417,-475.211Z" style="fill:url(#_Linear1);"/></g><g id="Points"><path d="M1531.08,-133.009c12.783,0 23.162,10.379 23.162,23.163c0,12.783 -10.379,23.162 -23.162,23.162c-12.784,-0 -23.162,-10.379 -23.162,-23.162c-0,-12.784 10.378,-23.163 23.162,-23.163Zm-1262.34,78.173c12.784,-0 23.162,10.378 23.162,23.162c0,12.783 -10.378,23.162 -23.162,23.162c-12.783,-0 -23.162,-10.379 -23.162,-23.162c0,-12.784 10.379,-23.162 23.162,-23.162Zm3578.77,-78.173c12.783,0 23.162,10.379 23.162,23.163c-0,12.783 -10.379,23.162 -23.162,23.162c-12.784,-0 -23.163,-10.379 -23.163,-23.162c0,-12.784 10.379,-23.163 23.163,-23.163Zm-1262.34,78.173c12.783,-0 23.162,10.378 23.162,23.162c0,12.783 -10.379,23.162 -23.162,23.162c-12.784,-0 -23.162,-10.379 -23.162,-23.162c-0,-12.784 10.378,-23.162 23.162,-23.162Zm3578.7,-78.173c12.783,0 23.162,10.379 23.162,23.163c-0,12.783 -10.379,23.162 -23.162,23.162c-12.784,-0 -23.162,-10.379 -23.162,-23.162c-0,-12.784 10.378,-23.163 23.162,-23.163Zm-1262.34,78.173c12.784,-0 23.162,10.378 23.162,23.162c0,12.783 -10.378,23.162 -23.162,23.162c-12.783,-0 -23.162,-10.379 -23.162,-23.162c-0,-12.784 10.379,-23.162 23.162,-23.162Zm2316.36,-0c12.784,-0 23.162,10.378 23.162,23.162c0,12.783 -10.378,23.162 -23.162,23.162c-12.783,-0 -23.162,-10.379 -23.162,-23.162c0,-12.784 10.379,-23.162 23.162,-23.162Zm-5576.8,767.397c12.784,-0 23.162,10.378 23.162,23.162c0,12.783 -10.378,23.162 -23.162,23.162c-12.783,0 -23.162,-10.379 -23.162,-23.162c-0,-12.784 10.379,-23.162 23.162,-23.162Zm-665.911,115.81c12.784,0 23.162,10.379 23.162,23.163c0,12.783 -10.378,23.162 -23.162,23.162c-12.784,-0 -23.162,-10.379 -23.162,-23.162c-0,-12.784 10.378,-23.163 23.162,-23.163Zm185.297,648.54c12.784,-0 23.162,10.378 23.162,23.162c0,12.783 -10.378,23.162 -23.162,23.162c-12.784,0 -23.162,-10.379 -23.162,-23.162c-0,-12.784 10.378,-23.162 23.162,-23.162Zm370.594,706.445c12.783,-0 23.162,10.378 23.162,23.162c0,12.783 -10.379,23.162 -23.162,23.162c-12.784,-0 -23.162,-10.379 -23.162,-23.162c-0,-12.784 10.378,-23.162 23.162,-23.162Zm-610.901,-222.936c12.784,0 23.162,10.379 23.162,23.162c0,12.784 -10.378,23.162 -23.162,23.162c-12.784,0 -23.162,-10.378 -23.162,-23.162c-0,-12.783 10.378,-23.162 23.162,-23.162Zm-610.901,-353.222c12.784,-0 23.162,10.378 23.162,23.162c0,12.783 -10.378,23.162 -23.162,23.162c-12.784,0 -23.162,-10.379 -23.162,-23.162c-0,-12.784 10.378,-23.162 23.162,-23.162Zm-40.534,654.33c12.784,-0 23.162,10.378 23.162,23.162c0,12.783 -10.378,23.162 -23.162,23.162c-12.783,-0 -23.162,-10.379 -23.162,-23.162c0,-12.784 10.379,-23.162 23.162,-23.162Zm-738.292,-477.719c12.783,-0 23.162,10.379 23.162,23.162c-0,12.784 -10.379,23.162 -23.162,23.162c-12.784,0 -23.163,-10.378 -23.163,-23.162c0,-12.783 10.379,-23.162 23.163,-23.162Zm179.506,-628.273c12.784,0 23.162,10.379 23.162,23.163c0,12.783 -10.378,23.162 -23.162,23.162c-12.783,-0 -23.162,-10.379 -23.162,-23.162c-0,-12.784 10.379,-23.163 23.162,-23.163Zm72.382,-874.37c12.783,0 23.162,10.379 23.162,23.162c-0,12.784 -10.379,23.162 -23.162,23.162c-12.784,0 -23.162,-10.378 -23.162,-23.162c-0,-12.783 10.378,-23.162 23.162,-23.162Zm703.549,72.382c12.784,-0 23.162,10.378 23.162,23.162c0,12.784 -10.378,23.162 -23.162,23.162c-12.783,0 -23.162,-10.378 -23.162,-23.162c0,-12.784 10.379,-23.162 23.162,-23.162Zm602.215,-182.402c12.784,0 23.162,10.379 23.162,23.162c0,12.784 -10.378,23.162 -23.162,23.162c-12.783,0 -23.162,-10.378 -23.162,-23.162c0,-12.783 10.379,-23.162 23.162,-23.162Zm-987.285,634.063c12.783,0 23.162,10.379 23.162,23.162c0,12.784 -10.379,23.163 -23.162,23.163c-12.784,-0 -23.162,-10.379 -23.162,-23.163c-0,-12.783 10.378,-23.162 23.162,-23.162Zm442.975,350.327c12.784,0 23.163,10.379 23.163,23.163c-0,12.783 -10.379,23.162 -23.163,23.162c-12.783,-0 -23.162,-10.379 -23.162,-23.162c0,-12.784 10.379,-23.163 23.162,-23.163Zm3413.74,-442.975c12.783,-0 23.162,10.378 23.162,23.162c-0,12.783 -10.379,23.162 -23.162,23.162c-12.784,0 -23.162,-10.379 -23.162,-23.162c-0,-12.784 10.378,-23.162 23.162,-23.162Zm-665.911,115.81c12.783,0 23.162,10.379 23.162,23.163c-0,12.783 -10.379,23.162 -23.162,23.162c-12.784,-0 -23.162,-10.379 -23.162,-23.162c-0,-12.784 10.378,-23.163 23.162,-23.163Zm185.297,648.54c12.783,-0 23.162,10.378 23.162,23.162c-0,12.783 -10.379,23.162 -23.162,23.162c-12.784,0 -23.162,-10.379 -23.162,-23.162c-0,-12.784 10.378,-23.162 23.162,-23.162Zm370.594,706.445c12.783,-0 23.162,10.378 23.162,23.162c-0,12.783 -10.379,23.162 -23.162,23.162c-12.784,-0 -23.163,-10.379 -23.163,-23.162c0,-12.784 10.379,-23.162 23.163,-23.162Zm-610.901,-222.936c12.783,0 23.162,10.379 23.162,23.162c-0,12.784 -10.379,23.162 -23.162,23.162c-12.784,0 -23.162,-10.378 -23.162,-23.162c-0,-12.783 10.378,-23.162 23.162,-23.162Zm-610.901,-353.222c12.783,-0 23.162,10.378 23.162,23.162c-0,12.783 -10.379,23.162 -23.162,23.162c-12.784,0 -23.162,-10.379 -23.162,-23.162c-0,-12.784 10.378,-23.162 23.162,-23.162Zm-40.534,654.33c12.783,-0 23.162,10.378 23.162,23.162c0,12.783 -10.379,23.162 -23.162,23.162c-12.784,-0 -23.162,-10.379 -23.162,-23.162c-0,-12.784 10.378,-23.162 23.162,-23.162Zm-738.293,-477.719c12.784,-0 23.162,10.379 23.162,23.162c0,12.784 -10.378,23.162 -23.162,23.162c-12.783,0 -23.162,-10.378 -23.162,-23.162c0,-12.783 10.379,-23.162 23.162,-23.162Zm179.507,-628.273c12.783,0 23.162,10.379 23.162,23.163c-0,12.783 -10.379,23.162 -23.162,23.162c-12.784,-0 -23.162,-10.379 -23.162,-23.162c-0,-12.784 10.378,-23.163 23.162,-23.163Zm72.381,-874.37c12.784,0 23.162,10.379 23.162,23.162c0,12.784 -10.378,23.162 -23.162,23.162c-12.783,0 -23.162,-10.378 -23.162,-23.162c0,-12.783 10.379,-23.162 23.162,-23.162Zm703.55,72.382c12.783,-0 23.162,10.378 23.162,23.162c-0,12.784 -10.379,23.162 -23.162,23.162c-12.784,0 -23.162,-10.378 -23.162,-23.162c-0,-12.784 10.378,-23.162 23.162,-23.162Zm602.215,-182.402c12.784,0 23.162,10.379 23.162,23.162c0,12.784 -10.378,23.162 -23.162,23.162c-12.784,0 -23.162,-10.378 -23.162,-23.162c-0,-12.783 10.378,-23.162 23.162,-23.162Zm-987.285,634.063c12.783,0 23.162,10.379 23.162,23.162c-0,12.784 -10.379,23.163 -23.162,23.163c-12.784,-0 -23.163,-10.379 -23.163,-23.163c0,-12.783 10.379,-23.162 23.163,-23.162Zm442.975,350.327c12.784,0 23.162,10.379 23.162,23.163c0,12.783 -10.378,23.162 -23.162,23.162c-12.783,-0 -23.162,-10.379 -23.162,-23.162c0,-12.784 10.379,-23.163 23.162,-23.163Zm3413.67,-442.975c12.783,-0 23.162,10.378 23.162,23.162c0,12.783 -10.379,23.162 -23.162,23.162c-12.784,0 -23.162,-10.379 -23.162,-23.162c-0,-12.784 10.378,-23.162 23.162,-23.162Zm-665.911,115.81c12.783,0 23.162,10.379 23.162,23.163c-0,12.783 -10.379,23.162 -23.162,23.162c-12.784,-0 -23.162,-10.379 -23.162,-23.162c-0,-12.784 10.378,-23.163 23.162,-23.163Zm185.297,648.54c12.783,-0 23.162,10.378 23.162,23.162c-0,12.783 -10.379,23.162 -23.162,23.162c-12.784,0 -23.162,-10.379 -23.162,-23.162c-0,-12.784 10.378,-23.162 23.162,-23.162Zm370.594,706.445c12.783,-0 23.162,10.378 23.162,23.162c-0,12.783 -10.379,23.162 -23.162,23.162c-12.784,-0 -23.162,-10.379 -23.162,-23.162c-0,-12.784 10.378,-23.162 23.162,-23.162Zm-610.901,-222.936c12.783,0 23.162,10.379 23.162,23.162c-0,12.784 -10.379,23.162 -23.162,23.162c-12.784,0 -23.162,-10.378 -23.162,-23.162c-0,-12.783 10.378,-23.162 23.162,-23.162Zm-610.901,-353.222c12.783,-0 23.162,10.378 23.162,23.162c-0,12.783 -10.379,23.162 -23.162,23.162c-12.784,0 -23.162,-10.379 -23.162,-23.162c-0,-12.784 10.378,-23.162 23.162,-23.162Zm-40.534,654.33c12.784,-0 23.162,10.378 23.162,23.162c0,12.783 -10.378,23.162 -23.162,23.162c-12.783,-0 -23.162,-10.379 -23.162,-23.162c-0,-12.784 10.379,-23.162 23.162,-23.162Zm-738.293,-477.719c12.784,-0 23.163,10.379 23.163,23.162c-0,12.784 -10.379,23.162 -23.163,23.162c-12.783,0 -23.162,-10.378 -23.162,-23.162c0,-12.783 10.379,-23.162 23.162,-23.162Zm179.507,-628.273c12.783,0 23.162,10.379 23.162,23.163c0,12.783 -10.379,23.162 -23.162,23.162c-12.784,-0 -23.162,-10.379 -23.162,-23.162c-0,-12.784 10.378,-23.163 23.162,-23.163Zm72.382,-874.37c12.783,0 23.162,10.379 23.162,23.162c-0,12.784 -10.379,23.162 -23.162,23.162c-12.784,0 -23.163,-10.378 -23.163,-23.162c0,-12.783 10.379,-23.162 23.163,-23.162Zm703.549,72.382c12.784,-0 23.162,10.378 23.162,23.162c0,12.784 -10.378,23.162 -23.162,23.162c-12.784,0 -23.162,-10.378 -23.162,-23.162c-0,-12.784 10.378,-23.162 23.162,-23.162Zm602.215,-182.402c12.784,0 23.162,10.379 23.162,23.162c0,12.784 -10.378,23.162 -23.162,23.162c-12.783,0 -23.162,-10.378 -23.162,-23.162c0,-12.783 10.379,-23.162 23.162,-23.162Zm-987.285,634.063c12.783,0 23.162,10.379 23.162,23.162c-0,12.784 -10.379,23.163 -23.162,23.163c-12.784,-0 -23.162,-10.379 -23.162,-23.163c-0,-12.783 10.378,-23.162 23.162,-23.162Zm442.975,350.327c12.784,0 23.162,10.379 23.162,23.163c0,12.783 -10.378,23.162 -23.162,23.162c-12.783,-0 -23.162,-10.379 -23.162,-23.162c0,-12.784 10.379,-23.163 23.162,-23.163Zm2747.76,-327.165c12.784,0 23.162,10.379 23.162,23.163c0,12.783 -10.378,23.162 -23.162,23.162c-12.783,-0 -23.162,-10.379 -23.162,-23.162c-0,-12.784 10.379,-23.163 23.162,-23.163Zm185.297,648.54c12.784,-0 23.162,10.378 23.162,23.162c0,12.783 -10.378,23.162 -23.162,23.162c-12.783,0 -23.162,-10.379 -23.162,-23.162c-0,-12.784 10.379,-23.162 23.162,-23.162Zm-240.307,483.509c12.784,0 23.162,10.379 23.162,23.162c0,12.784 -10.378,23.162 -23.162,23.162c-12.784,0 -23.162,-10.378 -23.162,-23.162c-0,-12.783 10.378,-23.162 23.162,-23.162Zm-610.901,-353.222c12.784,-0 23.162,10.378 23.162,23.162c0,12.783 -10.378,23.162 -23.162,23.162c-12.784,0 -23.162,-10.379 -23.162,-23.162c-0,-12.784 10.378,-23.162 23.162,-23.162Zm-40.534,654.33c12.784,-0 23.162,10.378 23.162,23.162c0,12.783 -10.378,23.162 -23.162,23.162c-12.783,-0 -23.162,-10.379 -23.162,-23.162c0,-12.784 10.379,-23.162 23.162,-23.162Zm-738.292,-477.719c12.783,-0 23.162,10.379 23.162,23.162c-0,12.784 -10.379,23.162 -23.162,23.162c-12.784,0 -23.162,-10.378 -23.162,-23.162c-0,-12.783 10.378,-23.162 23.162,-23.162Zm179.506,-628.273c12.784,0 23.162,10.379 23.162,23.163c0,12.783 -10.378,23.162 -23.162,23.162c-12.783,-0 -23.162,-10.379 -23.162,-23.162c-0,-12.784 10.379,-23.163 23.162,-23.163Zm72.382,-874.37c12.783,0 23.162,10.379 23.162,23.162c-0,12.784 -10.379,23.162 -23.162,23.162c-12.784,0 -23.162,-10.378 -23.162,-23.162c-0,-12.783 10.378,-23.162 23.162,-23.162Zm703.549,72.382c12.784,-0 23.162,10.378 23.162,23.162c0,12.784 -10.378,23.162 -23.162,23.162c-12.783,0 -23.162,-10.378 -23.162,-23.162c0,-12.784 10.379,-23.162 23.162,-23.162Zm602.215,-182.402c12.784,0 23.163,10.379 23.163,23.162c-0,12.784 -10.379,23.162 -23.163,23.162c-12.783,0 -23.162,-10.378 -23.162,-23.162c0,-12.783 10.379,-23.162 23.162,-23.162Zm-987.285,634.063c12.783,0 23.162,10.379 23.162,23.162c0,12.784 -10.379,23.163 -23.162,23.163c-12.784,-0 -23.162,-10.379 -23.162,-23.163c-0,-12.783 10.378,-23.162 23.162,-23.162Zm442.976,350.327c12.783,0 23.162,10.379 23.162,23.163c-0,12.783 -10.379,23.162 -23.162,23.162c-12.784,-0 -23.163,-10.379 -23.163,-23.162c0,-12.784 10.379,-23.163 23.163,-23.163Zm-5851.85,1873.39c12.784,-0 23.162,10.379 23.162,23.162c0,12.784 -10.378,23.162 -23.162,23.162c-12.783,0 -23.162,-10.378 -23.162,-23.162c-0,-12.783 10.379,-23.162 23.162,-23.162Zm-665.911,115.811c12.784,-0 23.162,10.378 23.162,23.162c0,12.783 -10.378,23.162 -23.162,23.162c-12.784,-0 -23.162,-10.379 -23.162,-23.162c-0,-12.784 10.378,-23.162 23.162,-23.162Zm185.297,648.539c12.784,0 23.162,10.379 23.162,23.162c0,12.784 -10.378,23.162 -23.162,23.162c-12.784,0 -23.162,-10.378 -23.162,-23.162c-0,-12.783 10.378,-23.162 23.162,-23.162Zm370.594,706.445c12.783,-0 23.162,10.378 23.162,23.162c0,12.783 -10.379,23.162 -23.162,23.162c-12.784,0 -23.162,-10.379 -23.162,-23.162c-0,-12.784 10.378,-23.162 23.162,-23.162Zm-610.901,-222.936c12.784,0 23.162,10.379 23.162,23.162c0,12.784 -10.378,23.163 -23.162,23.163c-12.784,-0 -23.162,-10.379 -23.162,-23.163c-0,-12.783 10.378,-23.162 23.162,-23.162Zm-610.901,-353.222c12.784,-0 23.162,10.379 23.162,23.162c0,12.784 -10.378,23.162 -23.162,23.162c-12.784,0 -23.162,-10.378 -23.162,-23.162c-0,-12.783 10.378,-23.162 23.162,-23.162Zm-40.534,654.33c12.784,-0 23.162,10.379 23.162,23.162c0,12.784 -10.378,23.162 -23.162,23.162c-12.783,0 -23.162,-10.378 -23.162,-23.162c0,-12.783 10.379,-23.162 23.162,-23.162Zm-738.292,-477.719c12.783,0 23.162,10.379 23.162,23.162c-0,12.784 -10.379,23.162 -23.162,23.162c-12.784,0 -23.163,-10.378 -23.163,-23.162c0,-12.783 10.379,-23.162 23.163,-23.162Zm179.506,-628.272c12.784,-0 23.162,10.378 23.162,23.162c0,12.783 -10.378,23.162 -23.162,23.162c-12.783,-0 -23.162,-10.379 -23.162,-23.162c-0,-12.784 10.379,-23.162 23.162,-23.162Zm72.382,-874.371c12.783,0 23.162,10.379 23.162,23.163c-0,12.783 -10.379,23.162 -23.162,23.162c-12.784,-0 -23.162,-10.379 -23.162,-23.162c-0,-12.784 10.378,-23.163 23.162,-23.163Zm703.549,72.382c12.784,0 23.162,10.379 23.162,23.162c0,12.784 -10.378,23.162 -23.162,23.162c-12.783,0 -23.162,-10.378 -23.162,-23.162c0,-12.783 10.379,-23.162 23.162,-23.162Zm602.215,-182.402c12.784,0 23.162,10.379 23.162,23.162c0,12.784 -10.378,23.163 -23.162,23.163c-12.783,-0 -23.162,-10.379 -23.162,-23.163c0,-12.783 10.379,-23.162 23.162,-23.162Zm-987.285,634.063c12.783,0 23.162,10.379 23.162,23.163c0,12.783 -10.379,23.162 -23.162,23.162c-12.784,-0 -23.162,-10.379 -23.162,-23.162c-0,-12.784 10.378,-23.163 23.162,-23.163Zm442.975,350.328c12.784,-0 23.163,10.378 23.163,23.162c-0,12.783 -10.379,23.162 -23.163,23.162c-12.783,-0 -23.162,-10.379 -23.162,-23.162c0,-12.784 10.379,-23.162 23.162,-23.162Zm3413.74,-442.976c12.783,-0 23.162,10.379 23.162,23.162c-0,12.784 -10.379,23.162 -23.162,23.162c-12.784,0 -23.162,-10.378 -23.162,-23.162c-0,-12.783 10.378,-23.162 23.162,-23.162Zm-665.911,115.811c12.783,-0 23.162,10.378 23.162,23.162c-0,12.783 -10.379,23.162 -23.162,23.162c-12.784,-0 -23.162,-10.379 -23.162,-23.162c-0,-12.784 10.378,-23.162 23.162,-23.162Zm185.297,648.539c12.783,0 23.162,10.379 23.162,23.162c-0,12.784 -10.379,23.162 -23.162,23.162c-12.784,0 -23.162,-10.378 -23.162,-23.162c-0,-12.783 10.378,-23.162 23.162,-23.162Zm370.594,706.445c12.783,-0 23.162,10.378 23.162,23.162c-0,12.783 -10.379,23.162 -23.162,23.162c-12.784,0 -23.163,-10.379 -23.163,-23.162c0,-12.784 10.379,-23.162 23.163,-23.162Zm-610.901,-222.936c12.783,0 23.162,10.379 23.162,23.162c-0,12.784 -10.379,23.163 -23.162,23.163c-12.784,-0 -23.162,-10.379 -23.162,-23.163c-0,-12.783 10.378,-23.162 23.162,-23.162Zm-610.901,-353.222c12.783,-0 23.162,10.379 23.162,23.162c-0,12.784 -10.379,23.162 -23.162,23.162c-12.784,0 -23.162,-10.378 -23.162,-23.162c-0,-12.783 10.378,-23.162 23.162,-23.162Zm-40.534,654.33c12.783,-0 23.162,10.379 23.162,23.162c0,12.784 -10.379,23.162 -23.162,23.162c-12.784,0 -23.162,-10.378 -23.162,-23.162c-0,-12.783 10.378,-23.162 23.162,-23.162Zm-738.293,-477.719c12.784,0 23.162,10.379 23.162,23.162c0,12.784 -10.378,23.162 -23.162,23.162c-12.783,0 -23.162,-10.378 -23.162,-23.162c0,-12.783 10.379,-23.162 23.162,-23.162Zm179.507,-628.272c12.783,-0 23.162,10.378 23.162,23.162c-0,12.783 -10.379,23.162 -23.162,23.162c-12.784,-0 -23.162,-10.379 -23.162,-23.162c-0,-12.784 10.378,-23.162 23.162,-23.162Zm72.381,-874.371c12.784,0 23.162,10.379 23.162,23.163c0,12.783 -10.378,23.162 -23.162,23.162c-12.783,-0 -23.162,-10.379 -23.162,-23.162c0,-12.784 10.379,-23.163 23.162,-23.163Zm703.55,72.382c12.783,0 23.162,10.379 23.162,23.162c-0,12.784 -10.379,23.162 -23.162,23.162c-12.784,0 -23.162,-10.378 -23.162,-23.162c-0,-12.783 10.378,-23.162 23.162,-23.162Zm602.215,-182.402c12.784,0 23.162,10.379 23.162,23.162c0,12.784 -10.378,23.163 -23.162,23.163c-12.784,-0 -23.162,-10.379 -23.162,-23.163c-0,-12.783 10.378,-23.162 23.162,-23.162Zm-987.285,634.063c12.783,0 23.162,10.379 23.162,23.163c-0,12.783 -10.379,23.162 -23.162,23.162c-12.784,-0 -23.163,-10.379 -23.163,-23.162c0,-12.784 10.379,-23.163 23.163,-23.163Zm442.975,350.328c12.784,-0 23.162,10.378 23.162,23.162c0,12.783 -10.378,23.162 -23.162,23.162c-12.783,-0 -23.162,-10.379 -23.162,-23.162c0,-12.784 10.379,-23.162 23.162,-23.162Zm3413.67,-442.976c12.783,-0 23.162,10.379 23.162,23.162c0,12.784 -10.379,23.162 -23.162,23.162c-12.784,0 -23.162,-10.378 -23.162,-23.162c-0,-12.783 10.378,-23.162 23.162,-23.162Zm-665.911,115.811c12.783,-0 23.162,10.378 23.162,23.162c-0,12.783 -10.379,23.162 -23.162,23.162c-12.784,-0 -23.162,-10.379 -23.162,-23.162c-0,-12.784 10.378,-23.162 23.162,-23.162Zm185.297,648.539c12.783,0 23.162,10.379 23.162,23.162c-0,12.784 -10.379,23.162 -23.162,23.162c-12.784,0 -23.162,-10.378 -23.162,-23.162c-0,-12.783 10.378,-23.162 23.162,-23.162Zm370.594,706.445c12.783,-0 23.162,10.378 23.162,23.162c-0,12.783 -10.379,23.162 -23.162,23.162c-12.784,0 -23.162,-10.379 -23.162,-23.162c-0,-12.784 10.378,-23.162 23.162,-23.162Zm-610.901,-222.936c12.783,0 23.162,10.379 23.162,23.162c-0,12.784 -10.379,23.163 -23.162,23.163c-12.784,-0 -23.162,-10.379 -23.162,-23.163c-0,-12.783 10.378,-23.162 23.162,-23.162Zm-610.901,-353.222c12.783,-0 23.162,10.379 23.162,23.162c-0,12.784 -10.379,23.162 -23.162,23.162c-12.784,0 -23.162,-10.378 -23.162,-23.162c-0,-12.783 10.378,-23.162 23.162,-23.162Zm-40.534,654.33c12.784,-0 23.162,10.379 23.162,23.162c0,12.784 -10.378,23.162 -23.162,23.162c-12.783,0 -23.162,-10.378 -23.162,-23.162c-0,-12.783 10.379,-23.162 23.162,-23.162Zm-738.293,-477.719c12.784,0 23.163,10.379 23.163,23.162c-0,12.784 -10.379,23.162 -23.163,23.162c-12.783,0 -23.162,-10.378 -23.162,-23.162c0,-12.783 10.379,-23.162 23.162,-23.162Zm179.507,-628.272c12.783,-0 23.162,10.378 23.162,23.162c0,12.783 -10.379,23.162 -23.162,23.162c-12.784,-0 -23.162,-10.379 -23.162,-23.162c-0,-12.784 10.378,-23.162 23.162,-23.162Zm72.382,-874.371c12.783,0 23.162,10.379 23.162,23.163c-0,12.783 -10.379,23.162 -23.162,23.162c-12.784,-0 -23.163,-10.379 -23.163,-23.162c0,-12.784 10.379,-23.163 23.163,-23.163Zm703.549,72.382c12.784,0 23.162,10.379 23.162,23.162c0,12.784 -10.378,23.162 -23.162,23.162c-12.784,0 -23.162,-10.378 -23.162,-23.162c-0,-12.783 10.378,-23.162 23.162,-23.162Zm602.215,-182.402c12.784,0 23.162,10.379 23.162,23.162c0,12.784 -10.378,23.163 -23.162,23.163c-12.783,-0 -23.162,-10.379 -23.162,-23.163c0,-12.783 10.379,-23.162 23.162,-23.162Zm-987.285,634.063c12.783,0 23.162,10.379 23.162,23.163c-0,12.783 -10.379,23.162 -23.162,23.162c-12.784,-0 -23.162,-10.379 -23.162,-23.162c-0,-12.784 10.378,-23.163 23.162,-23.163Zm442.975,350.328c12.784,-0 23.162,10.378 23.162,23.162c0,12.783 -10.378,23.162 -23.162,23.162c-12.783,-0 -23.162,-10.379 -23.162,-23.162c0,-12.784 10.379,-23.162 23.162,-23.162Zm2747.76,-327.165c12.784,-0 23.162,10.378 23.162,23.162c0,12.783 -10.378,23.162 -23.162,23.162c-12.783,-0 -23.162,-10.379 -23.162,-23.162c-0,-12.784 10.379,-23.162 23.162,-23.162Zm185.297,648.539c12.784,0 23.162,10.379 23.162,23.162c0,12.784 -10.378,23.162 -23.162,23.162c-12.783,0 -23.162,-10.378 -23.162,-23.162c-0,-12.783 10.379,-23.162 23.162,-23.162Zm-240.307,483.509c12.784,0 23.162,10.379 23.162,23.162c0,12.784 -10.378,23.163 -23.162,23.163c-12.784,-0 -23.162,-10.379 -23.162,-23.163c-0,-12.783 10.378,-23.162 23.162,-23.162Zm-610.901,-353.222c12.784,-0 23.162,10.379 23.162,23.162c0,12.784 -10.378,23.162 -23.162,23.162c-12.784,0 -23.162,-10.378 -23.162,-23.162c-0,-12.783 10.378,-23.162 23.162,-23.162Zm-40.534,654.33c12.784,-0 23.162,10.379 23.162,23.162c0,12.784 -10.378,23.162 -23.162,23.162c-12.783,0 -23.162,-10.378 -23.162,-23.162c0,-12.783 10.379,-23.162 23.162,-23.162Zm-738.292,-477.719c12.783,0 23.162,10.379 23.162,23.162c-0,12.784 -10.379,23.162 -23.162,23.162c-12.784,0 -23.162,-10.378 -23.162,-23.162c-0,-12.783 10.378,-23.162 23.162,-23.162Zm179.506,-628.272c12.784,-0 23.162,10.378 23.162,23.162c0,12.783 -10.378,23.162 -23.162,23.162c-12.783,-0 -23.162,-10.379 -23.162,-23.162c-0,-12.784 10.379,-23.162 23.162,-23.162Zm72.382,-874.371c12.783,0 23.162,10.379 23.162,23.163c-0,12.783 -10.379,23.162 -23.162,23.162c-12.784,-0 -23.162,-10.379 -23.162,-23.162c-0,-12.784 10.378,-23.163 23.162,-23.163Zm703.549,72.382c12.784,0 23.162,10.379 23.162,23.162c0,12.784 -10.378,23.162 -23.162,23.162c-12.783,0 -23.162,-10.378 -23.162,-23.162c0,-12.783 10.379,-23.162 23.162,-23.162Zm602.215,-182.402c12.784,0 23.163,10.379 23.163,23.162c-0,12.784 -10.379,23.163 -23.163,23.163c-12.783,-0 -23.162,-10.379 -23.162,-23.163c0,-12.783 10.379,-23.162 23.162,-23.162Zm-987.285,634.063c12.783,0 23.162,10.379 23.162,23.163c0,12.783 -10.379,23.162 -23.162,23.162c-12.784,-0 -23.162,-10.379 -23.162,-23.162c-0,-12.784 10.378,-23.163 23.162,-23.163Zm442.976,350.328c12.783,-0 23.162,10.378 23.162,23.162c-0,12.783 -10.379,23.162 -23.162,23.162c-12.784,-0 -23.163,-10.379 -23.163,-23.162c0,-12.784 10.379,-23.162 23.163,-23.162Z" style="fill:url(#_Linear2);"/></g></g><g id="Text"><rect x="1083.33" y="1178.57" width="5833.33" height="2142.86" style="fill:none;"/><g><path d="M1558.21,2925l147.857,0c1.572,0 2.929,0.571 4.072,1.714c1.143,1.143 1.714,2.5 1.714,4.072l0,34.5c0,1.571 -0.571,2.928 -1.714,4.071c-1.143,1.143 -2.5,1.714 -4.072,1.714l-46.071,0l-0,98.143c-0,1.572 -0.571,2.929 -1.714,4.072c-1.143,1.143 -2.5,1.714 -4.072,1.714l-44.143,0c-1.571,0 -2.928,-0.571 -4.071,-1.714c-1.143,-1.143 -1.714,-2.5 -1.714,-4.072l-0,-98.143l-46.072,0c-1.571,0 -2.928,-0.571 -4.071,-1.714c-1.143,-1.143 -1.714,-2.5 -1.714,-4.071l-0,-34.5c-0,-1.572 0.571,-2.929 1.714,-4.072c1.143,-1.143 2.5,-1.714 4.071,-1.714Z" style="fill:#3578ff;fill-rule:nonzero;"/><path d="M1841.5,2925l44.143,0c1.571,0 2.928,0.571 4.071,1.714c1.143,1.143 1.715,2.5 1.715,4.072l-0,138.428c-0,1.572 -0.572,2.929 -1.715,4.072c-1.143,1.143 -2.5,1.714 -4.071,1.714l-44.143,0c-1.571,0 -2.929,-0.571 -4.071,-1.714c-1.143,-1.143 -1.715,-2.5 -1.715,-4.072l0,-45.643l-42.857,0l0,45.643c0,1.572 -0.571,2.929 -1.714,4.072c-1.143,1.143 -2.5,1.714 -4.072,1.714l-44.142,0c-1.572,0 -2.929,-0.536 -4.072,-1.607c-1.143,-1.072 -1.714,-2.464 -1.714,-4.179l-0,-138.428c-0,-1.572 0.571,-2.929 1.714,-4.072c1.143,-1.143 2.5,-1.714 4.072,-1.714l44.142,0c1.572,0 2.929,0.571 4.072,1.714c1.143,1.143 1.714,2.5 1.714,4.072l0,43.928l42.857,0l0,-43.928c0,-1.572 0.572,-2.929 1.715,-4.072c1.142,-1.143 2.5,-1.714 4.071,-1.714Z" style="fill:#3578ff;fill-rule:nonzero;"/><path d="M1980.36,3033.21l85.5,0c1.572,0 2.929,0.572 4.072,1.715c1.142,1.142 1.714,2.5 1.714,4.071l-0,30.214c-0,1.572 -0.572,2.929 -1.714,4.072c-1.143,1.143 -2.5,1.714 -4.072,1.714l-135.428,0c-1.572,0 -2.929,-0.571 -4.072,-1.714c-1.143,-1.143 -1.714,-2.5 -1.714,-4.072l-0,-138.428c-0,-1.572 0.571,-2.929 1.714,-4.072c1.143,-1.143 2.5,-1.714 4.072,-1.714l133.285,0c1.572,0 2.929,0.571 4.072,1.714c1.143,1.143 1.714,2.5 1.714,4.072l0,30.214c0,1.571 -0.571,2.929 -1.714,4.071c-1.143,1.143 -2.5,1.715 -4.072,1.715l-83.357,-0l0,13.5l71.572,-0c1.571,-0 2.928,0.571 4.071,1.714c1.143,1.143 1.714,2.5 1.714,4.071l0,27.858c0,1.571 -0.571,2.928 -1.714,4.071c-1.143,1.143 -2.5,1.714 -4.071,1.714l-71.572,0l0,13.5Z" style="fill:#3578ff;fill-rule:nonzero;"/><path d="M2417.71,3061.5c-14,10.429 -33,15.643 -57,15.643c-24,-0 -43.035,-5.214 -57.107,-15.643c-14.071,-10.429 -21.107,-26.714 -21.107,-48.857l-0,-81.857c-0,-1.572 0.571,-2.929 1.714,-4.072c1.143,-1.143 2.5,-1.714 4.072,-1.714l44.785,0c1.572,0 2.929,0.571 4.072,1.714c1.143,1.143 1.714,2.5 1.714,4.072l0,85.285c0,5.858 1.964,10.358 5.893,13.5c3.929,3.143 9.25,4.715 15.964,4.715c6.715,-0 12.036,-1.572 15.965,-4.715c3.928,-3.142 5.892,-7.642 5.892,-13.5l0,-85.285c0,-1.572 0.572,-2.929 1.715,-4.072c1.143,-1.143 2.5,-1.714 4.071,-1.714l44.786,0c1.571,0 2.928,0.571 4.071,1.714c1.143,1.143 1.715,2.5 1.715,4.072l-0,81.857c-0,22.143 -7.072,38.428 -21.215,48.857Z" style="fill:#3578ff;fill-rule:nonzero;"/><path d="M2539.64,3031.07l73.071,0c1.572,0 2.929,0.572 4.072,1.715c1.143,1.143 1.714,2.5 1.714,4.071l-0,32.357c-0,1.572 -0.571,2.929 -1.714,4.072c-1.143,1.143 -2.5,1.714 -4.072,1.714l-125.143,0c-1.571,0 -2.928,-0.571 -4.071,-1.714c-1.143,-1.143 -1.714,-2.5 -1.714,-4.072l-0,-138.428c-0,-1.572 0.571,-2.929 1.714,-4.072c1.143,-1.143 2.5,-1.714 4.071,-1.714l46.286,0c1.572,0 2.929,0.571 4.072,1.714c1.142,1.143 1.714,2.5 1.714,4.072l-0,100.285Z" style="fill:#3578ff;fill-rule:nonzero;"/><path d="M2651.07,2925l147.858,0c1.571,0 2.928,0.571 4.071,1.714c1.143,1.143 1.714,2.5 1.714,4.072l0,34.5c0,1.571 -0.571,2.928 -1.714,4.071c-1.143,1.143 -2.5,1.714 -4.071,1.714l-46.072,0l0,98.143c0,1.572 -0.571,2.929 -1.714,4.072c-1.143,1.143 -2.5,1.714 -4.072,1.714l-44.142,0c-1.572,0 -2.929,-0.571 -4.072,-1.714c-1.143,-1.143 -1.714,-2.5 -1.714,-4.072l-0,-98.143l-46.072,0c-1.571,0 -2.928,-0.571 -4.071,-1.714c-1.143,-1.143 -1.714,-2.5 -1.714,-4.071l-0,-34.5c-0,-1.572 0.571,-2.929 1.714,-4.072c1.143,-1.143 2.5,-1.714 4.071,-1.714Z" style="fill:#3578ff;fill-rule:nonzero;"/><path d="M2975.07,2968.93l-38.785,-0l-0,62.142l38.785,0c1.572,0 2.929,0.572 4.072,1.715c1.143,1.143 1.714,2.5 1.714,4.071l0,32.357c0,1.572 -0.571,2.929 -1.714,4.072c-1.143,1.143 -2.5,1.714 -4.072,1.714l-135.857,0c-1.571,0 -2.928,-0.571 -4.071,-1.714c-1.143,-1.143 -1.714,-2.5 -1.714,-4.072l-0,-32.357c-0,-1.571 0.571,-2.928 1.714,-4.071c1.143,-1.143 2.5,-1.715 4.071,-1.715l39.215,0l-0,-62.142l-39.215,-0c-1.571,-0 -2.928,-0.572 -4.071,-1.715c-1.143,-1.143 -1.714,-2.5 -1.714,-4.071l-0,-32.357c-0,-1.572 0.571,-2.929 1.714,-4.072c1.143,-1.143 2.5,-1.714 4.071,-1.714l135.857,0c1.572,0 2.929,0.571 4.072,1.714c1.143,1.143 1.714,2.5 1.714,4.072l0,32.357c0,1.571 -0.571,2.928 -1.714,4.071c-1.143,1.143 -2.5,1.715 -4.072,1.715Z" style="fill:#3578ff;fill-rule:nonzero;"/><path d="M3126.57,2925l39.215,0c1.571,0 2.928,0.571 4.071,1.714c1.143,1.143 1.714,2.5 1.714,4.072l0,138.428c0,1.572 -0.571,2.929 -1.714,4.072c-1.143,1.143 -2.5,1.714 -4.071,1.714l-38.786,0c-1.571,0 -2.929,-0.571 -4.071,-1.714c-1.143,-1.143 -1.715,-2.5 -1.715,-4.072l0,-66.428l-15.643,30.857c-0.857,1.714 -2.142,3.036 -3.857,3.964c-1.714,0.929 -3.428,1.393 -5.143,1.393l-14.571,0c-2.429,0 -4.429,-0.643 -6,-1.929c-1.571,-1.285 -2.571,-2.428 -3,-3.428l-15.643,-30.857l0,66.428c0,1.572 -0.571,2.929 -1.714,4.072c-1.143,1.143 -2.5,1.714 -4.072,1.714l-38.785,0c-1.572,0 -2.929,-0.571 -4.072,-1.714c-1.143,-1.143 -1.714,-2.5 -1.714,-4.072l0,-138.428c0,-1.572 0.571,-2.929 1.714,-4.072c1.143,-1.143 2.5,-1.714 4.072,-1.714l39.214,0c4,0 7.071,1.929 9.214,5.786l28.072,51.428l28.071,-51.428c2.143,-3.857 5.214,-5.786 9.214,-5.786Z" style="fill:#3578ff;fill-rule:nonzero;"/><path d="M3230.93,3075l-40.5,0c-1.286,0 -2.393,-0.464 -3.322,-1.393c-0.928,-0.928 -1.393,-1.821 -1.393,-2.678c0,-0.858 0.072,-1.5 0.215,-1.929l46.714,-136.929c1.286,-4.714 4.5,-7.071 9.643,-7.071l59.571,0c5.143,0 8.357,2.357 9.643,7.071l46.714,136.929c0.143,0.429 0.215,1.071 0.215,1.929c-0,0.857 -0.465,1.75 -1.393,2.678c-0.929,0.929 -2.036,1.393 -3.322,1.393l-40.5,0c-4.571,0 -7.785,-2.429 -9.643,-7.286l-5.357,-15l-52.285,0l-5.358,15c-1.857,4.857 -5.071,7.286 -9.642,7.286Zm56.357,-64.071l-15.215,-44.572l-15.214,44.572l30.429,-0Z" style="fill:#3578ff;fill-rule:nonzero;"/><path d="M3379.64,2925l147.857,0c1.571,0 2.929,0.571 4.071,1.714c1.143,1.143 1.715,2.5 1.715,4.072l-0,34.5c-0,1.571 -0.572,2.928 -1.715,4.071c-1.142,1.143 -2.5,1.714 -4.071,1.714l-46.071,0l-0,98.143c-0,1.572 -0.572,2.929 -1.715,4.072c-1.143,1.143 -2.5,1.714 -4.071,1.714l-44.143,0c-1.571,0 -2.929,-0.571 -4.071,-1.714c-1.143,-1.143 -1.715,-2.5 -1.715,-4.072l0,-98.143l-46.071,0c-1.572,0 -2.929,-0.571 -4.072,-1.714c-1.142,-1.143 -1.714,-2.5 -1.714,-4.071l0,-34.5c0,-1.572 0.572,-2.929 1.714,-4.072c1.143,-1.143 2.5,-1.714 4.072,-1.714Z" style="fill:#3578ff;fill-rule:nonzero;"/><path d="M3619.64,3033.21l85.5,0c1.571,0 2.928,0.572 4.071,1.715c1.143,1.142 1.715,2.5 1.715,4.071l-0,30.214c-0,1.572 -0.572,2.929 -1.715,4.072c-1.143,1.143 -2.5,1.714 -4.071,1.714l-135.429,0c-1.571,0 -2.928,-0.571 -4.071,-1.714c-1.143,-1.143 -1.714,-2.5 -1.714,-4.072l-0,-138.428c-0,-1.572 0.571,-2.929 1.714,-4.072c1.143,-1.143 2.5,-1.714 4.071,-1.714l133.286,0c1.571,0 2.929,0.571 4.071,1.714c1.143,1.143 1.715,2.5 1.715,4.072l-0,30.214c-0,1.571 -0.572,2.929 -1.715,4.071c-1.142,1.143 -2.5,1.715 -4.071,1.715l-83.357,-0l-0,13.5l71.571,-0c1.572,-0 2.929,0.571 4.072,1.714c1.143,1.143 1.714,2.5 1.714,4.071l0,27.858c0,1.571 -0.571,2.928 -1.714,4.071c-1.143,1.143 -2.5,1.714 -4.072,1.714l-71.571,0l-0,13.5Z" style="fill:#3578ff;fill-rule:nonzero;"/><path d="M4073.5,2930.79l0,81.857c0,21.714 -7.143,37.893 -21.429,48.536c-14.285,10.642 -33.357,15.964 -57.214,15.964c-13,-0 -24.786,-1.679 -35.357,-5.036c-10.571,-3.357 -19,-7.75 -25.286,-13.178c-13,-11.286 -19.5,-23.429 -19.5,-36.429c0,-1.286 0.465,-2.393 1.393,-3.321c0.929,-0.929 2.036,-1.393 3.322,-1.393l48.428,-0c2.572,-0 4.357,1.571 5.357,4.714c2.715,8.571 9.572,12.857 20.572,12.857c6.714,0 12.035,-1.571 15.964,-4.714c3.929,-3.143 5.893,-7.643 5.893,-13.5l-0,-48.214l-78.214,-0c-1.572,-0 -2.929,-0.572 -4.072,-1.715c-1.143,-1.143 -1.714,-2.5 -1.714,-4.071l-0,-32.357c-0,-1.572 0.571,-2.929 1.714,-4.072c1.143,-1.143 2.5,-1.714 4.072,-1.714l130.285,0c1.572,0 2.929,0.571 4.072,1.714c1.143,1.143 1.714,2.5 1.714,4.072Z" style="fill:#3578ff;fill-rule:nonzero;"/><path d="M4239.14,3061.5c-14,10.429 -33,15.643 -57,15.643c-24,-0 -43.036,-5.214 -57.107,-15.643c-14.072,-10.429 -21.107,-26.714 -21.107,-48.857l-0,-81.857c-0,-1.572 0.571,-2.929 1.714,-4.072c1.143,-1.143 2.5,-1.714 4.071,-1.714l44.786,0c1.571,0 2.929,0.571 4.071,1.714c1.143,1.143 1.715,2.5 1.715,4.072l-0,85.285c-0,5.858 1.964,10.358 5.893,13.5c3.928,3.143 9.25,4.715 15.964,4.715c6.714,-0 12.036,-1.572 15.964,-4.715c3.929,-3.142 5.893,-7.642 5.893,-13.5l0,-85.285c0,-1.572 0.571,-2.929 1.714,-4.072c1.143,-1.143 2.5,-1.714 4.072,-1.714l44.785,0c1.572,0 2.929,0.571 4.072,1.714c1.143,1.143 1.714,2.5 1.714,4.072l0,81.857c0,22.143 -7.071,38.428 -21.214,48.857Z" style="fill:#3578ff;fill-rule:nonzero;"/><path d="M4344.57,2982.86l0,34.286c0,5.857 1.965,10.357 5.893,13.5c3.929,3.143 9.072,4.714 15.429,4.714c6.357,0 10.964,-1 13.821,-3c2.857,-2 5.25,-4.928 7.179,-8.786c1.928,-3.857 4.464,-5.785 7.607,-5.785l46.286,-0c1.285,-0 2.393,0.464 3.321,1.393c0.929,0.928 1.393,2.035 1.393,3.321c0,13.286 -6.286,25.429 -18.857,36.429c-6.286,5.428 -14.643,9.821 -25.072,13.178c-10.428,3.357 -22.714,5.036 -36.857,5.036c-14.143,-0 -27.035,-2.179 -38.678,-6.536c-11.643,-4.357 -21.107,-11.5 -28.393,-21.428c-7.286,-9.929 -10.929,-22.108 -10.929,-36.536l0,-25.286c0,-14.428 3.643,-26.643 10.929,-36.643c13.714,-18.571 36.643,-27.857 68.786,-27.857c13,0 24.714,1.679 35.142,5.036c10.429,3.357 18.786,7.75 25.072,13.178c12.571,11 18.857,23.143 18.857,36.429c0,1.286 -0.464,2.393 -1.393,3.321c-0.928,0.929 -2.036,1.393 -3.321,1.393l-46.286,0c-3.143,0 -5.679,-1.928 -7.607,-5.785c-1.929,-3.858 -4.322,-6.786 -7.179,-8.786c-2.857,-2 -7.464,-3 -13.821,-3c-6.357,-0 -11.5,1.571 -15.429,4.714c-3.928,3.143 -5.893,7.643 -5.893,13.5Z" style="fill:#3578ff;fill-rule:nonzero;"/><path d="M4530.36,3033.21l85.5,0c1.572,0 2.929,0.572 4.072,1.715c1.142,1.142 1.714,2.5 1.714,4.071l-0,30.214c-0,1.572 -0.572,2.929 -1.714,4.072c-1.143,1.143 -2.5,1.714 -4.072,1.714l-135.428,0c-1.572,0 -2.929,-0.571 -4.072,-1.714c-1.143,-1.143 -1.714,-2.5 -1.714,-4.072l-0,-138.428c-0,-1.572 0.571,-2.929 1.714,-4.072c1.143,-1.143 2.5,-1.714 4.072,-1.714l133.285,0c1.572,0 2.929,0.571 4.072,1.714c1.143,1.143 1.714,2.5 1.714,4.072l0,30.214c0,1.571 -0.571,2.929 -1.714,4.071c-1.143,1.143 -2.5,1.715 -4.072,1.715l-83.357,-0l0,13.5l71.572,-0c1.571,-0 2.928,0.571 4.071,1.714c1.143,1.143 1.714,2.5 1.714,4.071l0,27.858c0,1.571 -0.571,2.928 -1.714,4.071c-1.143,1.143 -2.5,1.714 -4.071,1.714l-71.572,0l0,13.5Z" style="fill:#3578ff;fill-rule:nonzero;"/><path d="M4894.64,3033.21l85.5,0c1.571,0 2.928,0.572 4.071,1.715c1.143,1.142 1.715,2.5 1.715,4.071l-0,30.214c-0,1.572 -0.572,2.929 -1.715,4.072c-1.143,1.143 -2.5,1.714 -4.071,1.714l-135.429,0c-1.571,0 -2.928,-0.571 -4.071,-1.714c-1.143,-1.143 -1.714,-2.5 -1.714,-4.072l-0,-138.428c-0,-1.572 0.571,-2.929 1.714,-4.072c1.143,-1.143 2.5,-1.714 4.071,-1.714l133.286,0c1.571,0 2.929,0.571 4.071,1.714c1.143,1.143 1.715,2.5 1.715,4.072l-0,30.214c-0,1.571 -0.572,2.929 -1.715,4.071c-1.142,1.143 -2.5,1.715 -4.071,1.715l-83.357,-0l-0,13.5l71.571,-0c1.572,-0 2.929,0.571 4.072,1.714c1.143,1.143 1.714,2.5 1.714,4.071l0,27.858c0,1.571 -0.571,2.928 -1.714,4.071c-1.143,1.143 -2.5,1.714 -4.072,1.714l-71.571,0l-0,13.5Z" style="fill:#3578ff;fill-rule:nonzero;"/><path d="M5172.36,3067.93c0.429,0.571 0.643,1.428 0.643,2.571c0,1.143 -0.464,2.179 -1.393,3.107c-0.928,0.929 -2.036,1.393 -3.321,1.393l-46.072,0c-3.857,0 -6.785,-1.643 -8.785,-4.929l-20.786,-31.928l-20.357,31.928c-2.143,3.286 -5.072,4.929 -8.786,4.929l-46.286,0c-1.285,0 -2.393,-0.464 -3.321,-1.393c-0.929,-0.928 -1.393,-1.964 -1.393,-3.107c0,-1.143 0.214,-2 0.643,-2.571l47.357,-72.429l-42.214,-63.429c-0.429,-0.571 -0.643,-1.428 -0.643,-2.571c-0,-1.143 0.464,-2.179 1.393,-3.107c0.928,-0.929 2.035,-1.393 3.321,-1.393l46.286,0c3.714,0 6.714,1.786 9,5.357l16.714,27.429l18,-27.857c2.429,-3.286 5.357,-4.929 8.786,-4.929l46.071,0c1.286,0 2.393,0.464 3.322,1.393c0.928,0.928 1.393,1.964 1.393,3.107c-0,1.143 -0.215,2 -0.643,2.571l-44.786,66.215l45.857,69.643Z" style="fill:#3578ff;fill-rule:nonzero;"/><path d="M5201.07,2925l147.858,0c1.571,0 2.928,0.571 4.071,1.714c1.143,1.143 1.714,2.5 1.714,4.072l0,34.5c0,1.571 -0.571,2.928 -1.714,4.071c-1.143,1.143 -2.5,1.714 -4.071,1.714l-46.072,0l0,98.143c0,1.572 -0.571,2.929 -1.714,4.072c-1.143,1.143 -2.5,1.714 -4.072,1.714l-44.142,0c-1.572,0 -2.929,-0.571 -4.072,-1.714c-1.143,-1.143 -1.714,-2.5 -1.714,-4.072l-0,-98.143l-46.072,0c-1.571,0 -2.928,-0.571 -4.071,-1.714c-1.143,-1.143 -1.714,-2.5 -1.714,-4.071l-0,-34.5c-0,-1.572 0.571,-2.929 1.714,-4.072c1.143,-1.143 2.5,-1.714 4.071,-1.714Z" style="fill:#3578ff;fill-rule:nonzero;"/><path d="M5441.07,3033.21l85.5,0c1.572,0 2.929,0.572 4.072,1.715c1.143,1.142 1.714,2.5 1.714,4.071l0,30.214c0,1.572 -0.571,2.929 -1.714,4.072c-1.143,1.143 -2.5,1.714 -4.072,1.714l-135.428,0c-1.572,0 -2.929,-0.571 -4.072,-1.714c-1.142,-1.143 -1.714,-2.5 -1.714,-4.072l0,-138.428c0,-1.572 0.572,-2.929 1.714,-4.072c1.143,-1.143 2.5,-1.714 4.072,-1.714l133.286,0c1.571,0 2.928,0.571 4.071,1.714c1.143,1.143 1.714,2.5 1.714,4.072l0,30.214c0,1.571 -0.571,2.929 -1.714,4.071c-1.143,1.143 -2.5,1.715 -4.071,1.715l-83.358,-0l0,13.5l71.572,-0c1.571,-0 2.928,0.571 4.071,1.714c1.143,1.143 1.715,2.5 1.715,4.071l-0,27.858c-0,1.571 -0.572,2.928 -1.715,4.071c-1.143,1.143 -2.5,1.714 -4.071,1.714l-71.572,0l0,13.5Z" style="fill:#3578ff;fill-rule:nonzero;"/><path d="M5666.5,2925l39.857,0c1.572,0 2.929,0.571 4.072,1.714c1.142,1.143 1.714,2.5 1.714,4.072l-0,138.428c-0,1.572 -0.572,2.929 -1.714,4.072c-1.143,1.143 -2.5,1.714 -4.072,1.714l-34.5,0c-3.428,0 -6.286,-1.5 -8.571,-4.5l-46.715,-59.571l0,58.285c0,1.572 -0.571,2.929 -1.714,4.072c-1.143,1.143 -2.5,1.714 -4.071,1.714l-39.857,0c-1.572,0 -2.929,-0.571 -4.072,-1.714c-1.143,-1.143 -1.714,-2.5 -1.714,-4.072l-0,-138.428c-0,-1.572 0.571,-2.929 1.714,-4.072c1.143,-1.143 2.5,-1.714 4.072,-1.714l34.714,0c3.428,0 6.214,1.429 8.357,4.286l46.714,64.5l0,-63c0,-1.572 0.572,-2.929 1.715,-4.072c1.142,-1.143 2.5,-1.714 4.071,-1.714Z" style="fill:#3578ff;fill-rule:nonzero;"/><path d="M5833.21,2979.43c23.429,2.714 40.107,7.75 50.036,15.107c9.929,7.357 14.893,18.393 14.893,33.107c-0,14.714 -7.214,26.643 -21.643,35.786c-14.429,9.142 -33.571,13.714 -57.429,13.714c-23.857,-0 -42.392,-4.393 -55.607,-13.179c-13.214,-8.785 -19.821,-19.607 -19.821,-32.464c-0,-3.143 1.643,-4.714 4.928,-4.714l43.929,-0c3,-0 5.429,0.928 7.286,2.785c4,3.858 10.928,5.786 20.785,5.786c13.572,0 20.358,-2.071 20.358,-6.214c-0,-2.572 -2.143,-4.607 -6.429,-6.107c-4.286,-1.5 -12.786,-2.965 -25.5,-4.393c-40.429,-4.857 -60.643,-20.357 -60.643,-46.5c0,-14.714 6.5,-26.607 19.5,-35.679c13,-9.071 30.393,-13.607 52.179,-13.607c21.785,0 39.393,4.75 52.821,14.25c13.429,9.5 20.143,19.536 20.143,30.107c0,1.429 -0.464,2.572 -1.393,3.429c-0.928,0.857 -2.178,1.286 -3.75,1.286l-46.071,-0c-2.572,-0 -4.786,-0.858 -6.643,-2.572c-3.429,-3.143 -8.572,-4.714 -15.429,-4.714c-9.571,-0 -14.357,2 -14.357,6c0,2.143 1.857,3.821 5.572,5.036c3.714,1.214 11.142,2.464 22.285,3.75Z" style="fill:#3578ff;fill-rule:nonzero;"/><path d="M6071.5,2968.93l-38.786,-0l0,62.142l38.786,0c1.571,0 2.929,0.572 4.071,1.715c1.143,1.143 1.715,2.5 1.715,4.071l-0,32.357c-0,1.572 -0.572,2.929 -1.715,4.072c-1.142,1.143 -2.5,1.714 -4.071,1.714l-135.857,0c-1.572,0 -2.929,-0.571 -4.072,-1.714c-1.142,-1.143 -1.714,-2.5 -1.714,-4.072l0,-32.357c0,-1.571 0.572,-2.928 1.714,-4.071c1.143,-1.143 2.5,-1.715 4.072,-1.715l39.214,0l0,-62.142l-39.214,-0c-1.572,-0 -2.929,-0.572 -4.072,-1.715c-1.142,-1.143 -1.714,-2.5 -1.714,-4.071l0,-32.357c0,-1.572 0.572,-2.929 1.714,-4.072c1.143,-1.143 2.5,-1.714 4.072,-1.714l135.857,0c1.571,0 2.929,0.571 4.071,1.714c1.143,1.143 1.715,2.5 1.715,4.072l-0,32.357c-0,1.571 -0.572,2.928 -1.715,4.071c-1.142,1.143 -2.5,1.715 -4.071,1.715Z" style="fill:#3578ff;fill-rule:nonzero;"/><path d="M6265.43,2986.93l-0,26.142c-0,14.715 -3.572,27 -10.715,36.858c-7.143,9.857 -16.5,16.857 -28.071,21c-11.572,4.142 -25.214,6.214 -40.929,6.214c-15.714,-0 -29.357,-2.072 -40.928,-6.214c-11.572,-4.143 -20.929,-11.143 -28.072,-21c-7.143,-9.858 -10.714,-22.286 -10.714,-37.286l0,-25.286c0,-21.571 7.393,-37.714 22.179,-48.428c14.785,-10.715 33.964,-16.072 57.535,-16.072c23.572,0 42.75,5.357 57.536,16.072c14.786,10.714 22.179,26.714 22.179,48Zm-101.572,-4.072l0,34.286c0,5.857 1.964,10.357 5.893,13.5c3.929,3.143 9.25,4.714 15.964,4.714c6.715,0 12.036,-1.607 15.965,-4.821c3.928,-3.215 5.892,-7.75 5.892,-13.607l0,-33.858c0,-5.857 -1.964,-10.392 -5.892,-13.607c-3.929,-3.214 -9.25,-4.821 -15.965,-4.821c-6.714,-0 -12.035,1.571 -15.964,4.714c-3.929,3.143 -5.893,7.643 -5.893,13.5Z" style="fill:#3578ff;fill-rule:nonzero;"/><path d="M6395.07,2925l39.858,0c1.571,0 2.928,0.571 4.071,1.714c1.143,1.143 1.714,2.5 1.714,4.072l0,138.428c0,1.572 -0.571,2.929 -1.714,4.072c-1.143,1.143 -2.5,1.714 -4.071,1.714l-34.5,0c-3.429,0 -6.286,-1.5 -8.572,-4.5l-46.714,-59.571l-0,58.285c-0,1.572 -0.572,2.929 -1.714,4.072c-1.143,1.143 -2.5,1.714 -4.072,1.714l-39.857,0c-1.571,0 -2.929,-0.571 -4.071,-1.714c-1.143,-1.143 -1.715,-2.5 -1.715,-4.072l0,-138.428c0,-1.572 0.572,-2.929 1.715,-4.072c1.142,-1.143 2.5,-1.714 4.071,-1.714l34.714,0c3.429,0 6.215,1.429 8.357,4.286l46.715,64.5l-0,-63c-0,-1.572 0.571,-2.929 1.714,-4.072c1.143,-1.143 2.5,-1.714 4.071,-1.714Z" style="fill:#3578ff;fill-rule:nonzero;"/><path d="M2479,3139.29l136.286,-0c1.571,-0 2.928,0.571 4.071,1.714c1.143,1.143 1.714,2.5 1.714,4.071l0,32.572c0,1.571 -0.571,2.928 -1.714,4.071c-1.143,1.143 -2.5,1.715 -4.071,1.715l-84.215,-0l0,13.714l70.286,-0c1.572,-0 2.929,0.571 4.072,1.714c1.142,1.143 1.714,2.5 1.714,4.072l-0,32.357c-0,1.571 -0.572,2.928 -1.714,4.071c-1.143,1.143 -2.5,1.714 -4.072,1.714l-70.286,0l0,42.429c0,1.571 -0.571,2.929 -1.714,4.071c-1.143,1.143 -2.5,1.715 -4.071,1.715l-46.286,-0c-1.571,-0 -2.929,-0.572 -4.071,-1.715c-1.143,-1.142 -1.715,-2.5 -1.715,-4.071l0,-138.429c0,-1.571 0.572,-2.928 1.715,-4.071c1.142,-1.143 2.5,-1.714 4.071,-1.714Z" style="fill:#3578ff;fill-rule:nonzero;"/><path d="M2804.71,3201.21l0,26.143c0,14.714 -3.571,27 -10.714,36.857c-7.143,9.857 -16.5,16.857 -28.071,21c-11.572,4.143 -25.215,6.215 -40.929,6.215c-15.714,-0 -29.357,-2.072 -40.929,-6.215c-11.571,-4.143 -20.928,-11.143 -28.071,-21c-7.143,-9.857 -10.714,-22.285 -10.714,-37.285l-0,-25.286c-0,-21.572 7.393,-37.714 22.178,-48.429c14.786,-10.714 33.965,-16.071 57.536,-16.071c23.571,-0 42.75,5.357 57.536,16.071c14.785,10.715 22.178,26.715 22.178,48Zm-101.571,-4.071l-0,34.286c-0,5.857 1.964,10.357 5.893,13.5c3.928,3.142 9.25,4.714 15.964,4.714c6.714,-0 12.036,-1.607 15.964,-4.822c3.929,-3.214 5.893,-7.75 5.893,-13.607l0,-33.857c0,-5.857 -1.964,-10.393 -5.893,-13.607c-3.928,-3.214 -9.25,-4.821 -15.964,-4.821c-6.714,-0 -12.036,1.571 -15.964,4.714c-3.929,3.143 -5.893,7.643 -5.893,13.5Z" style="fill:#3578ff;fill-rule:nonzero;"/><path d="M2992.21,3282.64c0.286,0.571 0.429,1.357 0.429,2.357c-0,1 -0.464,1.964 -1.393,2.893c-0.929,0.928 -2.036,1.393 -3.321,1.393l-48.643,-0c-4.286,-0 -7.286,-1.786 -9,-5.357l-18.857,-42.429l-18,0l-0,42c-0,1.571 -0.572,2.929 -1.715,4.071c-1.143,1.143 -2.5,1.715 -4.071,1.715l-46.286,-0c-1.571,-0 -2.928,-0.572 -4.071,-1.715c-1.143,-1.142 -1.715,-2.5 -1.715,-4.071l0,-138.429c0,-1.571 0.572,-2.928 1.715,-4.071c1.143,-1.143 2.5,-1.714 4.071,-1.714l83.357,-0c19.572,-0 35.072,4.643 46.5,13.928c11.429,9.286 17.143,21.929 17.143,37.929c0,19.428 -7.5,33.5 -22.5,42.214l26.357,49.286Zm-98.785,-103.5l-0,22.714l26.785,0c3.143,0 5.572,-1.036 7.286,-3.107c1.714,-2.071 2.571,-4.679 2.571,-7.821c0,-3.143 -0.821,-5.893 -2.464,-8.25c-1.643,-2.358 -4.107,-3.536 -7.393,-3.536l-26.785,-0Z" style="fill:#3578ff;fill-rule:nonzero;"/><path d="M3353.07,3242.14c0,31.428 -20.142,47.143 -60.428,47.143l-88.286,-0c-1.571,-0 -2.928,-0.572 -4.071,-1.715c-1.143,-1.142 -1.715,-2.5 -1.715,-4.071l0,-138.429c0,-1.571 0.572,-2.928 1.715,-4.071c1.143,-1.143 2.5,-1.714 4.071,-1.714l86.143,-0c20.286,-0 35.25,3.678 44.893,11.035c9.643,7.358 14.464,18.465 14.464,33.322l0,0.643c0,6.857 -1.857,12.714 -5.571,17.571c-3.715,4.857 -7.572,7.929 -11.572,9.214c5.572,1.715 10.357,5.465 14.357,11.25c4,5.786 6,12.393 6,19.822Zm-98.785,-10.714l-0,21l31.071,-0c3.286,-0 5.75,-1.108 7.393,-3.322c1.643,-2.214 2.464,-4.678 2.464,-7.393l0,-0.214c0,-2.714 -0.893,-5.071 -2.678,-7.071c-1.786,-2 -4.179,-3 -7.179,-3l-31.071,-0Zm35.143,-38.786c1.571,-2.143 2.357,-4.5 2.357,-7.072c-0,-2.571 -0.75,-4.785 -2.25,-6.642c-1.5,-1.858 -3.679,-2.786 -6.536,-2.786l-28.714,-0l-0,19.5l28.714,-0c2.857,-0 5,-1 6.429,-3Z" style="fill:#3578ff;fill-rule:nonzero;"/><path d="M3510.57,3275.79c-14,10.428 -33,15.643 -57,15.643c-24,-0 -43.035,-5.215 -57.107,-15.643c-14.071,-10.429 -21.107,-26.715 -21.107,-48.857l0,-81.858c0,-1.571 0.572,-2.928 1.714,-4.071c1.143,-1.143 2.5,-1.714 4.072,-1.714l44.786,-0c1.571,-0 2.928,0.571 4.071,1.714c1.143,1.143 1.714,2.5 1.714,4.071l0,85.286c0,5.857 1.965,10.357 5.893,13.5c3.929,3.143 9.25,4.714 15.964,4.714c6.715,0 12.036,-1.571 15.965,-4.714c3.928,-3.143 5.893,-7.643 5.893,-13.5l-0,-85.286c-0,-1.571 0.571,-2.928 1.714,-4.071c1.143,-1.143 2.5,-1.714 4.071,-1.714l44.786,-0c1.571,-0 2.929,0.571 4.071,1.714c1.143,1.143 1.715,2.5 1.715,4.071l-0,81.858c-0,22.142 -7.072,38.428 -21.215,48.857Z" style="fill:#3578ff;fill-rule:nonzero;"/><path d="M3703.64,3183.21l-38.786,0l0,62.143l38.786,0c1.571,0 2.928,0.572 4.071,1.714c1.143,1.143 1.715,2.5 1.715,4.072l-0,32.357c-0,1.571 -0.572,2.929 -1.715,4.071c-1.143,1.143 -2.5,1.715 -4.071,1.715l-135.857,-0c-1.572,-0 -2.929,-0.572 -4.072,-1.715c-1.143,-1.142 -1.714,-2.5 -1.714,-4.071l0,-32.357c0,-1.572 0.571,-2.929 1.714,-4.072c1.143,-1.142 2.5,-1.714 4.072,-1.714l39.214,0l0,-62.143l-39.214,0c-1.572,0 -2.929,-0.571 -4.072,-1.714c-1.143,-1.143 -1.714,-2.5 -1.714,-4.071l0,-32.358c0,-1.571 0.571,-2.928 1.714,-4.071c1.143,-1.143 2.5,-1.714 4.072,-1.714l135.857,-0c1.571,-0 2.928,0.571 4.071,1.714c1.143,1.143 1.715,2.5 1.715,4.071l-0,32.358c-0,1.571 -0.572,2.928 -1.715,4.071c-1.143,1.143 -2.5,1.714 -4.071,1.714Z" style="fill:#3578ff;fill-rule:nonzero;"/><path d="M3814.64,3245.36l73.071,0c1.572,0 2.929,0.572 4.072,1.714c1.143,1.143 1.714,2.5 1.714,4.072l0,32.357c0,1.571 -0.571,2.929 -1.714,4.071c-1.143,1.143 -2.5,1.715 -4.072,1.715l-125.143,-0c-1.571,-0 -2.928,-0.572 -4.071,-1.715c-1.143,-1.142 -1.714,-2.5 -1.714,-4.071l-0,-138.429c-0,-1.571 0.571,-2.928 1.714,-4.071c1.143,-1.143 2.5,-1.714 4.071,-1.714l46.286,-0c1.572,-0 2.929,0.571 4.072,1.714c1.142,1.143 1.714,2.5 1.714,4.071l-0,100.286Z" style="fill:#3578ff;fill-rule:nonzero;"/><path d="M3931,3139.29l68.357,-0c15.714,-0 29.357,2.071 40.929,6.214c11.571,4.143 20.928,11.143 28.071,21c7.143,9.857 10.714,22.143 10.714,36.857l0,21.857c0,22.857 -7.714,39.5 -23.142,49.929c-14.143,9.428 -33,14.143 -56.572,14.143l-68.357,-0c-1.571,-0 -2.929,-0.572 -4.071,-1.715c-1.143,-1.142 -1.715,-2.5 -1.715,-4.071l0,-138.429c0,-1.571 0.572,-2.928 1.715,-4.071c1.142,-1.143 2.5,-1.714 4.071,-1.714Zm49.929,41.785l-0,66.429l19.5,0c6.714,0 12.035,-1.607 15.964,-4.821c3.928,-3.215 5.893,-7.75 5.893,-13.608l-0,-29.571c-0,-5.857 -1.965,-10.393 -5.893,-13.607c-3.929,-3.214 -9.25,-4.822 -15.964,-4.822l-19.5,0Z" style="fill:#3578ff;fill-rule:nonzero;"/><path d="M4250.07,3183.21l-38.785,0l-0,62.143l38.785,0c1.572,0 2.929,0.572 4.072,1.714c1.143,1.143 1.714,2.5 1.714,4.072l0,32.357c0,1.571 -0.571,2.929 -1.714,4.071c-1.143,1.143 -2.5,1.715 -4.072,1.715l-135.857,-0c-1.571,-0 -2.928,-0.572 -4.071,-1.715c-1.143,-1.142 -1.714,-2.5 -1.714,-4.071l-0,-32.357c-0,-1.572 0.571,-2.929 1.714,-4.072c1.143,-1.142 2.5,-1.714 4.071,-1.714l39.215,0l-0,-62.143l-39.215,0c-1.571,0 -2.928,-0.571 -4.071,-1.714c-1.143,-1.143 -1.714,-2.5 -1.714,-4.071l-0,-32.358c-0,-1.571 0.571,-2.928 1.714,-4.071c1.143,-1.143 2.5,-1.714 4.071,-1.714l135.857,-0c1.572,-0 2.929,0.571 4.072,1.714c1.143,1.143 1.714,2.5 1.714,4.071l0,32.358c0,1.571 -0.571,2.928 -1.714,4.071c-1.143,1.143 -2.5,1.714 -4.072,1.714Z" style="fill:#3578ff;fill-rule:nonzero;"/><path d="M4391.5,3139.29l39.857,-0c1.572,-0 2.929,0.571 4.072,1.714c1.142,1.143 1.714,2.5 1.714,4.071l-0,138.429c-0,1.571 -0.572,2.929 -1.714,4.071c-1.143,1.143 -2.5,1.715 -4.072,1.715l-34.5,-0c-3.428,-0 -6.286,-1.5 -8.571,-4.5l-46.715,-59.572l0,58.286c0,1.571 -0.571,2.929 -1.714,4.071c-1.143,1.143 -2.5,1.715 -4.071,1.715l-39.857,-0c-1.572,-0 -2.929,-0.572 -4.072,-1.715c-1.143,-1.142 -1.714,-2.5 -1.714,-4.071l-0,-138.429c-0,-1.571 0.571,-2.928 1.714,-4.071c1.143,-1.143 2.5,-1.714 4.072,-1.714l34.714,-0c3.428,-0 6.214,1.428 8.357,4.285l46.714,64.5l0,-63c0,-1.571 0.572,-2.928 1.715,-4.071c1.142,-1.143 2.5,-1.714 4.071,-1.714Z" style="fill:#3578ff;fill-rule:nonzero;"/><path d="M4561.43,3198.86l62.142,0c1.572,0 2.929,0.572 4.072,1.714c1.143,1.143 1.714,2.5 1.714,4.072l0,22.714c0,21.714 -7.393,37.822 -22.178,48.322c-14.786,10.5 -34.322,15.75 -58.608,15.75c-24.285,-0 -43.821,-5.25 -58.607,-15.75c-14.785,-10.5 -22.178,-26.75 -22.178,-48.75l-0,-25.286c-0,-11 2.107,-20.714 6.321,-29.143c4.214,-8.429 10.107,-15.214 17.679,-20.357c14.857,-10 33.785,-15 56.785,-15c11.429,-0 21.893,1.321 31.393,3.964c9.5,2.643 17.072,5.929 22.715,9.857c5.642,3.929 10.464,8.179 14.464,12.75c7,8 10.5,15.072 10.5,21.215c-0,1.285 -0.464,2.392 -1.393,3.321c-0.929,0.929 -2.036,1.393 -3.321,1.393l-48.429,-0c-2.857,-0 -4.929,-0.786 -6.214,-2.357c-4.429,-5.572 -10.465,-8.357 -18.107,-8.357c-7.643,-0 -13.643,1.5 -18,4.5c-4.358,3 -6.536,6.857 -6.536,11.571l-0,36.429c-0,5.714 2.143,10.178 6.428,13.392c4.286,3.215 10.322,4.822 18.108,4.822c7.785,-0 13.785,-1.536 18,-4.607c4.214,-3.072 6.392,-6.679 6.535,-10.822l-13.285,0c-1.572,0 -2.929,-0.571 -4.072,-1.714c-1.143,-1.143 -1.714,-2.5 -1.714,-4.071l-0,-23.786c-0,-1.572 0.571,-2.929 1.714,-4.072c1.143,-1.142 2.5,-1.714 4.072,-1.714Z" style="fill:#3578ff;fill-rule:nonzero;"/><path d="M4925.71,3198.86l62.143,0c1.572,0 2.929,0.572 4.072,1.714c1.142,1.143 1.714,2.5 1.714,4.072l-0,22.714c-0,21.714 -7.393,37.822 -22.179,48.322c-14.785,10.5 -34.321,15.75 -58.607,15.75c-24.286,-0 -43.821,-5.25 -58.607,-15.75c-14.786,-10.5 -22.179,-26.75 -22.179,-48.75l0,-25.286c0,-11 2.108,-20.714 6.322,-29.143c4.214,-8.429 10.107,-15.214 17.678,-20.357c14.858,-10 33.786,-15 56.786,-15c11.429,-0 21.893,1.321 31.393,3.964c9.5,2.643 17.071,5.929 22.714,9.857c5.643,3.929 10.465,8.179 14.465,12.75c7,8 10.5,15.072 10.5,21.215c-0,1.285 -0.465,2.392 -1.393,3.321c-0.929,0.929 -2.036,1.393 -3.322,1.393l-48.428,-0c-2.857,-0 -4.929,-0.786 -6.215,-2.357c-4.428,-5.572 -10.464,-8.357 -18.107,-8.357c-7.643,-0 -13.643,1.5 -18,4.5c-4.357,3 -6.535,6.857 -6.535,11.571l-0,36.429c-0,5.714 2.142,10.178 6.428,13.392c4.286,3.215 10.322,4.822 18.107,4.822c7.786,-0 13.786,-1.536 18,-4.607c4.215,-3.072 6.393,-6.679 6.536,-10.822l-13.286,0c-1.571,0 -2.928,-0.571 -4.071,-1.714c-1.143,-1.143 -1.714,-2.5 -1.714,-4.071l-0,-23.786c-0,-1.572 0.571,-2.929 1.714,-4.072c1.143,-1.142 2.5,-1.714 4.071,-1.714Z" style="fill:#3578ff;fill-rule:nonzero;"/><path d="M5149.86,3275.79c-14,10.428 -33,15.643 -57,15.643c-24,-0 -43.036,-5.215 -57.107,-15.643c-14.071,-10.429 -21.107,-26.715 -21.107,-48.857l-0,-81.858c-0,-1.571 0.571,-2.928 1.714,-4.071c1.143,-1.143 2.5,-1.714 4.072,-1.714l44.785,-0c1.572,-0 2.929,0.571 4.072,1.714c1.143,1.143 1.714,2.5 1.714,4.071l0,85.286c0,5.857 1.964,10.357 5.893,13.5c3.928,3.143 9.25,4.714 15.964,4.714c6.714,0 12.036,-1.571 15.964,-4.714c3.929,-3.143 5.893,-7.643 5.893,-13.5l0,-85.286c0,-1.571 0.572,-2.928 1.715,-4.071c1.142,-1.143 2.5,-1.714 4.071,-1.714l44.786,-0c1.571,-0 2.928,0.571 4.071,1.714c1.143,1.143 1.714,2.5 1.714,4.071l0,81.858c0,22.142 -7.071,38.428 -21.214,48.857Z" style="fill:#3578ff;fill-rule:nonzero;"/><path d="M5342.93,3183.21l-38.786,0l-0,62.143l38.786,0c1.571,0 2.928,0.572 4.071,1.714c1.143,1.143 1.714,2.5 1.714,4.072l0,32.357c0,1.571 -0.571,2.929 -1.714,4.071c-1.143,1.143 -2.5,1.715 -4.071,1.715l-135.858,-0c-1.571,-0 -2.928,-0.572 -4.071,-1.715c-1.143,-1.142 -1.714,-2.5 -1.714,-4.071l-0,-32.357c-0,-1.572 0.571,-2.929 1.714,-4.072c1.143,-1.142 2.5,-1.714 4.071,-1.714l39.215,0l-0,-62.143l-39.215,0c-1.571,0 -2.928,-0.571 -4.071,-1.714c-1.143,-1.143 -1.714,-2.5 -1.714,-4.071l-0,-32.358c-0,-1.571 0.571,-2.928 1.714,-4.071c1.143,-1.143 2.5,-1.714 4.071,-1.714l135.858,-0c1.571,-0 2.928,0.571 4.071,1.714c1.143,1.143 1.714,2.5 1.714,4.071l0,32.358c0,1.571 -0.571,2.928 -1.714,4.071c-1.143,1.143 -2.5,1.714 -4.071,1.714Z" style="fill:#3578ff;fill-rule:nonzero;"/><path d="M5468.93,3193.71c23.428,2.715 40.107,7.75 50.035,15.107c9.929,7.358 14.893,18.393 14.893,33.108c0,14.714 -7.214,26.642 -21.643,35.785c-14.428,9.143 -33.571,13.715 -57.428,13.715c-23.857,-0 -42.393,-4.393 -55.607,-13.179c-13.215,-8.786 -19.822,-19.607 -19.822,-32.464c0,-3.143 1.643,-4.715 4.929,-4.715l43.928,0c3,0 5.429,0.929 7.286,2.786c4,3.857 10.929,5.786 20.786,5.786c13.571,-0 20.357,-2.072 20.357,-6.214c-0,-2.572 -2.143,-4.608 -6.429,-6.108c-4.285,-1.5 -12.785,-2.964 -25.5,-4.392c-40.428,-4.858 -60.643,-20.358 -60.643,-46.5c0,-14.715 6.5,-26.608 19.5,-35.679c13,-9.071 30.393,-13.607 52.179,-13.607c21.786,-0 39.393,4.75 52.821,14.25c13.429,9.5 20.143,19.536 20.143,30.107c0,1.429 -0.464,2.571 -1.393,3.429c-0.928,0.857 -2.178,1.285 -3.75,1.285l-46.071,0c-2.571,0 -4.786,-0.857 -6.643,-2.571c-3.428,-3.143 -8.571,-4.714 -15.428,-4.714c-9.572,-0 -14.358,2 -14.358,6c0,2.142 1.858,3.821 5.572,5.035c3.714,1.215 11.143,2.465 22.286,3.75Z" style="fill:#3578ff;fill-rule:nonzero;"/></g><g><path d="M2402.29,1482l-0,654.857c-0,173.714 -57.143,303.143 -171.429,388.286c-114.286,85.143 -266.857,127.714 -457.714,127.714c-104,0 -198.286,-13.428 -282.857,-40.286c-84.572,-26.857 -152,-62 -202.286,-105.428c-104,-90.286 -156,-187.429 -156,-291.429c-0,-10.285 3.714,-19.143 11.143,-26.571c7.428,-7.429 16.286,-11.143 26.571,-11.143l387.429,0c20.571,0 34.857,12.571 42.857,37.714c21.714,68.572 76.571,102.857 164.571,102.857c53.715,0 96.286,-12.571 127.715,-37.714c31.428,-25.143 47.143,-61.143 47.143,-108l-0,-385.714l-625.715,-0c-12.571,-0 -23.428,-4.572 -32.571,-13.714c-9.143,-9.143 -13.714,-20 -13.714,-32.572l-0,-258.857c-0,-12.571 4.571,-23.429 13.714,-32.571c9.143,-9.143 20,-13.715 32.571,-13.715l1042.29,0c12.571,0 23.429,4.572 32.571,13.715c9.143,9.142 13.715,20 13.715,32.571Z" style="fill:#679aff;fill-opacity:0.05;fill-rule:nonzero;stroke:#37f;stroke-width:47.62px;"/><path d="M3814.86,1787.14l-310.286,-0l0,497.143l310.286,-0c12.572,-0 23.429,4.571 32.572,13.714c9.142,9.143 13.714,20 13.714,32.571l-0,258.858c-0,12.571 -4.572,23.428 -13.714,32.571c-9.143,9.143 -20,13.714 -32.572,13.714l-1086.86,0c-12.571,0 -23.429,-4.571 -32.571,-13.714c-9.143,-9.143 -13.715,-20 -13.715,-32.571l0,-258.858c0,-12.571 4.572,-23.428 13.715,-32.571c9.142,-9.143 20,-13.714 32.571,-13.714l313.714,-0l0,-497.143l-313.714,-0c-12.571,-0 -23.429,-4.572 -32.571,-13.714c-9.143,-9.143 -13.715,-20 -13.715,-32.572l0,-258.857c0,-12.571 4.572,-23.429 13.715,-32.571c9.142,-9.143 20,-13.715 32.571,-13.715l1086.86,0c12.572,0 23.429,4.572 32.572,13.715c9.142,9.142 13.714,20 13.714,32.571l-0,258.857c-0,12.572 -4.572,23.429 -13.714,32.572c-9.143,9.142 -20,13.714 -32.572,13.714Z" style="fill:#679aff;fill-opacity:0.05;fill-rule:nonzero;stroke:#37f;stroke-width:47.62px;"/><path d="M5002.86,1435.71l361.714,0c10.286,0 19.143,3.715 26.572,11.143c7.428,7.429 11.143,14.572 11.143,21.429c-0,6.857 -0.572,12.571 -1.715,17.143l-394.285,1093.71c-12.572,37.714 -38.286,56.571 -77.143,56.571l-399.429,0c-37.714,0 -62.857,-17.143 -75.428,-51.428l-397.715,-1098.86c-1.142,-4.572 -1.714,-10.286 -1.714,-17.143c0,-6.857 3.714,-14 11.143,-21.429c7.429,-7.428 16.286,-11.143 26.571,-11.143l361.715,0c20.571,0 37.428,6 50.571,18c13.143,12 22,24.857 26.572,38.572l197.142,656.571l197.143,-656.571c10.286,-37.715 36,-56.572 77.143,-56.572Z" style="fill:#679aff;fill-opacity:0.05;fill-rule:nonzero;stroke:#37f;stroke-width:47.62px;"/><path d="M6057.14,2301.43l684,-0c12.571,-0 23.428,4.571 32.571,13.714c9.143,9.143 13.715,20 13.715,32.571l-0,241.715c-0,12.571 -4.572,23.428 -13.715,32.571c-9.143,9.143 -20,13.714 -32.571,13.714l-1083.43,0c-12.571,0 -23.428,-4.571 -32.571,-13.714c-9.143,-9.143 -13.714,-20 -13.714,-32.571l-0,-1107.43c-0,-12.571 4.571,-23.429 13.714,-32.571c9.143,-9.143 20,-13.715 32.571,-13.715l1066.29,0c12.571,0 23.429,4.572 32.571,13.715c9.143,9.142 13.715,20 13.715,32.571l-0,241.714c-0,12.572 -4.572,23.429 -13.715,32.572c-9.142,9.143 -20,13.714 -32.571,13.714l-666.857,0l-0,108l572.571,0c12.572,0 23.429,4.571 32.572,13.714c9.143,9.143 13.714,20 13.714,32.572l0,222.857c0,12.571 -4.571,23.428 -13.714,32.571c-9.143,9.143 -20,13.715 -32.572,13.715l-572.571,-0l-0,108Z" style="fill:#679aff;fill-opacity:0.05;fill-rule:nonzero;stroke:#37f;stroke-width:47.62px;"/></g></g><defs><linearGradient id="_Linear1" x1="0" y1="0" x2="1" y2="0" gradientUnits="userSpaceOnUse" gradientTransform="matrix(2.99186e-13,4886.08,-4886.08,2.99186e-13,4012.5,-193.048)"><stop offset="0" style="stop-color:#3b3b3b;stop-opacity:1"/><stop offset="0.5" style="stop-color:#2e2e2e;stop-opacity:1"/><stop offset="1" style="stop-color:#292929;stop-opacity:1"/></linearGradient><linearGradient id="_Linear2" x1="0" y1="0" x2="1" y2="0" gradientUnits="userSpaceOnUse" gradientTransform="matrix(2.99186e-13,4886.08,-4886.08,2.99186e-13,4012.5,-193.048)"><stop offset="0" style="stop-color:#535353;stop-opacity:1"/><stop offset="0.5" style="stop-color:#3a3a3a;stop-opacity:1"/><stop offset="1" style="stop-color:#323232;stop-opacity:1"/></linearGradient></defs></svg>