<?xml version="1.0" encoding="UTF-8" standalone="no"?>
<!DOCTYPE svg PUBLIC "-//W3C//DTD SVG 1.1//EN" "http://www.w3.org/Graphics/SVG/1.1/DTD/svg11.dtd">
<svg width="100%" height="100%" viewBox="0 0 1280 550" version="1.1" xmlns="http://www.w3.org/2000/svg" xmlns:xlink="http://www.w3.org/1999/xlink" xml:space="preserve" xmlns:serif="http://www.serif.com/" style="fill-rule:evenodd;clip-rule:evenodd;stroke-linejoin:round;stroke-miterlimit:2;">
    <g transform="matrix(1,0,0,1,0,-47.1506)">
        <g transform="matrix(1,0,0,1,-356.93,10.1576)">
            <text x="567.877px" y="446.033px" style="font-family:'RubikRoman-Bold', 'Rubik';font-weight:300;font-size:50px;fill:url(#_Linear1);">J<tspan x="603.027px 634.327px 682.727px 714.527px 742.377px 757.227px 774.627px 791.677px 825.277px 847.727px 881.477px 897.127px 919.577px 935.227px 965.627px 997.427px 1013.43px 1049.23px 1064.88px 1096.03px 1138.68px 1156.08px 1190.18px 1220.58px 1254.13px 1269.88px 1285.53px 1316.83px 1347.88px 1370.33px 1402.73px " y="446.033px 446.033px 446.033px 446.033px 446.033px 446.033px 446.033px 446.033px 446.033px 446.033px 446.033px 446.033px 446.033px 446.033px 446.033px 446.033px 446.033px 446.033px 446.033px 446.033px 446.033px 446.033px 446.033px 446.033px 446.033px 446.033px 446.033px 446.033px 446.033px 446.033px 446.033px ">ames&apos; Intuitive View Explicator</tspan></text>
        </g>
        <g transform="matrix(1,0,0,1,-486.528,96.4294)">
            <g transform="matrix(288,0,0,288,1378.1,283.781)">
                <path d="M0.365,-0.21L0.365,-0.243C0.365,-0.243 0.684,-0.243 0.684,-0.243C0.695,-0.243 0.705,-0.247 0.713,-0.256C0.722,-0.264 0.726,-0.274 0.726,-0.285C0.726,-0.285 0.726,-0.415 0.726,-0.415C0.726,-0.426 0.722,-0.436 0.713,-0.444C0.705,-0.453 0.695,-0.457 0.684,-0.457L0.365,-0.457C0.365,-0.457 0.365,-0.49 0.365,-0.49C0.365,-0.49 0.739,-0.49 0.739,-0.49C0.75,-0.49 0.76,-0.494 0.768,-0.503C0.777,-0.511 0.781,-0.521 0.781,-0.532C0.781,-0.532 0.781,-0.673 0.781,-0.673C0.781,-0.684 0.777,-0.694 0.768,-0.702C0.76,-0.711 0.75,-0.715 0.739,-0.715L0.117,-0.715C0.106,-0.715 0.096,-0.711 0.088,-0.702C0.079,-0.694 0.075,-0.684 0.075,-0.673L0.075,-0.027C0.075,-0.016 0.079,-0.006 0.088,0.002C0.096,0.011 0.106,0.015 0.117,0.015L0.749,0.015C0.76,0.015 0.77,0.011 0.778,0.002C0.787,-0.006 0.791,-0.016 0.791,-0.027L0.791,-0.168C0.791,-0.179 0.787,-0.189 0.778,-0.197C0.77,-0.206 0.76,-0.21 0.749,-0.21L0.365,-0.21ZM0.335,-0.195C0.335,-0.187 0.342,-0.18 0.35,-0.18L0.749,-0.18C0.752,-0.18 0.755,-0.179 0.758,-0.177C0.76,-0.174 0.761,-0.171 0.761,-0.168C0.761,-0.168 0.761,-0.027 0.761,-0.027C0.761,-0.024 0.76,-0.021 0.758,-0.018C0.755,-0.016 0.752,-0.015 0.749,-0.015L0.117,-0.015C0.114,-0.015 0.111,-0.016 0.108,-0.018C0.106,-0.021 0.105,-0.024 0.105,-0.027L0.105,-0.673C0.105,-0.676 0.106,-0.679 0.108,-0.682C0.111,-0.684 0.114,-0.685 0.117,-0.685L0.739,-0.685C0.742,-0.685 0.745,-0.684 0.748,-0.682C0.75,-0.679 0.751,-0.676 0.751,-0.673L0.751,-0.532C0.751,-0.529 0.75,-0.526 0.748,-0.523C0.745,-0.521 0.742,-0.52 0.739,-0.52C0.739,-0.52 0.35,-0.52 0.35,-0.52C0.342,-0.52 0.335,-0.513 0.335,-0.505L0.335,-0.442C0.335,-0.434 0.342,-0.427 0.35,-0.427L0.684,-0.427C0.687,-0.427 0.69,-0.426 0.693,-0.424C0.695,-0.421 0.696,-0.418 0.696,-0.415L0.696,-0.285C0.696,-0.282 0.695,-0.279 0.693,-0.276C0.69,-0.274 0.687,-0.273 0.684,-0.273L0.35,-0.273C0.342,-0.273 0.335,-0.266 0.335,-0.258L0.335,-0.195Z" style="fill:url(#_Linear2);"/>
            </g>
            <g transform="matrix(288,0,0,288,1133.3,283.781)">
                <path d="M0.585,-0.715C0.569,-0.715 0.557,-0.711 0.547,-0.704C0.537,-0.696 0.53,-0.686 0.526,-0.671C0.526,-0.671 0.425,-0.335 0.425,-0.335C0.425,-0.335 0.324,-0.671 0.324,-0.671C0.324,-0.671 0.324,-0.671 0.324,-0.672C0.32,-0.682 0.314,-0.691 0.304,-0.7C0.294,-0.71 0.281,-0.715 0.265,-0.715L0.054,-0.715C0.044,-0.715 0.035,-0.711 0.028,-0.704C0.02,-0.696 0.017,-0.688 0.017,-0.681C0.017,-0.676 0.018,-0.671 0.019,-0.667C0.019,-0.667 0.019,-0.667 0.019,-0.666L0.251,-0.025C0.261,0.001 0.28,0.015 0.309,0.015L0.542,0.015C0.572,0.015 0.591,0 0.601,-0.028C0.601,-0.028 0.831,-0.666 0.831,-0.666C0.831,-0.667 0.831,-0.667 0.831,-0.667C0.832,-0.671 0.833,-0.676 0.833,-0.681C0.833,-0.688 0.83,-0.696 0.822,-0.704C0.815,-0.711 0.806,-0.715 0.796,-0.715L0.585,-0.715ZM0.803,-0.68C0.803,-0.678 0.803,-0.677 0.803,-0.675C0.794,-0.65 0.573,-0.038 0.573,-0.038C0.573,-0.038 0.573,-0.038 0.573,-0.038C0.568,-0.022 0.558,-0.015 0.542,-0.015C0.542,-0.015 0.309,-0.015 0.309,-0.015C0.294,-0.015 0.284,-0.021 0.279,-0.035C0.277,-0.041 0.056,-0.649 0.047,-0.675C0.047,-0.677 0.047,-0.678 0.047,-0.68C0.047,-0.681 0.048,-0.682 0.049,-0.683C0.05,-0.685 0.052,-0.685 0.054,-0.685C0.054,-0.685 0.265,-0.685 0.265,-0.685C0.273,-0.685 0.28,-0.683 0.285,-0.679C0.29,-0.674 0.294,-0.668 0.296,-0.663C0.296,-0.663 0.411,-0.28 0.411,-0.28C0.413,-0.274 0.419,-0.269 0.425,-0.269C0.431,-0.269 0.437,-0.274 0.439,-0.28L0.554,-0.663C0.556,-0.671 0.559,-0.676 0.564,-0.68C0.57,-0.684 0.577,-0.685 0.585,-0.685L0.796,-0.685C0.798,-0.685 0.8,-0.685 0.801,-0.683C0.802,-0.682 0.803,-0.681 0.803,-0.68Z" style="fill:url(#_Linear3);"/>
            </g>
            <g transform="matrix(288,0,0,288,888.496,283.781)">
                <path d="M0.742,-0.48C0.753,-0.48 0.763,-0.484 0.771,-0.493C0.78,-0.501 0.784,-0.511 0.784,-0.522L0.784,-0.673C0.784,-0.684 0.78,-0.694 0.771,-0.702C0.763,-0.711 0.753,-0.715 0.742,-0.715L0.108,-0.715C0.097,-0.715 0.087,-0.711 0.079,-0.702C0.07,-0.694 0.066,-0.684 0.066,-0.673L0.066,-0.522C0.066,-0.511 0.07,-0.501 0.079,-0.493C0.087,-0.484 0.097,-0.48 0.108,-0.48L0.276,-0.48C0.276,-0.48 0.276,-0.22 0.276,-0.22C0.276,-0.22 0.108,-0.22 0.108,-0.22C0.097,-0.22 0.087,-0.216 0.079,-0.207C0.07,-0.199 0.066,-0.189 0.066,-0.178L0.066,-0.027C0.066,-0.016 0.07,-0.006 0.079,0.002C0.087,0.011 0.097,0.015 0.108,0.015L0.742,0.015C0.753,0.015 0.763,0.011 0.771,0.002C0.78,-0.006 0.784,-0.016 0.784,-0.027L0.784,-0.178C0.784,-0.189 0.78,-0.199 0.771,-0.207C0.763,-0.216 0.753,-0.22 0.742,-0.22L0.576,-0.22C0.576,-0.22 0.576,-0.48 0.576,-0.48C0.576,-0.48 0.742,-0.48 0.742,-0.48ZM0.742,-0.51L0.561,-0.51C0.553,-0.51 0.546,-0.503 0.546,-0.495L0.546,-0.205C0.546,-0.197 0.553,-0.19 0.561,-0.19L0.742,-0.19C0.745,-0.19 0.748,-0.189 0.751,-0.187C0.753,-0.184 0.754,-0.181 0.754,-0.178C0.754,-0.178 0.754,-0.027 0.754,-0.027C0.754,-0.024 0.753,-0.021 0.751,-0.018C0.748,-0.016 0.745,-0.015 0.742,-0.015L0.108,-0.015C0.105,-0.015 0.102,-0.016 0.099,-0.018C0.097,-0.021 0.096,-0.024 0.096,-0.027C0.096,-0.027 0.096,-0.178 0.096,-0.178C0.096,-0.181 0.097,-0.184 0.099,-0.187C0.102,-0.189 0.105,-0.19 0.108,-0.19C0.108,-0.19 0.291,-0.19 0.291,-0.19C0.299,-0.19 0.306,-0.197 0.306,-0.205L0.306,-0.495C0.306,-0.503 0.299,-0.51 0.291,-0.51L0.108,-0.51C0.105,-0.51 0.102,-0.511 0.099,-0.513C0.097,-0.516 0.096,-0.519 0.096,-0.522C0.096,-0.522 0.096,-0.673 0.096,-0.673C0.096,-0.676 0.097,-0.679 0.099,-0.682C0.102,-0.684 0.105,-0.685 0.108,-0.685L0.742,-0.685C0.745,-0.685 0.748,-0.684 0.751,-0.682C0.753,-0.679 0.754,-0.676 0.754,-0.673C0.754,-0.673 0.754,-0.522 0.754,-0.522C0.754,-0.519 0.753,-0.516 0.751,-0.513C0.748,-0.511 0.745,-0.51 0.742,-0.51Z" style="fill:url(#_Linear4);"/>
            </g>
            <g transform="matrix(288,0,0,288,643.696,283.781)">
                <path d="M0.783,-0.673C0.783,-0.684 0.779,-0.694 0.77,-0.702C0.762,-0.711 0.752,-0.715 0.741,-0.715L0.133,-0.715C0.122,-0.715 0.112,-0.711 0.104,-0.702C0.095,-0.694 0.091,-0.684 0.091,-0.673L0.091,-0.522C0.091,-0.511 0.095,-0.501 0.104,-0.493C0.112,-0.484 0.122,-0.48 0.133,-0.48L0.483,-0.48C0.483,-0.48 0.483,-0.27 0.483,-0.27C0.483,-0.248 0.476,-0.23 0.461,-0.218C0.445,-0.206 0.423,-0.2 0.396,-0.2C0.352,-0.2 0.325,-0.215 0.314,-0.249C0.314,-0.249 0.314,-0.249 0.314,-0.249C0.307,-0.272 0.293,-0.282 0.275,-0.282L0.049,-0.282C0.039,-0.282 0.03,-0.278 0.023,-0.271C0.016,-0.264 0.012,-0.255 0.012,-0.245C0.012,-0.181 0.044,-0.12 0.108,-0.064C0.108,-0.064 0.108,-0.064 0.108,-0.064C0.139,-0.038 0.18,-0.016 0.232,0C0.282,0.016 0.339,0.025 0.401,0.025C0.516,0.025 0.608,-0.001 0.677,-0.053C0.747,-0.105 0.783,-0.184 0.783,-0.291L0.783,-0.673ZM0.753,-0.673L0.753,-0.291C0.753,-0.195 0.722,-0.123 0.659,-0.076C0.595,-0.028 0.509,-0.005 0.401,-0.005C0.342,-0.005 0.288,-0.012 0.24,-0.027C0.193,-0.042 0.156,-0.062 0.128,-0.086C0.071,-0.135 0.042,-0.188 0.042,-0.245C0.042,-0.247 0.042,-0.249 0.044,-0.25C0.045,-0.252 0.047,-0.252 0.049,-0.252L0.275,-0.252C0.281,-0.252 0.284,-0.248 0.286,-0.241C0.301,-0.195 0.337,-0.17 0.396,-0.17C0.431,-0.17 0.459,-0.179 0.48,-0.196C0.501,-0.213 0.513,-0.238 0.513,-0.27L0.513,-0.495C0.513,-0.503 0.506,-0.51 0.498,-0.51L0.133,-0.51C0.13,-0.51 0.127,-0.511 0.124,-0.513C0.122,-0.516 0.121,-0.519 0.121,-0.522C0.121,-0.522 0.121,-0.673 0.121,-0.673C0.121,-0.676 0.122,-0.679 0.124,-0.682C0.127,-0.684 0.13,-0.685 0.133,-0.685L0.741,-0.685C0.744,-0.685 0.747,-0.684 0.75,-0.682C0.752,-0.679 0.753,-0.676 0.753,-0.673Z" style="fill:url(#_Linear5);"/>
            </g>
        </g>
    </g>
    <defs>
        <linearGradient id="_Linear1" x1="0" y1="0" x2="1" y2="0" gradientUnits="userSpaceOnUse" gradientTransform="matrix(958.512,291.281,-291.281,958.512,517.674,164.253)"><stop offset="0" style="stop-color:rgb(84,143,237);stop-opacity:1"/><stop offset="1" style="stop-color:rgb(38,112,233);stop-opacity:1"/></linearGradient>
        <linearGradient id="_Linear2" x1="0" y1="0" x2="1" y2="0" gradientUnits="userSpaceOnUse" gradientTransform="matrix(3.32817,1.01139,-1.01139,3.32817,-2.53758,-0.714583)"><stop offset="0" style="stop-color:rgb(84,143,237);stop-opacity:1"/><stop offset="1" style="stop-color:rgb(38,112,233);stop-opacity:1"/></linearGradient>
        <linearGradient id="_Linear3" x1="0" y1="0" x2="1" y2="0" gradientUnits="userSpaceOnUse" gradientTransform="matrix(3.32817,1.01139,-1.01139,3.32817,-1.68758,-0.714583)"><stop offset="0" style="stop-color:rgb(84,143,237);stop-opacity:1"/><stop offset="1" style="stop-color:rgb(38,112,233);stop-opacity:1"/></linearGradient>
        <linearGradient id="_Linear4" x1="0" y1="0" x2="1" y2="0" gradientUnits="userSpaceOnUse" gradientTransform="matrix(3.32817,1.01139,-1.01139,3.32817,-0.837583,-0.714583)"><stop offset="0" style="stop-color:rgb(84,143,237);stop-opacity:1"/><stop offset="1" style="stop-color:rgb(38,112,233);stop-opacity:1"/></linearGradient>
        <linearGradient id="_Linear5" x1="0" y1="0" x2="1" y2="0" gradientUnits="userSpaceOnUse" gradientTransform="matrix(3.32817,1.01139,-1.01139,3.32817,0.0124167,-0.714583)"><stop offset="0" style="stop-color:rgb(84,143,237);stop-opacity:1"/><stop offset="1" style="stop-color:rgb(38,112,233);stop-opacity:1"/></linearGradient>
    </defs>
</svg>
