<?xml version="1.0" encoding="UTF-8" standalone="no"?>
<!DOCTYPE svg PUBLIC "-//W3C//DTD SVG 1.1//EN" "http://www.w3.org/Graphics/SVG/1.1/DTD/svg11.dtd">
<svg width="100%" height="100%" viewBox="0 0 1280 550" version="1.1" xmlns="http://www.w3.org/2000/svg" xmlns:xlink="http://www.w3.org/1999/xlink" xml:space="preserve" xmlns:serif="http://www.serif.com/" style="fill-rule:evenodd;clip-rule:evenodd;stroke-linejoin:round;stroke-miterlimit:2;">
    <g transform="matrix(1,0,0,1,0,-47.1506)">
        <g transform="matrix(1,0,0,1,-356.93,10.1576)">
            <g transform="matrix(50,0,0,50,567.877,446.033)">
                <path d="M0.312,0.01C0.274,0.01 0.238,0.005 0.204,-0.005C0.17,-0.014 0.139,-0.029 0.112,-0.048C0.085,-0.067 0.064,-0.091 0.048,-0.12C0.032,-0.149 0.024,-0.182 0.023,-0.22C0.023,-0.226 0.025,-0.231 0.029,-0.235C0.033,-0.239 0.039,-0.242 0.045,-0.242L0.18,-0.242C0.189,-0.242 0.197,-0.239 0.202,-0.235C0.206,-0.23 0.21,-0.223 0.214,-0.214C0.218,-0.195 0.224,-0.18 0.233,-0.169C0.243,-0.157 0.255,-0.148 0.269,-0.143C0.283,-0.137 0.299,-0.134 0.317,-0.134C0.351,-0.134 0.376,-0.145 0.394,-0.167C0.412,-0.189 0.421,-0.22 0.421,-0.262L0.421,-0.551L0.097,-0.551C0.09,-0.551 0.084,-0.553 0.08,-0.558C0.075,-0.563 0.072,-0.569 0.072,-0.576L0.072,-0.675C0.072,-0.682 0.075,-0.688 0.08,-0.693C0.084,-0.698 0.09,-0.7 0.097,-0.7L0.581,-0.7C0.589,-0.7 0.595,-0.698 0.6,-0.693C0.604,-0.688 0.607,-0.682 0.607,-0.675L0.607,-0.257C0.607,-0.199 0.594,-0.15 0.569,-0.11C0.544,-0.071 0.509,-0.041 0.465,-0.02C0.421,-0 0.37,0.01 0.312,0.01Z" style="fill:rgb(35,127,243);fill-rule:nonzero;"/>
            </g>
            <g transform="matrix(50,0,0,50,603.027,446.033)">
                <path d="M0.215,0.01C0.179,0.01 0.147,0.003 0.118,-0.011C0.09,-0.024 0.068,-0.043 0.051,-0.066C0.035,-0.09 0.026,-0.116 0.026,-0.145C0.026,-0.193 0.046,-0.23 0.084,-0.258C0.123,-0.285 0.174,-0.304 0.238,-0.314L0.363,-0.333L0.363,-0.347C0.363,-0.371 0.358,-0.389 0.348,-0.402C0.338,-0.414 0.32,-0.421 0.293,-0.421C0.274,-0.421 0.259,-0.417 0.248,-0.41C0.236,-0.402 0.227,-0.392 0.22,-0.38C0.214,-0.372 0.206,-0.367 0.195,-0.367L0.083,-0.367C0.076,-0.367 0.07,-0.369 0.066,-0.374C0.062,-0.378 0.06,-0.383 0.061,-0.389C0.061,-0.401 0.066,-0.414 0.075,-0.43C0.084,-0.446 0.097,-0.462 0.116,-0.477C0.135,-0.492 0.159,-0.505 0.188,-0.515C0.217,-0.525 0.253,-0.53 0.295,-0.53C0.338,-0.53 0.374,-0.525 0.405,-0.515C0.436,-0.505 0.461,-0.491 0.48,-0.473C0.499,-0.455 0.513,-0.434 0.522,-0.409C0.531,-0.385 0.536,-0.358 0.536,-0.329L0.536,-0.025C0.536,-0.018 0.533,-0.012 0.529,-0.007C0.524,-0.002 0.518,-0 0.511,-0L0.395,-0C0.388,-0 0.382,-0.002 0.377,-0.007C0.372,-0.012 0.37,-0.018 0.37,-0.025L0.37,-0.06C0.361,-0.047 0.349,-0.036 0.335,-0.025C0.32,-0.015 0.303,-0.006 0.283,0C0.264,0.007 0.241,0.01 0.215,0.01ZM0.262,-0.104C0.281,-0.104 0.299,-0.108 0.315,-0.117C0.33,-0.125 0.342,-0.138 0.351,-0.156C0.36,-0.173 0.365,-0.196 0.365,-0.222L0.365,-0.236L0.28,-0.221C0.248,-0.215 0.226,-0.207 0.211,-0.196C0.197,-0.185 0.19,-0.173 0.19,-0.158C0.19,-0.147 0.193,-0.137 0.2,-0.129C0.206,-0.121 0.215,-0.115 0.226,-0.111C0.237,-0.106 0.249,-0.104 0.262,-0.104Z" style="fill:rgb(35,127,243);fill-rule:nonzero;"/>
            </g>
            <g transform="matrix(50,0,0,50,634.327,446.033)">
                <path d="M0.084,-0C0.077,-0 0.071,-0.002 0.066,-0.007C0.061,-0.012 0.059,-0.018 0.059,-0.025L0.059,-0.495C0.059,-0.502 0.061,-0.508 0.066,-0.513C0.071,-0.518 0.077,-0.52 0.084,-0.52L0.193,-0.52C0.2,-0.52 0.206,-0.518 0.211,-0.513C0.216,-0.508 0.218,-0.502 0.218,-0.495L0.218,-0.461C0.232,-0.479 0.25,-0.494 0.274,-0.508C0.298,-0.522 0.326,-0.529 0.359,-0.53C0.436,-0.532 0.489,-0.503 0.518,-0.444C0.533,-0.469 0.555,-0.49 0.583,-0.506C0.612,-0.522 0.643,-0.53 0.677,-0.53C0.711,-0.53 0.743,-0.522 0.771,-0.506C0.798,-0.491 0.821,-0.467 0.837,-0.434C0.854,-0.402 0.862,-0.36 0.862,-0.309L0.862,-0.025C0.862,-0.018 0.86,-0.012 0.855,-0.007C0.85,-0.002 0.844,-0 0.837,-0L0.721,-0C0.713,-0 0.707,-0.002 0.703,-0.007C0.698,-0.012 0.695,-0.018 0.695,-0.025L0.695,-0.302C0.695,-0.326 0.692,-0.344 0.685,-0.358C0.678,-0.371 0.669,-0.381 0.658,-0.387C0.647,-0.393 0.634,-0.396 0.619,-0.396C0.607,-0.396 0.595,-0.393 0.583,-0.387C0.572,-0.381 0.563,-0.371 0.556,-0.358C0.549,-0.344 0.545,-0.326 0.545,-0.302L0.545,-0.025C0.545,-0.018 0.543,-0.012 0.538,-0.007C0.533,-0.002 0.527,-0 0.52,-0L0.404,-0C0.397,-0 0.391,-0.002 0.386,-0.007C0.381,-0.012 0.379,-0.018 0.379,-0.025L0.379,-0.302C0.379,-0.326 0.375,-0.344 0.368,-0.358C0.361,-0.371 0.352,-0.381 0.34,-0.387C0.329,-0.393 0.316,-0.396 0.303,-0.396C0.29,-0.396 0.278,-0.393 0.267,-0.387C0.255,-0.381 0.246,-0.371 0.238,-0.357C0.231,-0.344 0.228,-0.326 0.228,-0.303L0.228,-0.025C0.228,-0.018 0.225,-0.012 0.22,-0.007C0.216,-0.002 0.21,-0 0.203,-0L0.084,-0Z" style="fill:rgb(35,127,243);fill-rule:nonzero;"/>
            </g>
            <g transform="matrix(50,0,0,50,682.727,446.033)">
                <path d="M0.299,0.01C0.22,0.01 0.157,-0.011 0.111,-0.054C0.064,-0.097 0.04,-0.16 0.038,-0.244C0.038,-0.249 0.038,-0.255 0.038,-0.262C0.038,-0.269 0.038,-0.275 0.038,-0.279C0.04,-0.332 0.052,-0.377 0.074,-0.414C0.095,-0.452 0.125,-0.481 0.163,-0.5C0.202,-0.52 0.247,-0.53 0.298,-0.53C0.357,-0.53 0.405,-0.518 0.444,-0.495C0.482,-0.472 0.511,-0.44 0.53,-0.4C0.55,-0.36 0.559,-0.314 0.559,-0.263L0.559,-0.239C0.559,-0.232 0.557,-0.226 0.552,-0.221C0.547,-0.216 0.541,-0.214 0.534,-0.214L0.214,-0.214L0.214,-0.207C0.215,-0.187 0.218,-0.17 0.224,-0.154C0.23,-0.138 0.24,-0.126 0.252,-0.116C0.265,-0.107 0.28,-0.102 0.298,-0.102C0.311,-0.102 0.322,-0.104 0.331,-0.109C0.34,-0.113 0.348,-0.118 0.354,-0.123C0.36,-0.129 0.365,-0.134 0.368,-0.138C0.374,-0.145 0.379,-0.149 0.383,-0.151C0.386,-0.153 0.392,-0.154 0.4,-0.154L0.524,-0.154C0.53,-0.154 0.536,-0.152 0.54,-0.148C0.544,-0.144 0.546,-0.139 0.546,-0.132C0.545,-0.121 0.539,-0.107 0.529,-0.091C0.518,-0.075 0.503,-0.059 0.483,-0.044C0.462,-0.028 0.437,-0.015 0.406,-0.005C0.375,0.005 0.339,0.01 0.299,0.01ZM0.214,-0.313L0.383,-0.313L0.383,-0.315C0.383,-0.337 0.38,-0.355 0.373,-0.371C0.367,-0.387 0.357,-0.399 0.344,-0.408C0.332,-0.416 0.316,-0.421 0.298,-0.421C0.28,-0.421 0.265,-0.416 0.253,-0.408C0.24,-0.399 0.23,-0.387 0.224,-0.371C0.217,-0.355 0.214,-0.337 0.214,-0.315L0.214,-0.313Z" style="fill:rgb(35,127,243);fill-rule:nonzero;"/>
            </g>
            <g transform="matrix(50,0,0,50,714.527,446.033)">
                <path d="M0.273,0.01C0.23,0.01 0.193,0.005 0.163,-0.004C0.132,-0.014 0.108,-0.026 0.088,-0.04C0.069,-0.054 0.055,-0.069 0.046,-0.084C0.037,-0.099 0.032,-0.112 0.031,-0.123C0.031,-0.13 0.033,-0.136 0.038,-0.141C0.043,-0.145 0.049,-0.148 0.055,-0.148L0.169,-0.148C0.171,-0.148 0.173,-0.147 0.174,-0.147C0.176,-0.146 0.178,-0.145 0.18,-0.143C0.188,-0.138 0.197,-0.132 0.206,-0.125C0.214,-0.118 0.224,-0.112 0.236,-0.107C0.247,-0.102 0.261,-0.099 0.277,-0.099C0.296,-0.099 0.311,-0.103 0.324,-0.11C0.337,-0.118 0.343,-0.129 0.343,-0.143C0.343,-0.154 0.34,-0.162 0.334,-0.17C0.328,-0.177 0.316,-0.184 0.298,-0.19C0.279,-0.196 0.252,-0.203 0.215,-0.21C0.18,-0.218 0.15,-0.228 0.124,-0.241C0.098,-0.255 0.078,-0.272 0.064,-0.293C0.05,-0.314 0.043,-0.339 0.043,-0.369C0.043,-0.395 0.052,-0.421 0.069,-0.446C0.086,-0.47 0.111,-0.491 0.145,-0.506C0.178,-0.522 0.219,-0.53 0.269,-0.53C0.307,-0.53 0.34,-0.525 0.369,-0.516C0.397,-0.507 0.421,-0.496 0.441,-0.482C0.46,-0.468 0.475,-0.454 0.485,-0.439C0.495,-0.424 0.501,-0.411 0.501,-0.399C0.502,-0.392 0.5,-0.386 0.495,-0.382C0.491,-0.377 0.485,-0.374 0.479,-0.374L0.375,-0.374C0.372,-0.374 0.369,-0.375 0.367,-0.376C0.364,-0.376 0.362,-0.378 0.36,-0.379C0.352,-0.383 0.344,-0.388 0.336,-0.395C0.328,-0.402 0.318,-0.408 0.308,-0.413C0.297,-0.418 0.284,-0.421 0.268,-0.421C0.25,-0.421 0.236,-0.417 0.226,-0.409C0.216,-0.401 0.211,-0.391 0.211,-0.378C0.211,-0.369 0.214,-0.361 0.219,-0.354C0.225,-0.347 0.237,-0.34 0.254,-0.334C0.272,-0.328 0.3,-0.321 0.337,-0.314C0.383,-0.307 0.42,-0.295 0.447,-0.278C0.474,-0.262 0.494,-0.243 0.505,-0.221C0.517,-0.2 0.523,-0.177 0.523,-0.153C0.523,-0.121 0.513,-0.093 0.494,-0.068C0.475,-0.043 0.446,-0.024 0.409,-0.011C0.372,0.003 0.327,0.01 0.273,0.01Z" style="fill:rgb(35,127,243);fill-rule:nonzero;"/>
            </g>
            <g transform="matrix(50,0,0,50,742.377,446.033)">
                <path d="M0.092,-0.446C0.082,-0.446 0.075,-0.448 0.071,-0.454C0.067,-0.459 0.065,-0.466 0.064,-0.473L0.041,-0.68C0.04,-0.689 0.042,-0.697 0.047,-0.702C0.051,-0.707 0.057,-0.71 0.065,-0.71L0.177,-0.71C0.185,-0.71 0.192,-0.707 0.196,-0.702C0.201,-0.697 0.202,-0.689 0.201,-0.68L0.179,-0.473C0.178,-0.466 0.176,-0.459 0.172,-0.454C0.168,-0.448 0.161,-0.446 0.151,-0.446L0.092,-0.446Z" style="fill:rgb(35,127,243);fill-rule:nonzero;"/>
            </g>
            <g transform="matrix(50,0,0,50,774.627,446.033)">
                <path d="M0.095,-0C0.088,-0 0.082,-0.002 0.077,-0.007C0.072,-0.012 0.07,-0.018 0.07,-0.025L0.07,-0.675C0.07,-0.682 0.072,-0.688 0.077,-0.693C0.082,-0.698 0.088,-0.7 0.095,-0.7L0.229,-0.7C0.236,-0.7 0.242,-0.698 0.247,-0.693C0.252,-0.688 0.255,-0.682 0.255,-0.675L0.255,-0.025C0.255,-0.018 0.252,-0.012 0.247,-0.007C0.242,-0.002 0.236,-0 0.229,-0L0.095,-0Z" style="fill:rgb(35,127,243);fill-rule:nonzero;"/>
            </g>
            <g transform="matrix(50,0,0,50,791.677,446.033)">
                <path d="M0.084,-0C0.077,-0 0.071,-0.002 0.066,-0.007C0.061,-0.012 0.059,-0.018 0.059,-0.025L0.059,-0.495C0.059,-0.502 0.061,-0.508 0.066,-0.513C0.071,-0.518 0.077,-0.52 0.084,-0.52L0.199,-0.52C0.206,-0.52 0.212,-0.518 0.217,-0.513C0.222,-0.508 0.225,-0.502 0.225,-0.495L0.225,-0.457C0.242,-0.477 0.264,-0.495 0.292,-0.509C0.32,-0.523 0.353,-0.53 0.391,-0.53C0.43,-0.53 0.463,-0.521 0.493,-0.504C0.523,-0.487 0.546,-0.461 0.563,-0.428C0.58,-0.394 0.589,-0.353 0.589,-0.304L0.589,-0.025C0.589,-0.018 0.587,-0.012 0.582,-0.007C0.577,-0.002 0.571,-0 0.564,-0L0.438,-0C0.431,-0 0.425,-0.002 0.42,-0.007C0.415,-0.012 0.413,-0.018 0.413,-0.025L0.413,-0.298C0.413,-0.329 0.405,-0.353 0.39,-0.371C0.375,-0.388 0.353,-0.396 0.324,-0.396C0.297,-0.396 0.275,-0.388 0.258,-0.371C0.242,-0.353 0.234,-0.329 0.234,-0.298L0.234,-0.025C0.234,-0.018 0.231,-0.012 0.227,-0.007C0.222,-0.002 0.216,-0 0.209,-0L0.084,-0Z" style="fill:rgb(35,127,243);fill-rule:nonzero;"/>
            </g>
            <g transform="matrix(50,0,0,50,825.277,446.033)">
                <path d="M0.325,-0C0.282,-0 0.245,-0.007 0.214,-0.02C0.183,-0.034 0.159,-0.055 0.143,-0.085C0.126,-0.114 0.118,-0.151 0.118,-0.197L0.118,-0.389L0.04,-0.389C0.032,-0.389 0.026,-0.391 0.022,-0.396C0.017,-0.401 0.014,-0.407 0.014,-0.414L0.014,-0.495C0.014,-0.502 0.017,-0.508 0.022,-0.513C0.026,-0.518 0.032,-0.52 0.04,-0.52L0.118,-0.52L0.118,-0.685C0.118,-0.692 0.121,-0.698 0.125,-0.703C0.13,-0.708 0.136,-0.71 0.143,-0.71L0.259,-0.71C0.266,-0.71 0.272,-0.708 0.277,-0.703C0.282,-0.698 0.284,-0.692 0.284,-0.685L0.284,-0.52L0.409,-0.52C0.416,-0.52 0.422,-0.518 0.427,-0.513C0.432,-0.508 0.435,-0.502 0.435,-0.495L0.435,-0.414C0.435,-0.407 0.432,-0.401 0.427,-0.396C0.422,-0.391 0.416,-0.389 0.409,-0.389L0.284,-0.389L0.284,-0.211C0.284,-0.188 0.289,-0.17 0.297,-0.157C0.306,-0.144 0.321,-0.137 0.341,-0.137L0.418,-0.137C0.425,-0.137 0.431,-0.135 0.436,-0.13C0.441,-0.125 0.443,-0.119 0.443,-0.112L0.443,-0.025C0.443,-0.018 0.441,-0.012 0.436,-0.007C0.431,-0.002 0.425,-0 0.418,-0L0.325,-0Z" style="fill:rgb(35,127,243);fill-rule:nonzero;"/>
            </g>
            <g transform="matrix(50,0,0,50,847.727,446.033)">
                <path d="M0.25,0.01C0.212,0.01 0.178,0.001 0.149,-0.016C0.119,-0.033 0.096,-0.059 0.079,-0.093C0.062,-0.126 0.054,-0.167 0.054,-0.216L0.054,-0.495C0.054,-0.502 0.056,-0.508 0.061,-0.513C0.066,-0.518 0.072,-0.52 0.079,-0.52L0.204,-0.52C0.211,-0.52 0.217,-0.518 0.222,-0.513C0.227,-0.508 0.23,-0.502 0.23,-0.495L0.23,-0.222C0.23,-0.156 0.259,-0.124 0.317,-0.124C0.344,-0.124 0.366,-0.132 0.383,-0.149C0.399,-0.167 0.407,-0.191 0.407,-0.222L0.407,-0.495C0.407,-0.502 0.409,-0.508 0.414,-0.513C0.419,-0.518 0.425,-0.52 0.432,-0.52L0.557,-0.52C0.564,-0.52 0.57,-0.518 0.575,-0.513C0.58,-0.508 0.582,-0.502 0.582,-0.495L0.582,-0.025C0.582,-0.018 0.58,-0.012 0.575,-0.007C0.57,-0.002 0.564,-0 0.557,-0L0.441,-0C0.434,-0 0.428,-0.002 0.423,-0.007C0.419,-0.012 0.416,-0.018 0.416,-0.025L0.416,-0.063C0.399,-0.039 0.377,-0.021 0.349,-0.009C0.321,0.004 0.288,0.01 0.25,0.01Z" style="fill:rgb(35,127,243);fill-rule:nonzero;"/>
            </g>
            <g transform="matrix(50,0,0,50,881.477,446.033)">
                <path d="M0.084,-0C0.077,-0 0.071,-0.002 0.066,-0.007C0.061,-0.012 0.059,-0.018 0.059,-0.025L0.059,-0.495C0.059,-0.502 0.061,-0.508 0.066,-0.513C0.071,-0.518 0.077,-0.52 0.084,-0.52L0.202,-0.52C0.209,-0.52 0.215,-0.518 0.22,-0.513C0.225,-0.508 0.227,-0.502 0.227,-0.495L0.227,-0.025C0.227,-0.018 0.225,-0.012 0.22,-0.007C0.215,-0.002 0.209,-0 0.202,-0L0.084,-0ZM0.083,-0.595C0.076,-0.595 0.07,-0.597 0.065,-0.602C0.06,-0.607 0.058,-0.613 0.058,-0.62L0.058,-0.71C0.058,-0.717 0.06,-0.723 0.065,-0.728C0.07,-0.733 0.076,-0.735 0.083,-0.735L0.203,-0.735C0.21,-0.735 0.216,-0.733 0.221,-0.728C0.226,-0.723 0.228,-0.717 0.228,-0.71L0.228,-0.62C0.228,-0.613 0.226,-0.607 0.221,-0.602C0.216,-0.597 0.21,-0.595 0.203,-0.595L0.083,-0.595Z" style="fill:rgb(35,127,243);fill-rule:nonzero;"/>
            </g>
            <g transform="matrix(50,0,0,50,897.127,446.033)">
                <path d="M0.325,-0C0.282,-0 0.245,-0.007 0.214,-0.02C0.183,-0.034 0.159,-0.055 0.143,-0.085C0.126,-0.114 0.118,-0.151 0.118,-0.197L0.118,-0.389L0.04,-0.389C0.032,-0.389 0.026,-0.391 0.022,-0.396C0.017,-0.401 0.014,-0.407 0.014,-0.414L0.014,-0.495C0.014,-0.502 0.017,-0.508 0.022,-0.513C0.026,-0.518 0.032,-0.52 0.04,-0.52L0.118,-0.52L0.118,-0.685C0.118,-0.692 0.121,-0.698 0.125,-0.703C0.13,-0.708 0.136,-0.71 0.143,-0.71L0.259,-0.71C0.266,-0.71 0.272,-0.708 0.277,-0.703C0.282,-0.698 0.284,-0.692 0.284,-0.685L0.284,-0.52L0.409,-0.52C0.416,-0.52 0.422,-0.518 0.427,-0.513C0.432,-0.508 0.435,-0.502 0.435,-0.495L0.435,-0.414C0.435,-0.407 0.432,-0.401 0.427,-0.396C0.422,-0.391 0.416,-0.389 0.409,-0.389L0.284,-0.389L0.284,-0.211C0.284,-0.188 0.289,-0.17 0.297,-0.157C0.306,-0.144 0.321,-0.137 0.341,-0.137L0.418,-0.137C0.425,-0.137 0.431,-0.135 0.436,-0.13C0.441,-0.125 0.443,-0.119 0.443,-0.112L0.443,-0.025C0.443,-0.018 0.441,-0.012 0.436,-0.007C0.431,-0.002 0.425,-0 0.418,-0L0.325,-0Z" style="fill:rgb(35,127,243);fill-rule:nonzero;"/>
            </g>
            <g transform="matrix(50,0,0,50,919.577,446.033)">
                <path d="M0.084,-0C0.077,-0 0.071,-0.002 0.066,-0.007C0.061,-0.012 0.059,-0.018 0.059,-0.025L0.059,-0.495C0.059,-0.502 0.061,-0.508 0.066,-0.513C0.071,-0.518 0.077,-0.52 0.084,-0.52L0.202,-0.52C0.209,-0.52 0.215,-0.518 0.22,-0.513C0.225,-0.508 0.227,-0.502 0.227,-0.495L0.227,-0.025C0.227,-0.018 0.225,-0.012 0.22,-0.007C0.215,-0.002 0.209,-0 0.202,-0L0.084,-0ZM0.083,-0.595C0.076,-0.595 0.07,-0.597 0.065,-0.602C0.06,-0.607 0.058,-0.613 0.058,-0.62L0.058,-0.71C0.058,-0.717 0.06,-0.723 0.065,-0.728C0.07,-0.733 0.076,-0.735 0.083,-0.735L0.203,-0.735C0.21,-0.735 0.216,-0.733 0.221,-0.728C0.226,-0.723 0.228,-0.717 0.228,-0.71L0.228,-0.62C0.228,-0.613 0.226,-0.607 0.221,-0.602C0.216,-0.597 0.21,-0.595 0.203,-0.595L0.083,-0.595Z" style="fill:rgb(35,127,243);fill-rule:nonzero;"/>
            </g>
            <g transform="matrix(50,0,0,50,935.227,446.033)">
                <path d="M0.244,-0C0.234,-0 0.227,-0.003 0.222,-0.008C0.217,-0.013 0.213,-0.019 0.21,-0.025L0.021,-0.489C0.02,-0.492 0.019,-0.495 0.019,-0.498C0.019,-0.504 0.021,-0.509 0.026,-0.513C0.03,-0.518 0.035,-0.52 0.042,-0.52L0.155,-0.52C0.164,-0.52 0.171,-0.518 0.175,-0.513C0.18,-0.508 0.183,-0.504 0.184,-0.499L0.297,-0.192L0.411,-0.499C0.413,-0.504 0.416,-0.508 0.42,-0.513C0.424,-0.518 0.431,-0.52 0.44,-0.52L0.553,-0.52C0.559,-0.52 0.565,-0.518 0.569,-0.513C0.573,-0.509 0.576,-0.504 0.576,-0.498C0.576,-0.495 0.575,-0.492 0.574,-0.489L0.385,-0.025C0.383,-0.019 0.379,-0.013 0.374,-0.008C0.368,-0.003 0.361,-0 0.35,-0L0.244,-0Z" style="fill:rgb(35,127,243);fill-rule:nonzero;"/>
            </g>
            <g transform="matrix(50,0,0,50,965.627,446.033)">
                <path d="M0.299,0.01C0.22,0.01 0.157,-0.011 0.111,-0.054C0.064,-0.097 0.04,-0.16 0.038,-0.244C0.038,-0.249 0.038,-0.255 0.038,-0.262C0.038,-0.269 0.038,-0.275 0.038,-0.279C0.04,-0.332 0.052,-0.377 0.074,-0.414C0.095,-0.452 0.125,-0.481 0.163,-0.5C0.202,-0.52 0.247,-0.53 0.298,-0.53C0.357,-0.53 0.405,-0.518 0.444,-0.495C0.482,-0.472 0.511,-0.44 0.53,-0.4C0.55,-0.36 0.559,-0.314 0.559,-0.263L0.559,-0.239C0.559,-0.232 0.557,-0.226 0.552,-0.221C0.547,-0.216 0.541,-0.214 0.534,-0.214L0.214,-0.214L0.214,-0.207C0.215,-0.187 0.218,-0.17 0.224,-0.154C0.23,-0.138 0.24,-0.126 0.252,-0.116C0.265,-0.107 0.28,-0.102 0.298,-0.102C0.311,-0.102 0.322,-0.104 0.331,-0.109C0.34,-0.113 0.348,-0.118 0.354,-0.123C0.36,-0.129 0.365,-0.134 0.368,-0.138C0.374,-0.145 0.379,-0.149 0.383,-0.151C0.386,-0.153 0.392,-0.154 0.4,-0.154L0.524,-0.154C0.53,-0.154 0.536,-0.152 0.54,-0.148C0.544,-0.144 0.546,-0.139 0.546,-0.132C0.545,-0.121 0.539,-0.107 0.529,-0.091C0.518,-0.075 0.503,-0.059 0.483,-0.044C0.462,-0.028 0.437,-0.015 0.406,-0.005C0.375,0.005 0.339,0.01 0.299,0.01ZM0.214,-0.313L0.383,-0.313L0.383,-0.315C0.383,-0.337 0.38,-0.355 0.373,-0.371C0.367,-0.387 0.357,-0.399 0.344,-0.408C0.332,-0.416 0.316,-0.421 0.298,-0.421C0.28,-0.421 0.265,-0.416 0.253,-0.408C0.24,-0.399 0.23,-0.387 0.224,-0.371C0.217,-0.355 0.214,-0.337 0.214,-0.315L0.214,-0.313Z" style="fill:rgb(35,127,243);fill-rule:nonzero;"/>
            </g>
            <g transform="matrix(50,0,0,50,1013.43,446.033)">
                <path d="M0.27,-0C0.258,-0 0.249,-0.003 0.243,-0.009C0.236,-0.015 0.232,-0.022 0.229,-0.03L0.025,-0.67C0.024,-0.673 0.023,-0.676 0.023,-0.679C0.023,-0.685 0.025,-0.689 0.03,-0.694C0.034,-0.698 0.039,-0.7 0.045,-0.7L0.169,-0.7C0.179,-0.7 0.188,-0.697 0.194,-0.691C0.2,-0.685 0.204,-0.679 0.205,-0.674L0.347,-0.212L0.488,-0.674C0.49,-0.679 0.494,-0.685 0.499,-0.691C0.505,-0.697 0.514,-0.7 0.524,-0.7L0.649,-0.7C0.654,-0.7 0.659,-0.698 0.663,-0.694C0.668,-0.689 0.67,-0.685 0.67,-0.679C0.67,-0.676 0.669,-0.673 0.668,-0.67L0.464,-0.03C0.462,-0.022 0.457,-0.015 0.451,-0.009C0.444,-0.003 0.435,-0 0.423,-0L0.27,-0Z" style="fill:rgb(35,127,243);fill-rule:nonzero;"/>
            </g>
            <g transform="matrix(50,0,0,50,1049.23,446.033)">
                <path d="M0.084,-0C0.077,-0 0.071,-0.002 0.066,-0.007C0.061,-0.012 0.059,-0.018 0.059,-0.025L0.059,-0.495C0.059,-0.502 0.061,-0.508 0.066,-0.513C0.071,-0.518 0.077,-0.52 0.084,-0.52L0.202,-0.52C0.209,-0.52 0.215,-0.518 0.22,-0.513C0.225,-0.508 0.227,-0.502 0.227,-0.495L0.227,-0.025C0.227,-0.018 0.225,-0.012 0.22,-0.007C0.215,-0.002 0.209,-0 0.202,-0L0.084,-0ZM0.083,-0.595C0.076,-0.595 0.07,-0.597 0.065,-0.602C0.06,-0.607 0.058,-0.613 0.058,-0.62L0.058,-0.71C0.058,-0.717 0.06,-0.723 0.065,-0.728C0.07,-0.733 0.076,-0.735 0.083,-0.735L0.203,-0.735C0.21,-0.735 0.216,-0.733 0.221,-0.728C0.226,-0.723 0.228,-0.717 0.228,-0.71L0.228,-0.62C0.228,-0.613 0.226,-0.607 0.221,-0.602C0.216,-0.597 0.21,-0.595 0.203,-0.595L0.083,-0.595Z" style="fill:rgb(35,127,243);fill-rule:nonzero;"/>
            </g>
            <g transform="matrix(50,0,0,50,1064.88,446.033)">
                <path d="M0.299,0.01C0.22,0.01 0.157,-0.011 0.111,-0.054C0.064,-0.097 0.04,-0.16 0.038,-0.244C0.038,-0.249 0.038,-0.255 0.038,-0.262C0.038,-0.269 0.038,-0.275 0.038,-0.279C0.04,-0.332 0.052,-0.377 0.074,-0.414C0.095,-0.452 0.125,-0.481 0.163,-0.5C0.202,-0.52 0.247,-0.53 0.298,-0.53C0.357,-0.53 0.405,-0.518 0.444,-0.495C0.482,-0.472 0.511,-0.44 0.53,-0.4C0.55,-0.36 0.559,-0.314 0.559,-0.263L0.559,-0.239C0.559,-0.232 0.557,-0.226 0.552,-0.221C0.547,-0.216 0.541,-0.214 0.534,-0.214L0.214,-0.214L0.214,-0.207C0.215,-0.187 0.218,-0.17 0.224,-0.154C0.23,-0.138 0.24,-0.126 0.252,-0.116C0.265,-0.107 0.28,-0.102 0.298,-0.102C0.311,-0.102 0.322,-0.104 0.331,-0.109C0.34,-0.113 0.348,-0.118 0.354,-0.123C0.36,-0.129 0.365,-0.134 0.368,-0.138C0.374,-0.145 0.379,-0.149 0.383,-0.151C0.386,-0.153 0.392,-0.154 0.4,-0.154L0.524,-0.154C0.53,-0.154 0.536,-0.152 0.54,-0.148C0.544,-0.144 0.546,-0.139 0.546,-0.132C0.545,-0.121 0.539,-0.107 0.529,-0.091C0.518,-0.075 0.503,-0.059 0.483,-0.044C0.462,-0.028 0.437,-0.015 0.406,-0.005C0.375,0.005 0.339,0.01 0.299,0.01ZM0.214,-0.313L0.383,-0.313L0.383,-0.315C0.383,-0.337 0.38,-0.355 0.373,-0.371C0.367,-0.387 0.357,-0.399 0.344,-0.408C0.332,-0.416 0.316,-0.421 0.298,-0.421C0.28,-0.421 0.265,-0.416 0.253,-0.408C0.24,-0.399 0.23,-0.387 0.224,-0.371C0.217,-0.355 0.214,-0.337 0.214,-0.315L0.214,-0.313Z" style="fill:rgb(35,127,243);fill-rule:nonzero;"/>
            </g>
            <g transform="matrix(50,0,0,50,1096.03,446.033)">
                <path d="M0.204,-0C0.194,-0 0.187,-0.002 0.182,-0.007C0.177,-0.012 0.173,-0.018 0.171,-0.025L0.027,-0.488C0.026,-0.492 0.025,-0.495 0.025,-0.498C0.025,-0.504 0.028,-0.509 0.032,-0.513C0.036,-0.518 0.042,-0.52 0.048,-0.52L0.151,-0.52C0.16,-0.52 0.167,-0.518 0.172,-0.513C0.177,-0.508 0.18,-0.504 0.181,-0.499L0.265,-0.213L0.355,-0.498C0.356,-0.502 0.359,-0.507 0.364,-0.512C0.369,-0.517 0.377,-0.52 0.386,-0.52L0.452,-0.52C0.461,-0.52 0.469,-0.517 0.474,-0.512C0.479,-0.507 0.482,-0.502 0.483,-0.498L0.573,-0.213L0.657,-0.499C0.658,-0.504 0.661,-0.508 0.666,-0.513C0.671,-0.518 0.678,-0.52 0.687,-0.52L0.79,-0.52C0.796,-0.52 0.801,-0.518 0.806,-0.513C0.81,-0.509 0.813,-0.504 0.813,-0.498C0.813,-0.495 0.812,-0.492 0.811,-0.488L0.667,-0.025C0.665,-0.018 0.661,-0.012 0.656,-0.007C0.651,-0.002 0.644,-0 0.634,-0L0.544,-0C0.535,-0 0.527,-0.002 0.522,-0.007C0.517,-0.012 0.513,-0.018 0.511,-0.025L0.419,-0.299L0.327,-0.025C0.325,-0.018 0.321,-0.012 0.316,-0.007C0.311,-0.002 0.303,-0 0.294,-0L0.204,-0Z" style="fill:rgb(35,127,243);fill-rule:nonzero;"/>
            </g>
            <g transform="matrix(50,0,0,50,1156.08,446.033)">
                <path d="M0.095,-0C0.088,-0 0.082,-0.002 0.077,-0.007C0.072,-0.012 0.07,-0.018 0.07,-0.025L0.07,-0.675C0.07,-0.682 0.072,-0.688 0.077,-0.693C0.082,-0.698 0.088,-0.7 0.095,-0.7L0.562,-0.7C0.569,-0.7 0.575,-0.698 0.58,-0.693C0.585,-0.688 0.587,-0.682 0.587,-0.675L0.587,-0.581C0.587,-0.574 0.585,-0.568 0.58,-0.563C0.575,-0.558 0.569,-0.556 0.562,-0.556L0.243,-0.556L0.243,-0.421L0.54,-0.421C0.547,-0.421 0.553,-0.418 0.558,-0.413C0.563,-0.409 0.565,-0.402 0.565,-0.395L0.565,-0.308C0.565,-0.301 0.563,-0.295 0.558,-0.29C0.553,-0.286 0.547,-0.283 0.54,-0.283L0.243,-0.283L0.243,-0.144L0.57,-0.144C0.577,-0.144 0.583,-0.142 0.588,-0.137C0.593,-0.132 0.595,-0.126 0.595,-0.119L0.595,-0.025C0.595,-0.018 0.593,-0.012 0.588,-0.007C0.583,-0.002 0.577,-0 0.57,-0L0.095,-0Z" style="fill:rgb(35,127,243);fill-rule:nonzero;"/>
            </g>
            <g transform="matrix(50,0,0,50,1190.18,446.033)">
                <path d="M0.038,-0C0.032,-0 0.027,-0.002 0.022,-0.007C0.018,-0.011 0.016,-0.016 0.016,-0.023C0.016,-0.024 0.016,-0.027 0.017,-0.029C0.018,-0.032 0.019,-0.035 0.021,-0.038L0.188,-0.267L0.036,-0.482C0.034,-0.484 0.033,-0.487 0.032,-0.49C0.031,-0.492 0.03,-0.495 0.03,-0.498C0.03,-0.504 0.032,-0.509 0.037,-0.513C0.041,-0.518 0.047,-0.52 0.053,-0.52L0.175,-0.52C0.184,-0.52 0.19,-0.518 0.195,-0.514C0.199,-0.51 0.202,-0.506 0.204,-0.503L0.297,-0.375L0.389,-0.502C0.392,-0.505 0.395,-0.509 0.399,-0.514C0.404,-0.518 0.41,-0.52 0.419,-0.52L0.536,-0.52C0.542,-0.52 0.547,-0.518 0.552,-0.513C0.556,-0.509 0.558,-0.504 0.558,-0.498C0.558,-0.495 0.558,-0.492 0.557,-0.49C0.556,-0.487 0.555,-0.484 0.553,-0.482L0.397,-0.267L0.567,-0.038C0.569,-0.035 0.57,-0.032 0.571,-0.03C0.572,-0.027 0.572,-0.025 0.572,-0.023C0.572,-0.016 0.57,-0.011 0.565,-0.007C0.561,-0.002 0.556,-0 0.55,-0L0.422,-0C0.414,-0 0.408,-0.002 0.404,-0.006C0.4,-0.009 0.396,-0.013 0.394,-0.016L0.293,-0.153L0.191,-0.016C0.188,-0.013 0.185,-0.01 0.181,-0.006C0.177,-0.002 0.171,-0 0.163,-0L0.038,-0Z" style="fill:rgb(35,127,243);fill-rule:nonzero;"/>
            </g>
            <g transform="matrix(50,0,0,50,1220.58,446.033)">
                <path d="M0.084,0.19C0.077,0.19 0.071,0.188 0.066,0.183C0.061,0.178 0.059,0.172 0.059,0.165L0.059,-0.495C0.059,-0.502 0.061,-0.508 0.066,-0.513C0.071,-0.518 0.077,-0.52 0.084,-0.52L0.197,-0.52C0.204,-0.52 0.21,-0.518 0.215,-0.513C0.219,-0.508 0.222,-0.502 0.222,-0.495L0.222,-0.459C0.238,-0.479 0.258,-0.496 0.284,-0.51C0.309,-0.523 0.34,-0.53 0.377,-0.53C0.41,-0.53 0.44,-0.525 0.465,-0.515C0.49,-0.504 0.512,-0.489 0.53,-0.469C0.548,-0.449 0.563,-0.425 0.573,-0.396C0.583,-0.367 0.588,-0.334 0.59,-0.297C0.591,-0.284 0.591,-0.272 0.591,-0.26C0.591,-0.248 0.591,-0.236 0.59,-0.223C0.589,-0.187 0.583,-0.155 0.573,-0.126C0.563,-0.098 0.549,-0.073 0.531,-0.053C0.513,-0.033 0.491,-0.017 0.465,-0.006C0.44,0.005 0.41,0.01 0.377,0.01C0.344,0.01 0.316,0.004 0.291,-0.007C0.267,-0.019 0.247,-0.036 0.231,-0.057L0.231,0.165C0.231,0.172 0.229,0.178 0.224,0.183C0.219,0.188 0.213,0.19 0.206,0.19L0.084,0.19ZM0.323,-0.124C0.346,-0.124 0.363,-0.128 0.376,-0.138C0.389,-0.147 0.398,-0.16 0.404,-0.176C0.409,-0.192 0.413,-0.209 0.414,-0.229C0.416,-0.25 0.416,-0.27 0.414,-0.291C0.413,-0.311 0.409,-0.328 0.404,-0.344C0.398,-0.36 0.389,-0.373 0.376,-0.382C0.363,-0.392 0.346,-0.396 0.323,-0.396C0.301,-0.396 0.284,-0.392 0.271,-0.382C0.257,-0.372 0.247,-0.36 0.242,-0.344C0.236,-0.329 0.232,-0.312 0.231,-0.294C0.23,-0.281 0.23,-0.269 0.23,-0.257C0.23,-0.245 0.23,-0.232 0.231,-0.219C0.232,-0.202 0.235,-0.186 0.242,-0.172C0.249,-0.158 0.259,-0.146 0.272,-0.137C0.285,-0.128 0.302,-0.124 0.323,-0.124Z" style="fill:rgb(35,127,243);fill-rule:nonzero;"/>
            </g>
            <g transform="matrix(50,0,0,50,1254.13,446.033)">
                <path d="M0.084,-0C0.077,-0 0.071,-0.002 0.066,-0.007C0.061,-0.012 0.059,-0.018 0.059,-0.025L0.059,-0.685C0.059,-0.692 0.061,-0.698 0.066,-0.703C0.071,-0.708 0.077,-0.71 0.084,-0.71L0.202,-0.71C0.209,-0.71 0.215,-0.708 0.22,-0.703C0.225,-0.698 0.227,-0.692 0.227,-0.685L0.227,-0.025C0.227,-0.018 0.225,-0.012 0.22,-0.007C0.215,-0.002 0.209,-0 0.202,-0L0.084,-0Z" style="fill:rgb(35,127,243);fill-rule:nonzero;"/>
            </g>
            <g transform="matrix(50,0,0,50,1269.88,446.033)">
                <path d="M0.084,-0C0.077,-0 0.071,-0.002 0.066,-0.007C0.061,-0.012 0.059,-0.018 0.059,-0.025L0.059,-0.495C0.059,-0.502 0.061,-0.508 0.066,-0.513C0.071,-0.518 0.077,-0.52 0.084,-0.52L0.202,-0.52C0.209,-0.52 0.215,-0.518 0.22,-0.513C0.225,-0.508 0.227,-0.502 0.227,-0.495L0.227,-0.025C0.227,-0.018 0.225,-0.012 0.22,-0.007C0.215,-0.002 0.209,-0 0.202,-0L0.084,-0ZM0.083,-0.595C0.076,-0.595 0.07,-0.597 0.065,-0.602C0.06,-0.607 0.058,-0.613 0.058,-0.62L0.058,-0.71C0.058,-0.717 0.06,-0.723 0.065,-0.728C0.07,-0.733 0.076,-0.735 0.083,-0.735L0.203,-0.735C0.21,-0.735 0.216,-0.733 0.221,-0.728C0.226,-0.723 0.228,-0.717 0.228,-0.71L0.228,-0.62C0.228,-0.613 0.226,-0.607 0.221,-0.602C0.216,-0.597 0.21,-0.595 0.203,-0.595L0.083,-0.595Z" style="fill:rgb(35,127,243);fill-rule:nonzero;"/>
            </g>
            <g transform="matrix(50,0,0,50,1285.53,446.033)">
                <path d="M0.298,0.01C0.249,0.01 0.205,0.001 0.167,-0.017C0.129,-0.035 0.099,-0.061 0.077,-0.095C0.054,-0.129 0.042,-0.171 0.04,-0.219C0.039,-0.23 0.039,-0.243 0.039,-0.259C0.039,-0.276 0.039,-0.289 0.04,-0.3C0.042,-0.349 0.054,-0.39 0.076,-0.425C0.098,-0.459 0.129,-0.485 0.167,-0.503C0.205,-0.521 0.249,-0.53 0.298,-0.53C0.344,-0.53 0.384,-0.524 0.416,-0.511C0.449,-0.498 0.476,-0.481 0.496,-0.462C0.517,-0.442 0.532,-0.423 0.543,-0.402C0.553,-0.382 0.558,-0.364 0.559,-0.349C0.559,-0.342 0.557,-0.336 0.552,-0.331C0.547,-0.326 0.54,-0.324 0.534,-0.324L0.407,-0.324C0.399,-0.324 0.394,-0.326 0.39,-0.329C0.386,-0.333 0.383,-0.338 0.379,-0.344C0.371,-0.364 0.361,-0.379 0.349,-0.388C0.337,-0.397 0.321,-0.401 0.301,-0.401C0.275,-0.401 0.254,-0.393 0.24,-0.375C0.225,-0.358 0.217,-0.331 0.216,-0.295C0.215,-0.268 0.215,-0.245 0.216,-0.224C0.218,-0.188 0.226,-0.161 0.24,-0.144C0.254,-0.127 0.275,-0.119 0.301,-0.119C0.322,-0.119 0.338,-0.123 0.35,-0.132C0.362,-0.141 0.372,-0.156 0.379,-0.176C0.382,-0.182 0.386,-0.187 0.39,-0.191C0.394,-0.194 0.399,-0.196 0.407,-0.196L0.534,-0.196C0.54,-0.196 0.547,-0.194 0.552,-0.189C0.557,-0.184 0.559,-0.178 0.559,-0.171C0.558,-0.16 0.555,-0.147 0.549,-0.132C0.543,-0.116 0.534,-0.1 0.521,-0.084C0.508,-0.067 0.492,-0.052 0.472,-0.038C0.451,-0.024 0.427,-0.012 0.398,-0.003C0.369,0.006 0.336,0.01 0.298,0.01Z" style="fill:rgb(35,127,243);fill-rule:nonzero;"/>
            </g>
            <g transform="matrix(50,0,0,50,1316.83,446.033)">
                <path d="M0.215,0.01C0.179,0.01 0.147,0.003 0.118,-0.011C0.09,-0.024 0.068,-0.043 0.051,-0.066C0.035,-0.09 0.026,-0.116 0.026,-0.145C0.026,-0.193 0.046,-0.23 0.084,-0.258C0.123,-0.285 0.174,-0.304 0.238,-0.314L0.363,-0.333L0.363,-0.347C0.363,-0.371 0.358,-0.389 0.348,-0.402C0.338,-0.414 0.32,-0.421 0.293,-0.421C0.274,-0.421 0.259,-0.417 0.248,-0.41C0.236,-0.402 0.227,-0.392 0.22,-0.38C0.214,-0.372 0.206,-0.367 0.195,-0.367L0.083,-0.367C0.076,-0.367 0.07,-0.369 0.066,-0.374C0.062,-0.378 0.06,-0.383 0.061,-0.389C0.061,-0.401 0.066,-0.414 0.075,-0.43C0.084,-0.446 0.097,-0.462 0.116,-0.477C0.135,-0.492 0.159,-0.505 0.188,-0.515C0.217,-0.525 0.253,-0.53 0.295,-0.53C0.338,-0.53 0.374,-0.525 0.405,-0.515C0.436,-0.505 0.461,-0.491 0.48,-0.473C0.499,-0.455 0.513,-0.434 0.522,-0.409C0.531,-0.385 0.536,-0.358 0.536,-0.329L0.536,-0.025C0.536,-0.018 0.533,-0.012 0.529,-0.007C0.524,-0.002 0.518,-0 0.511,-0L0.395,-0C0.388,-0 0.382,-0.002 0.377,-0.007C0.372,-0.012 0.37,-0.018 0.37,-0.025L0.37,-0.06C0.361,-0.047 0.349,-0.036 0.335,-0.025C0.32,-0.015 0.303,-0.006 0.283,0C0.264,0.007 0.241,0.01 0.215,0.01ZM0.262,-0.104C0.281,-0.104 0.299,-0.108 0.315,-0.117C0.33,-0.125 0.342,-0.138 0.351,-0.156C0.36,-0.173 0.365,-0.196 0.365,-0.222L0.365,-0.236L0.28,-0.221C0.248,-0.215 0.226,-0.207 0.211,-0.196C0.197,-0.185 0.19,-0.173 0.19,-0.158C0.19,-0.147 0.193,-0.137 0.2,-0.129C0.206,-0.121 0.215,-0.115 0.226,-0.111C0.237,-0.106 0.249,-0.104 0.262,-0.104Z" style="fill:rgb(35,127,243);fill-rule:nonzero;"/>
            </g>
            <g transform="matrix(50,0,0,50,1347.88,446.033)">
                <path d="M0.325,-0C0.282,-0 0.245,-0.007 0.214,-0.02C0.183,-0.034 0.159,-0.055 0.143,-0.085C0.126,-0.114 0.118,-0.151 0.118,-0.197L0.118,-0.389L0.04,-0.389C0.032,-0.389 0.026,-0.391 0.022,-0.396C0.017,-0.401 0.014,-0.407 0.014,-0.414L0.014,-0.495C0.014,-0.502 0.017,-0.508 0.022,-0.513C0.026,-0.518 0.032,-0.52 0.04,-0.52L0.118,-0.52L0.118,-0.685C0.118,-0.692 0.121,-0.698 0.125,-0.703C0.13,-0.708 0.136,-0.71 0.143,-0.71L0.259,-0.71C0.266,-0.71 0.272,-0.708 0.277,-0.703C0.282,-0.698 0.284,-0.692 0.284,-0.685L0.284,-0.52L0.409,-0.52C0.416,-0.52 0.422,-0.518 0.427,-0.513C0.432,-0.508 0.435,-0.502 0.435,-0.495L0.435,-0.414C0.435,-0.407 0.432,-0.401 0.427,-0.396C0.422,-0.391 0.416,-0.389 0.409,-0.389L0.284,-0.389L0.284,-0.211C0.284,-0.188 0.289,-0.17 0.297,-0.157C0.306,-0.144 0.321,-0.137 0.341,-0.137L0.418,-0.137C0.425,-0.137 0.431,-0.135 0.436,-0.13C0.441,-0.125 0.443,-0.119 0.443,-0.112L0.443,-0.025C0.443,-0.018 0.441,-0.012 0.436,-0.007C0.431,-0.002 0.425,-0 0.418,-0L0.325,-0Z" style="fill:rgb(35,127,243);fill-rule:nonzero;"/>
            </g>
            <g transform="matrix(50,0,0,50,1370.33,446.033)">
                <path d="M0.305,0.01C0.249,0.01 0.202,0.001 0.163,-0.017C0.125,-0.035 0.095,-0.061 0.075,-0.095C0.055,-0.128 0.043,-0.168 0.041,-0.215C0.04,-0.228 0.04,-0.243 0.04,-0.26C0.04,-0.277 0.04,-0.292 0.041,-0.305C0.043,-0.352 0.055,-0.393 0.077,-0.426C0.098,-0.46 0.128,-0.485 0.166,-0.503C0.205,-0.521 0.251,-0.53 0.305,-0.53C0.36,-0.53 0.406,-0.521 0.444,-0.503C0.483,-0.485 0.512,-0.46 0.534,-0.426C0.555,-0.393 0.567,-0.352 0.57,-0.305C0.571,-0.292 0.571,-0.277 0.571,-0.26C0.571,-0.243 0.571,-0.228 0.57,-0.215C0.567,-0.168 0.556,-0.128 0.535,-0.095C0.515,-0.061 0.486,-0.035 0.447,-0.017C0.409,0.001 0.362,0.01 0.305,0.01ZM0.305,-0.112C0.335,-0.112 0.357,-0.121 0.371,-0.139C0.384,-0.157 0.392,-0.184 0.394,-0.22C0.394,-0.23 0.395,-0.243 0.395,-0.26C0.395,-0.277 0.394,-0.29 0.394,-0.3C0.392,-0.335 0.384,-0.362 0.371,-0.381C0.357,-0.399 0.335,-0.408 0.305,-0.408C0.276,-0.408 0.254,-0.399 0.24,-0.381C0.226,-0.362 0.218,-0.335 0.217,-0.3C0.216,-0.29 0.216,-0.277 0.216,-0.26C0.216,-0.243 0.216,-0.23 0.217,-0.22C0.218,-0.184 0.226,-0.157 0.24,-0.139C0.254,-0.121 0.276,-0.112 0.305,-0.112Z" style="fill:rgb(35,127,243);fill-rule:nonzero;"/>
            </g>
            <g transform="matrix(50,0,0,50,1402.73,446.033)">
                <path d="M0.084,-0C0.077,-0 0.071,-0.002 0.066,-0.007C0.061,-0.012 0.059,-0.018 0.059,-0.025L0.059,-0.495C0.059,-0.502 0.061,-0.508 0.066,-0.513C0.071,-0.518 0.077,-0.52 0.084,-0.52L0.199,-0.52C0.206,-0.52 0.212,-0.518 0.217,-0.513C0.222,-0.508 0.225,-0.502 0.225,-0.495L0.225,-0.455C0.242,-0.476 0.264,-0.492 0.289,-0.503C0.314,-0.514 0.342,-0.52 0.373,-0.52L0.417,-0.52C0.424,-0.52 0.43,-0.518 0.435,-0.513C0.44,-0.508 0.442,-0.502 0.442,-0.495L0.442,-0.392C0.442,-0.385 0.44,-0.379 0.435,-0.374C0.43,-0.369 0.424,-0.367 0.417,-0.367L0.32,-0.367C0.293,-0.367 0.271,-0.36 0.256,-0.345C0.241,-0.33 0.234,-0.308 0.234,-0.281L0.234,-0.025C0.234,-0.018 0.231,-0.012 0.226,-0.007C0.221,-0.002 0.215,-0 0.208,-0L0.084,-0Z" style="fill:rgb(35,127,243);fill-rule:nonzero;"/>
            </g>
        </g>
        <g transform="matrix(1,0,0,1,-486.528,96.4294)">
            <g transform="matrix(288,0,0,288,1378.1,283.781)">
                <path d="M0.365,-0.21L0.365,-0.243C0.365,-0.243 0.684,-0.243 0.684,-0.243C0.695,-0.243 0.705,-0.247 0.713,-0.256C0.722,-0.264 0.726,-0.274 0.726,-0.285C0.726,-0.285 0.726,-0.415 0.726,-0.415C0.726,-0.426 0.722,-0.436 0.713,-0.444C0.705,-0.453 0.695,-0.457 0.684,-0.457L0.365,-0.457C0.365,-0.457 0.365,-0.49 0.365,-0.49C0.365,-0.49 0.739,-0.49 0.739,-0.49C0.75,-0.49 0.76,-0.494 0.768,-0.503C0.777,-0.511 0.781,-0.521 0.781,-0.532C0.781,-0.532 0.781,-0.673 0.781,-0.673C0.781,-0.684 0.777,-0.694 0.768,-0.702C0.76,-0.711 0.75,-0.715 0.739,-0.715L0.117,-0.715C0.106,-0.715 0.096,-0.711 0.088,-0.702C0.079,-0.694 0.075,-0.684 0.075,-0.673L0.075,-0.027C0.075,-0.016 0.079,-0.006 0.088,0.002C0.096,0.011 0.106,0.015 0.117,0.015L0.749,0.015C0.76,0.015 0.77,0.011 0.778,0.002C0.787,-0.006 0.791,-0.016 0.791,-0.027L0.791,-0.168C0.791,-0.179 0.787,-0.189 0.778,-0.197C0.77,-0.206 0.76,-0.21 0.749,-0.21L0.365,-0.21ZM0.335,-0.195C0.335,-0.187 0.342,-0.18 0.35,-0.18L0.749,-0.18C0.752,-0.18 0.755,-0.179 0.758,-0.177C0.76,-0.174 0.761,-0.171 0.761,-0.168C0.761,-0.168 0.761,-0.027 0.761,-0.027C0.761,-0.024 0.76,-0.021 0.758,-0.018C0.755,-0.016 0.752,-0.015 0.749,-0.015L0.117,-0.015C0.114,-0.015 0.111,-0.016 0.108,-0.018C0.106,-0.021 0.105,-0.024 0.105,-0.027L0.105,-0.673C0.105,-0.676 0.106,-0.679 0.108,-0.682C0.111,-0.684 0.114,-0.685 0.117,-0.685L0.739,-0.685C0.742,-0.685 0.745,-0.684 0.748,-0.682C0.75,-0.679 0.751,-0.676 0.751,-0.673L0.751,-0.532C0.751,-0.529 0.75,-0.526 0.748,-0.523C0.745,-0.521 0.742,-0.52 0.739,-0.52C0.739,-0.52 0.35,-0.52 0.35,-0.52C0.342,-0.52 0.335,-0.513 0.335,-0.505L0.335,-0.442C0.335,-0.434 0.342,-0.427 0.35,-0.427L0.684,-0.427C0.687,-0.427 0.69,-0.426 0.693,-0.424C0.695,-0.421 0.696,-0.418 0.696,-0.415L0.696,-0.285C0.696,-0.282 0.695,-0.279 0.693,-0.276C0.69,-0.274 0.687,-0.273 0.684,-0.273L0.35,-0.273C0.342,-0.273 0.335,-0.266 0.335,-0.258L0.335,-0.195Z" style="fill:rgb(35,127,243);"/>
            </g>
            <g transform="matrix(288,0,0,288,1133.3,283.781)">
                <path d="M0.585,-0.715C0.569,-0.715 0.557,-0.711 0.547,-0.704C0.537,-0.696 0.53,-0.686 0.526,-0.671C0.526,-0.671 0.425,-0.335 0.425,-0.335C0.425,-0.335 0.324,-0.671 0.324,-0.671C0.324,-0.671 0.324,-0.671 0.324,-0.672C0.32,-0.682 0.314,-0.691 0.304,-0.7C0.294,-0.71 0.281,-0.715 0.265,-0.715L0.054,-0.715C0.044,-0.715 0.035,-0.711 0.028,-0.704C0.02,-0.696 0.017,-0.688 0.017,-0.681C0.017,-0.676 0.018,-0.671 0.019,-0.667C0.019,-0.667 0.019,-0.667 0.019,-0.666L0.251,-0.025C0.261,0.001 0.28,0.015 0.309,0.015L0.542,0.015C0.572,0.015 0.591,0 0.601,-0.028C0.601,-0.028 0.831,-0.666 0.831,-0.666C0.831,-0.667 0.831,-0.667 0.831,-0.667C0.832,-0.671 0.833,-0.676 0.833,-0.681C0.833,-0.688 0.83,-0.696 0.822,-0.704C0.815,-0.711 0.806,-0.715 0.796,-0.715L0.585,-0.715ZM0.803,-0.68C0.803,-0.678 0.803,-0.677 0.803,-0.675C0.794,-0.65 0.573,-0.038 0.573,-0.038C0.573,-0.038 0.573,-0.038 0.573,-0.038C0.568,-0.022 0.558,-0.015 0.542,-0.015C0.542,-0.015 0.309,-0.015 0.309,-0.015C0.294,-0.015 0.284,-0.021 0.279,-0.035C0.277,-0.041 0.056,-0.649 0.047,-0.675C0.047,-0.677 0.047,-0.678 0.047,-0.68C0.047,-0.681 0.048,-0.682 0.049,-0.683C0.05,-0.685 0.052,-0.685 0.054,-0.685C0.054,-0.685 0.265,-0.685 0.265,-0.685C0.273,-0.685 0.28,-0.683 0.285,-0.679C0.29,-0.674 0.294,-0.668 0.296,-0.663C0.296,-0.663 0.411,-0.28 0.411,-0.28C0.413,-0.274 0.419,-0.269 0.425,-0.269C0.431,-0.269 0.437,-0.274 0.439,-0.28L0.554,-0.663C0.556,-0.671 0.559,-0.676 0.564,-0.68C0.57,-0.684 0.577,-0.685 0.585,-0.685L0.796,-0.685C0.798,-0.685 0.8,-0.685 0.801,-0.683C0.802,-0.682 0.803,-0.681 0.803,-0.68Z" style="fill:rgb(35,127,243);"/>
            </g>
            <g transform="matrix(288,0,0,288,888.496,283.781)">
                <path d="M0.742,-0.48C0.753,-0.48 0.763,-0.484 0.771,-0.493C0.78,-0.501 0.784,-0.511 0.784,-0.522L0.784,-0.673C0.784,-0.684 0.78,-0.694 0.771,-0.702C0.763,-0.711 0.753,-0.715 0.742,-0.715L0.108,-0.715C0.097,-0.715 0.087,-0.711 0.079,-0.702C0.07,-0.694 0.066,-0.684 0.066,-0.673L0.066,-0.522C0.066,-0.511 0.07,-0.501 0.079,-0.493C0.087,-0.484 0.097,-0.48 0.108,-0.48L0.276,-0.48C0.276,-0.48 0.276,-0.22 0.276,-0.22C0.276,-0.22 0.108,-0.22 0.108,-0.22C0.097,-0.22 0.087,-0.216 0.079,-0.207C0.07,-0.199 0.066,-0.189 0.066,-0.178L0.066,-0.027C0.066,-0.016 0.07,-0.006 0.079,0.002C0.087,0.011 0.097,0.015 0.108,0.015L0.742,0.015C0.753,0.015 0.763,0.011 0.771,0.002C0.78,-0.006 0.784,-0.016 0.784,-0.027L0.784,-0.178C0.784,-0.189 0.78,-0.199 0.771,-0.207C0.763,-0.216 0.753,-0.22 0.742,-0.22L0.576,-0.22C0.576,-0.22 0.576,-0.48 0.576,-0.48C0.576,-0.48 0.742,-0.48 0.742,-0.48ZM0.742,-0.51L0.561,-0.51C0.553,-0.51 0.546,-0.503 0.546,-0.495L0.546,-0.205C0.546,-0.197 0.553,-0.19 0.561,-0.19L0.742,-0.19C0.745,-0.19 0.748,-0.189 0.751,-0.187C0.753,-0.184 0.754,-0.181 0.754,-0.178C0.754,-0.178 0.754,-0.027 0.754,-0.027C0.754,-0.024 0.753,-0.021 0.751,-0.018C0.748,-0.016 0.745,-0.015 0.742,-0.015L0.108,-0.015C0.105,-0.015 0.102,-0.016 0.099,-0.018C0.097,-0.021 0.096,-0.024 0.096,-0.027C0.096,-0.027 0.096,-0.178 0.096,-0.178C0.096,-0.181 0.097,-0.184 0.099,-0.187C0.102,-0.189 0.105,-0.19 0.108,-0.19C0.108,-0.19 0.291,-0.19 0.291,-0.19C0.299,-0.19 0.306,-0.197 0.306,-0.205L0.306,-0.495C0.306,-0.503 0.299,-0.51 0.291,-0.51L0.108,-0.51C0.105,-0.51 0.102,-0.511 0.099,-0.513C0.097,-0.516 0.096,-0.519 0.096,-0.522C0.096,-0.522 0.096,-0.673 0.096,-0.673C0.096,-0.676 0.097,-0.679 0.099,-0.682C0.102,-0.684 0.105,-0.685 0.108,-0.685L0.742,-0.685C0.745,-0.685 0.748,-0.684 0.751,-0.682C0.753,-0.679 0.754,-0.676 0.754,-0.673C0.754,-0.673 0.754,-0.522 0.754,-0.522C0.754,-0.519 0.753,-0.516 0.751,-0.513C0.748,-0.511 0.745,-0.51 0.742,-0.51Z" style="fill:rgb(35,127,243);"/>
            </g>
            <g transform="matrix(288,0,0,288,643.696,283.781)">
                <path d="M0.783,-0.673C0.783,-0.684 0.779,-0.694 0.77,-0.702C0.762,-0.711 0.752,-0.715 0.741,-0.715L0.133,-0.715C0.122,-0.715 0.112,-0.711 0.104,-0.702C0.095,-0.694 0.091,-0.684 0.091,-0.673L0.091,-0.522C0.091,-0.511 0.095,-0.501 0.104,-0.493C0.112,-0.484 0.122,-0.48 0.133,-0.48L0.483,-0.48C0.483,-0.48 0.483,-0.27 0.483,-0.27C0.483,-0.248 0.476,-0.23 0.461,-0.218C0.445,-0.206 0.423,-0.2 0.396,-0.2C0.352,-0.2 0.325,-0.215 0.314,-0.249C0.314,-0.249 0.314,-0.249 0.314,-0.249C0.307,-0.272 0.293,-0.282 0.275,-0.282L0.049,-0.282C0.039,-0.282 0.03,-0.278 0.023,-0.271C0.016,-0.264 0.012,-0.255 0.012,-0.245C0.012,-0.181 0.044,-0.12 0.108,-0.064C0.108,-0.064 0.108,-0.064 0.108,-0.064C0.139,-0.038 0.18,-0.016 0.232,0C0.282,0.016 0.339,0.025 0.401,0.025C0.516,0.025 0.608,-0.001 0.677,-0.053C0.747,-0.105 0.783,-0.184 0.783,-0.291L0.783,-0.673ZM0.753,-0.673L0.753,-0.291C0.753,-0.195 0.722,-0.123 0.659,-0.076C0.595,-0.028 0.509,-0.005 0.401,-0.005C0.342,-0.005 0.288,-0.012 0.24,-0.027C0.193,-0.042 0.156,-0.062 0.128,-0.086C0.071,-0.135 0.042,-0.188 0.042,-0.245C0.042,-0.247 0.042,-0.249 0.044,-0.25C0.045,-0.252 0.047,-0.252 0.049,-0.252L0.275,-0.252C0.281,-0.252 0.284,-0.248 0.286,-0.241C0.301,-0.195 0.337,-0.17 0.396,-0.17C0.431,-0.17 0.459,-0.179 0.48,-0.196C0.501,-0.213 0.513,-0.238 0.513,-0.27L0.513,-0.495C0.513,-0.503 0.506,-0.51 0.498,-0.51L0.133,-0.51C0.13,-0.51 0.127,-0.511 0.124,-0.513C0.122,-0.516 0.121,-0.519 0.121,-0.522C0.121,-0.522 0.121,-0.673 0.121,-0.673C0.121,-0.676 0.122,-0.679 0.124,-0.682C0.127,-0.684 0.13,-0.685 0.133,-0.685L0.741,-0.685C0.744,-0.685 0.747,-0.684 0.75,-0.682C0.752,-0.679 0.753,-0.676 0.753,-0.673Z" style="fill:rgb(35,127,243);"/>
            </g>
        </g>
    </g>
</svg>
