<?xml version="1.0" encoding="UTF-8" standalone="no"?>
<!DOCTYPE svg PUBLIC "-//W3C//DTD SVG 1.1//EN" "http://www.w3.org/Graphics/SVG/1.1/DTD/svg11.dtd">
<svg viewBox="0 0 48 48" version="1.1" xmlns="http://www.w3.org/2000/svg"
    xmlns:xlink="http://www.w3.org/1999/xlink" xml:space="preserve"
    xmlns:serif="http://www.serif.com/"
    style="fill-rule:evenodd;clip-rule:evenodd;stroke-linejoin:round;stroke-miterlimit:2;">
    <rect x="0" y="0" width="48" height="48" style="fill:none;"/>
    <path d="M38.2,44C38,44 37.817,43.967 37.65,43.9C37.483,43.833 37.317,43.717 37.15,43.55L25.05,31.45C24.883,31.283 24.767,31.117 24.7,30.95C24.633,30.783 24.6,30.6 24.6,30.4C24.6,30.2 24.633,30.017 24.7,29.85C24.767,29.683 24.883,29.517 25.05,29.35L29.3,25.1C29.467,24.933 29.633,24.817 29.8,24.75C29.967,24.683 30.15,24.65 30.35,24.65C30.55,24.65 30.733,24.683 30.9,24.75C31.067,24.817 31.233,24.933 31.4,25.1L43.5,37.2C43.667,37.367 43.783,37.533 43.85,37.7C43.917,37.867 43.95,38.05 43.95,38.25C43.95,38.45 43.917,38.633 43.85,38.8C43.783,38.967 43.667,39.133 43.5,39.3L39.25,43.55C39.083,43.717 38.917,43.833 38.75,43.9C38.583,43.967 38.4,44 38.2,44ZM9.75,44C9.55,44 9.358,43.967 9.175,43.9C8.992,43.833 8.817,43.717 8.65,43.55L4.45,39.35C4.283,39.183 4.167,39.008 4.1,38.825C4.033,38.642 4,38.45 4,38.25C4,38.05 4.033,37.867 4.1,37.7C4.167,37.533 4.283,37.367 4.45,37.2L15.7,25.95L19.95,25.95L21.85,24.05L13.1,15.3L10.25,15.3L4,9.05L8.95,4.1L15.2,10.35L15.2,13.2L23.95,21.95L30.45,15.45L27.1,12.1L29.9,9.3L24.25,9.3L23.35,8.4L29.75,2L30.65,2.9L30.65,8.55L33.45,5.75L41.9,14.2C42.4,14.7 42.792,15.275 43.075,15.925C43.358,16.575 43.5,17.267 43.5,18C43.5,18.667 43.392,19.308 43.175,19.925C42.958,20.542 42.65,21.1 42.25,21.6L38,17.35L35.2,20.15L32.6,17.55L22.05,28.1L22.05,32.3L10.8,43.55C10.633,43.717 10.467,43.833 10.3,43.9C10.133,43.967 9.95,44 9.75,44Z" style="fill-rule:nonzero;"/>
</svg>
