<?xml version="1.0" encoding="UTF-8" standalone="no"?>
<!DOCTYPE svg PUBLIC "-//W3C//DTD SVG 1.1//EN" "http://www.w3.org/Graphics/SVG/1.1/DTD/svg11.dtd">
<svg viewBox="0 0 20 20" version="1.1" xmlns="http://www.w3.org/2000/svg"
    xmlns:xlink="http://www.w3.org/1999/xlink" xml:space="preserve"
    xmlns:serif="http://www.serif.com/"
    style="fill-rule:evenodd;clip-rule:evenodd;stroke-linejoin:round;stroke-miterlimit:2;">
    <rect x="0" y="0" width="20" height="20" style="fill:none;"/>
    <path d="M15.313,18C15.215,18 15.122,17.983 15.031,17.948C14.941,17.913 14.861,17.861 14.792,17.792L10.833,13.833C10.764,13.764 10.708,13.681 10.667,13.583C10.625,13.486 10.604,13.389 10.604,13.292C10.604,13.194 10.625,13.101 10.667,13.01C10.708,12.92 10.764,12.84 10.833,12.771L12.771,10.833C12.84,10.764 12.92,10.708 13.01,10.667C13.101,10.625 13.194,10.604 13.292,10.604C13.389,10.604 13.486,10.625 13.583,10.667C13.681,10.708 13.764,10.764 13.833,10.833L17.792,14.792C17.861,14.861 17.913,14.941 17.948,15.031C17.983,15.122 18,15.215 18,15.313C18,15.41 17.983,15.507 17.948,15.604C17.913,15.701 17.861,15.785 17.792,15.854L15.833,17.792C15.764,17.861 15.684,17.913 15.594,17.948C15.503,17.983 15.41,18 15.313,18ZM4.708,18C4.597,18 4.493,17.976 4.396,17.927C4.299,17.878 4.215,17.819 4.146,17.75L2.208,15.813C2.139,15.743 2.087,15.663 2.052,15.573C2.017,15.483 2,15.389 2,15.292C2,15.194 2.021,15.101 2.063,15.01C2.104,14.92 2.16,14.84 2.229,14.771L6,11L7.938,11L8.938,10L5.938,7L4.75,7L2,4.271L4.25,2L7,4.75L7,5.938L10,8.938L12.333,6.604L11.5,5.75L12.75,4.5L10.667,4.5L10,3.833L12.833,1L13.5,1.667L13.5,3.75L14.25,3L17.25,6C17.486,6.236 17.67,6.514 17.802,6.833C17.934,7.153 18,7.479 18,7.813C18,8.146 17.934,8.469 17.802,8.781C17.67,9.094 17.486,9.368 17.25,9.604L15.208,7.563L14.25,8.5L13.417,7.667L9,12.063L9,14L5.25,17.771C5.181,17.84 5.101,17.896 5.01,17.938C4.92,17.979 4.819,18 4.708,18Z" style="fill-rule:nonzero;"/>
</svg>
