<?xml version="1.0" encoding="UTF-8" standalone="no"?>
<!DOCTYPE svg PUBLIC "-//W3C//DTD SVG 1.1//EN" "http://www.w3.org/Graphics/SVG/1.1/DTD/svg11.dtd">
<svg viewBox="0 0 48 48" version="1.1" xmlns="http://www.w3.org/2000/svg" xmlns:xlink="http://www.w3.org/1999/xlink" xml:space="preserve" xmlns:serif="http://www.serif.com/" style="fill-rule:evenodd;clip-rule:evenodd;stroke-linejoin:round;stroke-miterlimit:2;">
    <rect x="0" y="0" width="48" height="48" style="fill:none;"/>
    <path d="M13.5,34L13.5,31L26.85,31C26.15,30.3 25.55,29.45 25.05,28.45C24.55,27.45 24.233,26.467 24.1,25.5L17.5,25.5L17.5,22.5L24.1,22.5C24.233,21.567 24.542,20.608 25.025,19.625C25.508,18.642 26.117,17.767 26.85,17L6,17L6,14L34,14C36.767,14 39.125,14.975 41.075,16.925C43.025,18.875 44,21.233 44,24C44,26.767 43.025,29.125 41.075,31.075C39.125,33.025 36.767,34 34,34L13.5,34ZM33.988,31C35.929,31 37.583,30.321 38.95,28.962C40.317,27.603 41,25.953 41,24.012C41,22.071 40.321,20.417 38.962,19.05C37.603,17.683 35.953,17 34.012,17C32.071,17 30.417,17.679 29.05,19.038C27.683,20.397 27,22.047 27,23.988C27,25.929 27.679,27.583 29.038,28.95C30.397,30.317 32.047,31 33.988,31ZM4,25.5L4,22.5L16,22.5L16,25.5L4,25.5ZM6,34L6,31L12,31L12,34L6,34Z" style="fill-rule:nonzero;"/>
</svg>
