<?xml version="1.0" encoding="UTF-8" standalone="no"?>
<!DOCTYPE svg PUBLIC "-//W3C//DTD SVG 1.1//EN" "http://www.w3.org/Graphics/SVG/1.1/DTD/svg11.dtd">
<svg viewBox="0 0 20 20" version="1.1" xmlns="http://www.w3.org/2000/svg"
    xmlns:xlink="http://www.w3.org/1999/xlink" xml:space="preserve"
    xmlns:serif="http://www.serif.com/"
    style="fill-rule:evenodd;clip-rule:evenodd;stroke-linejoin:round;stroke-miterlimit:2;">
    <rect x="0" y="0" width="20" height="20" style="fill:none;"/>
    <path d="M10,18C8.907,18 7.873,17.79 6.9,17.37C5.927,16.95 5.077,16.377 4.35,15.65C3.623,14.923 3.05,14.073 2.63,13.1C2.21,12.127 2,11.093 2,10C2,8.889 2.212,7.851 2.635,6.885C3.059,5.92 3.642,5.073 4.385,4.344C5.128,3.615 5.997,3.042 6.99,2.625C7.983,2.208 9.043,2 10.172,2C11.247,2 12.261,2.188 13.215,2.563C14.169,2.938 15,3.451 15.708,4.104C16.417,4.757 16.976,5.521 17.385,6.396C17.795,7.271 18,8.208 18,9.208C18,10.542 17.534,11.674 16.602,12.604C15.671,13.535 14.539,14 13.208,14L11.797,14C11.682,14 11.583,14.035 11.5,14.104C11.417,14.174 11.375,14.262 11.375,14.368C11.375,14.581 11.479,14.757 11.688,14.896C11.896,15.035 12,15.403 12,16C12,16.514 11.813,16.976 11.438,17.385C11.063,17.795 10.583,18 10,18ZM5.5,10.75C5.847,10.75 6.142,10.628 6.385,10.385C6.628,10.142 6.75,9.847 6.75,9.5C6.75,9.153 6.628,8.858 6.385,8.615C6.142,8.372 5.847,8.25 5.5,8.25C5.153,8.25 4.858,8.372 4.615,8.615C4.372,8.858 4.25,9.153 4.25,9.5C4.25,9.847 4.372,10.142 4.615,10.385C4.858,10.628 5.153,10.75 5.5,10.75ZM8,7.75C8.347,7.75 8.642,7.628 8.885,7.385C9.128,7.142 9.25,6.847 9.25,6.5C9.25,6.153 9.128,5.858 8.885,5.615C8.642,5.372 8.347,5.25 8,5.25C7.653,5.25 7.358,5.372 7.115,5.615C6.872,5.858 6.75,6.153 6.75,6.5C6.75,6.847 6.872,7.142 7.115,7.385C7.358,7.628 7.653,7.75 8,7.75ZM12,7.75C12.347,7.75 12.642,7.628 12.885,7.385C13.128,7.142 13.25,6.847 13.25,6.5C13.25,6.153 13.128,5.858 12.885,5.615C12.642,5.372 12.347,5.25 12,5.25C11.653,5.25 11.358,5.372 11.115,5.615C10.872,5.858 10.75,6.153 10.75,6.5C10.75,6.847 10.872,7.142 11.115,7.385C11.358,7.628 11.653,7.75 12,7.75ZM14.5,10.75C14.847,10.75 15.142,10.628 15.385,10.385C15.628,10.142 15.75,9.847 15.75,9.5C15.75,9.153 15.628,8.858 15.385,8.615C15.142,8.372 14.847,8.25 14.5,8.25C14.153,8.25 13.858,8.372 13.615,8.615C13.372,8.858 13.25,9.153 13.25,9.5C13.25,9.847 13.372,10.142 13.615,10.385C13.858,10.628 14.153,10.75 14.5,10.75Z" style="fill-rule:nonzero;"/>
</svg>
